<?xml version="1.0" encoding="utf-8"?>
<!-- Generator: Adobe Illustrator 16.0.3, SVG Export Plug-In . SVG Version: 6.00 Build 0)  -->
<!DOCTYPE svg PUBLIC "-//W3C//DTD SVG 1.1//EN" "http://www.w3.org/Graphics/SVG/1.1/DTD/svg11.dtd">
<svg version="1.1" xmlns="http://www.w3.org/2000/svg" x="0px" y="0px"
     width="1190.551px" height="1190.551px" viewBox="0 0 1190.551 1190.551"
     enable-background="new 0 0 1190.551 1190.551"
     xml:space="preserve">
<g id="back">
	<rect fill="#0D1428" width="1190.551" height="1190.551"/>
</g>
<g id="logo">
	<g>
		<g>
			<g>
				<path fill="none" d="M412.236,736.112c0-0.009,0.002-0.015,0.002-0.023c-2.091-1.642-4.224-3.238-6.286-4.91
					C408.017,732.852,410.125,734.468,412.236,736.112z"/>
				<path fill="#27AAE1" d="M714.283,211.541c-2.861-1.145-5.718-2.321-8.643-3.364c-8.035,12.577-17.152,24.679-26.721,36.282
					C690.543,233.335,702.081,221.963,714.283,211.541z"/>
				<path fill="#27AAE1" d="M323.17,625.749c0.865,1.782,1.759,3.551,2.646,5.322c1.116,2.223,2.24,4.411,3.392,6.619
					c0.964,1.788,1.942,3.581,2.931,5.357c1.237,2.23,2.513,4.413,3.8,6.625c0.966,1.598,1.899,3.246,2.882,4.833
					c2.149,3.457,4.358,6.896,6.626,10.294c0.989,1.474,2.03,2.89,3.053,4.357c1.513,2.164,3.037,4.316,4.606,6.456
					c1.173,1.573,2.357,3.144,3.548,4.707c1.556,1.996,3.132,4.01,4.72,5.985c1.198,1.465,2.374,2.937,3.573,4.355
					c2.154,2.559,4.354,5.083,6.576,7.554c1.313,1.466,2.638,2.919,3.969,4.329c2.208,2.366,4.431,4.718,6.72,7.032
					c1.258,1.288,2.568,2.547,3.856,3.779c1.914,1.862,3.858,3.71,5.819,5.534c1.334,1.222,2.669,2.469,4.036,3.667
					c2.218,1.981,4.48,3.924,6.771,5.856c1.091,0.911,2.161,1.836,3.257,2.766c2.062,1.672,4.194,3.269,6.286,4.91
					c2.136-34.269,8.693-68.635,15.164-101.948c8.593-44.331,18.808-88.353,30.238-132.037c0.918-3.476,1.882-6.972,2.84-10.439
					c-0.713-7.992-0.423-15.944,0.987-23.553c-20.479,1.614-41.83-3.509-58.309-15.108c-14.346-10.109-23.835-23.883-30.837-39.979
					c-5.299-12.192-9.107-26.296-11.554-39.389c-3.821-20.592-4.221-34.019-4.315-44.485c-0.006-0.677,0-3.03,0.935-4.479
					c0.877-1.314,3.245-2.165,4.177-2.463c28.962-9.136,58.334-16.575,88.313-21.803c24.148-4.232,48.476-7.826,72.797-11.115
					c1.496-0.202,2.996-0.379,4.523-0.571c4.141-6.265,8.835-12.157,14.187-17.504c18.559-18.543,44.133-30.108,69.979-33.538
					c0.534-0.051,1.097-0.108,1.663-0.181c-10.687-8.507-23.058-15.423-34.824-20.168c-14.07-5.702-29.31-7.869-44.433-8.37
					c-14.715-0.479-30.005,1.683-44.979,1.694c-114.182,44.459-195.1,154.971-195.1,284.385c0,40.667,8.054,79.45,22.55,114.961
					c0.894,2.188,1.81,4.362,2.752,6.532C320.35,619.643,321.731,622.708,323.17,625.749z"/>
				<path fill="#27AAE1" d="M702.923,261.033c0.47,0.37,0.961,0.699,1.432,1.075c10.105,8.175,16.536,17.967,20.646,28.751
					c7.816,1.021,15.573,2.203,23.284,3.547c13.929,2.378,51.701,10.928,76.459,20.202c2.248,0.823,9.919,2.983,12.02,6.722
					c1.124,1.925,1.355,4.975,1.258,8.036c-0.128,4.397-2.259,16.983-2.828,19.924c-0.642,3.46-1.296,6.431-1.716,8.785
					c-3.191,17.236-7.635,34.235-12.923,50.813c-10.313,32.342-25.678,61.011-51.842,83.291
					c-16.913,14.429-36.084,24.468-56.871,28.369c-2.196,24.855-2.679,49.527-0.882,74.539
					c2.907,40.101,13.91,76.431,27.663,114.189c5.726,15.731,12.755,31.624,20.826,46.871c0.078-0.031,0.128-0.087,0.205-0.113
					c3.728-2.262,7.374-4.616,11.002-7.042c1.096-0.719,2.185-1.486,3.305-2.25c2.66-1.802,5.263-3.669,7.883-5.557
					c1.08-0.795,2.161-1.607,3.24-2.404c3.445-2.585,6.873-5.233,10.21-7.978c0.407-0.324,0.81-0.694,1.206-1.052
					c2.997-2.466,5.884-4.961,8.779-7.514c1.035-0.958,2.09-1.932,3.112-2.895c2.347-2.158,4.676-4.343,6.946-6.585
					c0.938-0.897,1.86-1.782,2.765-2.686c3.026-3.035,5.983-6.102,8.89-9.283c0.648-0.718,1.305-1.487,1.977-2.204
					c2.271-2.544,4.524-5.111,6.706-7.734c0.954-1.113,1.87-2.257,2.818-3.372c2.062-2.546,4.067-5.109,6.078-7.724
					c0.701-0.905,1.415-1.81,2.107-2.759c2.556-3.422,5.061-6.882,7.451-10.417c0.691-0.997,1.364-2.053,2.043-3.061
					c1.785-2.711,3.539-5.399,5.232-8.139c0.779-1.269,1.554-2.525,2.325-3.764c1.794-3.018,3.56-6.075,5.294-9.185
					c0.421-0.775,0.889-1.557,1.302-2.332c2.059-3.769,4.023-7.615,5.911-11.506c0.59-1.192,1.154-2.386,1.725-3.584
					c18.667-39.44,29.162-83.501,29.162-129.975c0-102.136-50.447-192.491-127.823-247.935c-7.786,1.949-15.639,3.645-23.453,5.281
					C739.529,255.813,720.671,259.181,702.923,261.033z"/>
				<path fill="#27AAE1" d="M649.677,234.214c1.164-12.937,2.12-26.419,3.802-39.863c-4.167-0.703-8.313-1.351-12.486-1.886
					c4.969,13.782,7.773,28.702,8.479,43.931C649.55,235.677,649.598,234.933,649.677,234.214z"/>
				<path fill="#FFFFFF" d="M700.246,522.041c-8.028,0.584-16.213,0.271-24.58-1.096c-21.948-3.554-43.058-11.869-60.737-24.965
					c1.274,22.001,5.062,44.543,13.05,64.66c5.287,13.266,14.61,28.631,22.352,40.632c5.84,9.074,11.735,17.879,16.061,27.886
					c4.62,10.7,10.856,25.083,3.405,36.012c-5.957,8.687-18.581,9.39-28.074,8.811c-14.663-0.892-28.861-6.415-39.582-16.725
					c-11.566-11.104-17.665-24.566-21.124-40.077c-3.926-17.568-3.812-36.113-3.229-54.016c0.47-14.228,1.965-28.38,4.222-42.417
					c-4.825,3.618-10.142,6.573-15.877,8.674c-7.107,2.65-14.458,3.499-21.76,3.088c-4.51,11.893-8.245,24.59-10.381,36.266
					c-1.874,10.317-2.874,21.98-4.81,32.287c-2.378,12.708-8.341,41.256-27.485,33.982c-21.831-8.333-17.803-37.315-12.552-55.251
					c5.54-18.687,17.472-37.8,32.088-52.729c-0.988-0.39-1.984-0.737-2.962-1.192c-5.594-2.465-18.534-10.804-27.377-16.684
					c-3.361,4.179-6.399,8.748-8.93,13.556c-0.53,1.047-4.703,8.516-8.253,7.801c-3.746-0.769-6.757-9.98-7.758-13.139
					c-0.102-0.3-0.189-0.575-0.242-0.761c-0.319-0.99-0.615-1.993-0.931-3.036c-8.021,32.106-14.882,64.328-21.668,96.903
					c-5.892,28.254-9.676,57.638-13.691,86.211c-1.676,11.984-2.67,30.833-3.154,49.667
					c49.476,34.016,109.461,53.968,174.122,53.968c52.932,0,102.701-13.376,146.133-36.859
					c-26.233-52.063-43.157-109.986-47.074-168.211C697.796,570.865,698.159,546.396,700.246,522.041z"/>
				<path fill="#FFFFFF" d="M615.692,284.125c32.107,0.438,64.316,1.625,96.251,5.158c-0.008-0.003-0.011-0.01-0.013-0.045
					c-6.1-11.5-15.611-20.456-26.826-26.863c-47.399-27.086-111.031-17.584-144.737,24.849
					C565.393,284.667,590.458,283.815,615.692,284.125z"/>
				<path fill="#FFFFFF" d="M537.715,403.098c2.255-0.473,4.523-0.866,6.788-1.217c0.718-0.11,1.455-0.225,2.167-0.324
					c1.285-0.173,2.563-0.295,3.844-0.414c0.482-0.064,0.959-0.11,1.439-0.17c0,0.005,0,0.008,0.005,0.015
					c2.631-0.219,5.223-0.355,7.849-0.434c-0.505-3.037-0.989-6.079-1.433-9.114c-2.188-15.807-3.677-31.905-4.381-47.83
					c0-0.082-0.035-0.127-0.035-0.206c-3.56,0.206-7.112,0.584-10.641,1.113c-0.993,15.511-2.921,30.977-6.553,46.023
					c-1.073,4.46-2.347,9.04-3.778,13.583c0.645-0.15,1.325-0.317,2.007-0.48C535.887,403.441,536.814,403.288,537.715,403.098z"/>
				<path fill="#ED1C24" d="M709.374,186.603c6.458-12.545,12.464-25.839,14.958-39.821c1.611-8.762,3.672-24.921-5.897-30.336
					c-12.861-7.281-27.424,1.938-34.809,12.537c-8.139,11.639-14.198,25.354-17.385,39.127c-5.459,23.367-8.492,47.366-11.36,71.326
					c5.689,1.186,11.301,2.749,16.773,4.696C686.008,226.176,698.938,206.924,709.374,186.603z"/>
				<path fill="#ED1C24" d="M732.397,250.243c21.534-4.044,44.742-9.755,65.225-17.785c12.584-4.924,29.483-10.277,36.981-22.513
					c7.144-11.658,5.773-27.323-8.485-32.215c-14.312-4.905-29.261-0.924-43.126,3.636c-15.352,5.021-29.91,12.032-43.261,21.102
					c-19.659,13.313-38.864,29.974-56.771,46.315c4.738,2.247,9.315,4.849,13.647,7.713
					C708.518,255.145,721.137,252.375,732.397,250.243z"/>
				<path fill="#ED1C24" d="M643.268,237.562c-1.82-19.479-7.218-38.946-16.212-56.177c-5.675-10.801-12.563-21.136-21.606-29.436
					c-8.222-7.523-18.063-13.445-27.945-18.584c-12.111-6.305-25.156-10.851-38.831-12.07c-15.118-1.34-32.344-1.23-46.998,3.001
					c-15.455,4.458-30.939,12.741-41.007,25.765c-8.329,10.762-12.505,27.181-1.78,38.53c13.043,13.887,33.581,13.413,51.242,12.751
					c18.921-0.698,37.693-1.927,56.372,1.841c24.599,4.988,47.438,16.207,64.966,33.609
					C628.654,236.458,635.953,236.692,643.268,237.562z"/>
				<path fill="#ED1C24" d="M597.313,638.094c3.62,6.074,8.537,11.304,14.258,15.434c8.023,5.785,17.093,9.9,27.113,10.625
					c6.089,0.461,15.112,0.872,20.144-2.278c2.733-1.69,4.473-4.592,4.278-9.338c-0.541-13.04-6.371-26.105-13.364-36.822
					c-6.155-9.409-12.359-18.751-17.585-28.7c-15.682-29.895-22.461-62.546-23.462-96.018c-0.933-0.773-1.835-1.56-2.727-2.368
					c-2.622,5.453-5.616,10.722-8.729,15.661c-2.666,4.297-5.896,8.22-9.537,11.678c-2.147,21.785-3.751,51.835-3.255,68.135
					C584.945,600.399,588.755,623.754,597.313,638.094z"/>
				<path fill="#ED1C24" d="M493.91,612.208c1.097,6.238,6.003,17.671,14.539,15.113c6.785-2.059,9.652-11.611,11.374-17.605
					c2.03-7.281,3.377-14.756,4.182-22.28c2.018-18.462,7.698-37.585,14.82-55.494c-3.92-0.576-7.783-1.482-11.606-2.718
					c-14.125,14.118-25.703,33.05-30.734,50.948C493.824,589.631,492.156,602.361,493.91,612.208z"/>
				<path fill="#FECF08" d="M566.497,520.262c10.589-5.273,19.864-13.845,26.428-23.775c3.217-4.879,5.461-9.312,7.056-13.694
					c-1.944-2.01-3.839-4.081-5.659-6.293c-1.928-2.36-3.789-4.769-5.621-7.222c-2.246,3.535-5.507,6.977-10.226,9.559
					c-8.738,4.809-24.332,6.477-33.674,7.221c-14.462,1.122-29.302,2.325-41.467,11.132c-2.65,1.904-5.208,4.197-7.656,6.668
					c3.527,2.462,9.639,5.815,11.413,6.909c5.875,3.64,12.25,7.021,18.675,9.514C539.168,525.496,553.231,526.854,566.497,520.262z"
					/>
				<path fill="#FECF08" d="M482.45,440.759c-17.442,20.417-18.483,52.5-8.923,78.818c0.184,0.49,0.642,1.962,1.427,2.05
					c0.046,0,0.139-0.058,0.237-0.106c-0.541,1.178-1.188,2.285-1.858,3.366c0.002,0,0.035,0.007,0.042,0.007
					c0.635-1.088,1.278-2.198,1.817-3.375c0.148-0.083,0.268-0.194,0.397-0.362c0.587-0.609,2.066-3.315,2.355-3.851
					c10.074-19.494,27.96-34.232,51.109-37.514c8.254-1.182,24.016-0.774,36.945-3.688c7.68-1.703,15.204-4.326,19.812-11.021
					c-4.984-7.178-9.471-14.71-13.395-22.517c-5.121-10.264-8.449-21.264-10.816-32.456c-2.291-0.014-4.62,0.056-6.957,0.161
					c-0.001-0.012-0.001-0.02-0.002-0.055C527.694,411.454,499.527,420.783,482.45,440.759z"/>
				<path fill="#FFFFFF" d="M618.344,395.471c-6.706,5.969-13.381,11.983-19.853,18.042c-1.584,1.474-3.151,2.946-4.708,4.425
					c-0.282,0.238-0.903,0.874-0.859,1.208c0.086,0.396,0.902,0.543,1.285,0.565c2.731,0.18,5.464,0.364,8.166,0.521
					c15.759,1.067,31.486,2.302,47.201,3.633c-1.289,2.557-2.573,5.149-3.907,7.661c-5.503,10.673-10.613,21.379-15.836,32.083
					c-1.493,3.049-5.484,11.123-8.742,17.8c-1.091,2.239-4.216,8.353-3.836,8.598c0.781,0.437,6.315-3.6,8.618-5.113
					c7.511-5.014,17.79-12.048,24.903-17.252c4.906-3.611,9.608-7.094,13.071-9.826c5.88-4.611,42.108-31.397,65.368-49.185
					c1.741-1.306,3.377-2.584,4.935-3.817c0.364-0.239,1.178-0.979,1.159-1.367c-0.015-0.458-0.97-0.617-1.404-0.658
					c-2.07-0.275-4.173-0.544-6.242-0.783c-3.552-0.455-7.104-0.88-10.656-1.324c-9.878-1.183-19.738-2.341-29.642-3.338
					c0.335-0.876,0.705-1.748,1.079-2.583c5.611-12.763,11.348-25.492,17.175-38.175c5.899-12.892,15.167-34.457,22.995-51.682
					c0.612-1.365,2.007-4.951,1.947-5.254c-0.394-1.229-4.942,3.006-6.64,4.467c-9.942,8.546-21.291,17.816-27.248,22.792
					C682.96,338.286,631.337,383.949,618.344,395.471z"/>
				<path fill="#FFFFFF" d="M482.235,411.76c9.543-9.714,32.916-32.873,34.684-34.379c0.403-0.372,1.649-1.341,1.555-1.753
					c-0.087-0.376-1.244-0.27-1.578-0.23c-2.559,0.055-5.118,0.153-7.675,0.291c-5.773,0.228-11.534,0.514-17.238,0.735
					c-7.101,0.296-14.259,0.585-21.423,0.957c1.278-3.518,2.572-6.991,3.914-10.493c2.927-7.652,16.585-44.172,25.547-68.182
					c0.103-0.283,0.401-1.455,0.168-1.455c-0.161,0-0.288,0.041-0.444,0.125c-0.302,0.176-1.526,1.429-1.989,1.84
					c-0.995,0.961-2.029,1.904-3.041,2.872c-3.241,3.104-12.403,11.967-22.795,22.08c-12.985,12.638-65.132,64.679-79.338,80.263
					c-0.186,0.228-1.409,1.54-2.901,3.192c-0.151,0.146-0.447,0.521-0.388,0.727c0.101,0.376,1.721,0.146,2.305,0.061
					c1.833-0.259,3.579-0.479,4.536-0.598c16.782-2.325,33.859-3.64,50.892-4.577c-1.08,4.187-3.968,15.813-4.86,19.53
					c-2.446,10.097-4.913,20.127-7.5,29.478c-0.632,2.315-1.272,4.571-1.916,6.765c-0.098,0.365-0.211,1.004-0.004,1.091
					c0.247,0.108,0.877-0.395,1.225-0.736c0.99-1.04,2.006-2.056,3.038-3.113C451.549,441.502,469.395,424.832,482.235,411.76z"/>
			</g>
			<g id="letters_2_">
				<path fill="#ED1C24" d="M226.635,978.046c0,5.996,0,6.21-8.217,6.21h-12.221h-3.33c-3.999,0-3.776-0.433-3.999-5.548
					l-0.444-140.391c0.223-5.113-0.667-5.999,5.332-5.999c11.107,0,27.324,0.219,38.653,0.886
					c15.994,1.113,28.435,8.663,31.545,20.875c1.556,5.781,2.444,11.561,2.444,17.327c0,22.442-15.108,40.001-44.429,41.768
					c-4.888,0.229-4.888,0.229-4.888,3.998L226.635,978.046z M225.082,848.082c-3.11,0-3.331,0.445-3.331,2.897v1.331l0.668,37.104
					c0,2.434,0,3.098,1.998,3.098c18.883,0,27.324-13.544,27.324-23.322C251.74,852.31,243.299,848.082,225.082,848.082z"/>
				<path fill="#ED1C24" d="M332.824,985.21c-40.43,0-49.316-42.436-49.316-72.635c0-34.656,4.886-83.752,47.538-83.752
					c48.875,0,49.542,51.094,49.542,83.083C380.587,945.226,377.254,985.21,332.824,985.21z M352.82,919.67v-33.316
					c0-14.448-1.559-31.108-9.777-37.104c-2.445-1.771-6.443-2.213-12.439-2.213c-6.442,0-8.887,1.997-10.221,4.443
					c-6.884,11.998-9.552,36.652-9.552,52.863c0,13.995,2.668,44.883,8.665,54.21c1.999,2.886,5.555,3.117,11.55,3.117h4.668
					c4.444,0,7.33-0.669,9.109-3.117C348.155,954.338,352.82,941.229,352.82,919.67z"/>
				<path fill="#ED1C24" d="M408.133,835.867c8.22,0,8.662,0.221,8.662,5.779v1.104l-2.22,114.422v0.429v0.234
					c0,4.665,0,5.102,6.666,5.552l18.657,1.329c5.332,0.451,6.446,0,6.446,3.783v0.883l-0.221,9.999
					c-0.226,6.214-1.113,5.547-9.333,5.777c-13.55,0.218-27.548,0.665-40.876,0.665c-4.887,0-6.22-0.896-6.22-7.114l-0.223-135.728
					v-2.898c0-3.545,0.445-4.216,7.773-4.216H408.133z"/>
				<path fill="#ED1C24" d="M472.775,830.919c8.222,0,8.664,0.231,8.664,5.78v1.113l-2.224,114.406v0.436v0.233
					c0,4.667,0,5.101,6.664,5.55l18.662,1.327c5.333,0.453,6.446,0,6.446,3.785v0.881l-0.225,10
					c-0.219,6.229-1.108,5.56-9.329,5.778c-13.55,0.218-27.546,0.665-40.876,0.665c-4.889,0-6.224-0.884-6.224-7.113l-0.218-135.729
					v-2.884c0-3.563,0.443-4.229,7.774-4.229H472.775z"/>
				<path fill="#ED1C24" d="M516.979,917.4c0-31.997,0.668-83.082,49.543-83.082c42.646,0,47.535,49.085,47.535,83.751
					c0,30.203-8.886,72.638-49.314,72.638C520.316,990.707,516.979,950.723,516.979,917.4z M552.744,964.048
					c1.777,2.451,4.671,3.117,9.112,3.117h4.667c5.998,0,9.548-0.23,11.552-3.117c6-9.323,8.66-40.214,8.66-54.208
					c0-16.209-2.661-40.869-9.55-52.862c-1.334-2.45-3.774-4.446-10.221-4.446c-6,0-9.997,0.446-12.443,2.215
					c-8.218,5.996-9.773,22.658-9.773,37.102v33.318C544.748,946.723,549.412,959.835,552.744,964.048z"/>
				<path fill="#ED1C24" d="M697.999,860.525c-4.22,0-6.885,0.45-6.885,4.669v0.446l0.446,19.763c0,3.777,0.438,3.777,5.553,3.777
					c8.442,0.234,12.44,0.452,20.878,0.452h1.56c2.882,0,3.769,0.214,3.769,3.546l0.665,12.897v1.333
					c0,2.662-0.665,2.662-5.767,2.662c-8.893,0.218-17.772,0.668-25.105,0.885c-4.664,0.219-5.113,0.219-5.113,1.998
					c0,23.543-0.218,45.101-0.218,68.642c0,4.894,0,4.894-6.667,5.112l-7.327,0.447h-3.777c-5.116,0-6-1.332-6-3.995v-3.564v-0.67
					c0.447-37.316,0.664-73.302,0.664-110.854v-28.203c0-4.222,0.666-4.667,8.662-4.667h50.431h2.884
					c2.666,0,3.33,0.445,3.564,3.336l0.883,18.656v1.333c0,2.217-0.883,2.449-3.329,2.449c-9.777,0-10.667-0.45-21.331-0.45H697.999
					z"/>
				<path fill="#ED1C24" d="M809.517,841.646c4.212,0,5.33,0,5.33,1.77c0,0.451-0.221,1.112-0.221,2.002l-0.662,13.775
					c-0.667,4.221-0.235,4.221-6.665,4.221h-34.217c-3.776,0-4.441,0.66-4.441,2.444v2.446l-0.227,23.326v1.784
					c0,1.996,0.227,2.215,4.668,2.215h29.549h2.671c3.546,0,4.215,0.217,4.215,3.995v10.664c0,5.551,0,5.78-7.337,6.001
					c-3.992,0.217-7.994,0.217-12.877,0.217h-17.557h-2.667c-4.216,0-4.883,0.229-4.883,4.444l-0.23,31.772
					c0,5.777,0,5.548,7.342,5.777l40.873,1.773c5.783,0.229,5.997,0.229,5.997,4.893v15.097c0,4.664,0,4.895-6.216,4.895h-65.091
					c-5.996,0-5.114-0.447-5.328-4.67l-0.668-135.07c0-4.004,0.437-4.436,3.548-4.436h4.217L809.517,841.646z"/>
				<path fill="#ED1C24" d="M899.042,978.925c0,4.005-0.229,4.005-5.558,4.005l-60.646-0.219c-4.883,0-5.331-0.217-5.331-5.329
					V843.2v-1.554c0-3.109,0.222-3.328,5.55-3.563l54.655-1.331h1.335c4.002,0,3.77,0.666,4.002,3.999
					c0.435,4.451,0.665,7.559,0.665,13.56c0,2.667-0.23,2.667-3.333,2.667h-0.896h-33.763c-4.44,0-4.44,0.432-4.44,3.547v31.987
					v1.119c0,1.544,0.439,1.779,3.773,1.779l33.541,0.219c3.553,0,4.221,0,4.221,1.549v1.785l-1.104,14.211
					c-0.448,2.895-0.448,2.895-4.229,3.115l-28.653,0.883c-3.108,0-3.338,0.228-3.338,1.999v0.895l0.229,36.209
					c0,3.327,0,3.561,4.438,3.561l34.883,0.219c3.77,0,3.998,0.448,3.998,2.445v1.549V978.925z"/>
				<path fill="#ED1C24" d="M908.144,840.982c0-2.898,0.231-3.333,5.11-3.999c7.999-1.337,16.441-1.998,24.442-1.998
					c13.776,0,24.874,2.216,32.868,6.661c21.333,12.215,21.561,38.425,21.561,63.759v14.661c0,29.325-7.998,65.979-54.213,65.979
					c-5.33,0-14.663-0.223-20.432-0.223c-7.777-0.229-9.337-1.78-9.337-5.56V843.416V840.982z M967.016,906.076
					c0-27.107-3.996-54.432-16.207-54.432c-4.007,0-11.78,0.434-14.895,1.334c-3.332,0.883-3.772,1.333-3.772,4.666v0.435v7.331
					c0,20.438-0.446,46.433-0.446,66.65c0,13.33,0.219,23.992,0.887,28.658c3.778-0.216,16.894-0.664,22.889-1.116
					c5.103-0.436,5.103-0.885,6.433-4.213C964.568,947.609,967.016,926.946,967.016,906.076z"/>
			</g>
		</g>
		<g>
			<path fill="#ED1C24" d="M434.005,1034.417c1.574-2.092,2.34-4.593,2.34-7.646c0-5.235-2.274-7.469-7.604-7.469h-2.238
				c-2.501,0-4.635,0.104-6.343,0.31l-0.194,0.004c-0.031,0.013-0.085,0.043-0.096,0.054l0.014,0.117
				c0.594,8.604,0.896,17.622,0.896,26.772c0,1.967,0.027,3.169,0.088,3.897c0.001,0.157,0.01,0.247,0.019,0.298
				c0.052,0.013,0.103,0.03,0.153,0.053c0.093-0.001,0.411-0.003,0.494-0.003c0.461,0,1.08,0.012,1.864,0.027l1.892,0.036
				c0.743,0.015,1.321,0.026,1.751,0.026c0.039,0,0.063-0.004,0.076-0.007c-0.002-0.01,0.006-0.049,0.006-0.12
				c0-0.05-0.011-0.159-0.021-0.269c-0.013-0.147-0.024-0.294-0.024-0.358c-0.022-0.853-0.088-2.165-0.2-3.999
				c-0.049-0.791-0.09-1.502-0.125-2.129c-0.045-0.804-0.083-1.468-0.121-1.983c-0.061-0.486-0.09-1.104-0.09-1.917
				c0-0.284,0.047-0.48,0.153-0.638c0.177-0.226,0.429-0.292,0.778-0.385c0.13-0.034,0.263-0.066,0.347-0.104
				C430.375,1038.024,432.446,1036.491,434.005,1034.417z M429.952,1031.229c-0.715,0.954-1.447,1.415-2.241,1.415
				c-0.859,0-0.902-0.603-0.902-0.724c-0.003-0.019-0.021-0.126-0.039-0.234c-0.028-0.175-0.051-0.351-0.051-0.393
				c-0.36-2.917-0.537-5.075-0.537-6.536c0-0.258,0.11-0.858,1.127-0.858h0.269c2.192,0,3.724,1.531,3.724,3.724
				C431.301,1028.797,430.86,1029.977,429.952,1031.229z"/>
			<path fill="#ED1C24" d="M473.104,1033.622c0-2.418-0.626-4.777-1.862-7.011c-2.859-4.976-6.803-7.397-12.054-7.397
				c-3.991,0-7.351,1.473-10.272,4.503c-2.934,3.043-4.36,6.503-4.36,10.577c0,5.241,1.191,9.407,3.542,12.382
				c2.328,2.948,5.743,4.443,10.151,4.443c4.542,0,8.188-1.561,10.836-4.639C471.751,1043.378,473.104,1039.052,473.104,1033.622z
				 M458.919,1043.389c-2.247,0-4.095-0.77-5.494-2.288c-1.38-1.499-2.08-3.398-2.08-5.644c0-2.416,0.874-4.467,2.597-6.094
				c1.729-1.636,3.811-2.465,6.185-2.465c2.255,0,3.936,0.887,4.994,2.636c0.999,1.648,1.505,3.822,1.505,6.46
				C466.627,1040.763,463.89,1043.389,458.919,1043.389z"/>
			<path fill="#ED1C24" d="M493.923,1043.709c-0.053-0.029-0.447-0.068-1.719-0.024l-1.078,0.035
				c-0.45,0.015-0.795,0.026-1.044,0.026c-0.305,0-1.028-0.126-1.168-1.291c-0.204-2.465-0.362-6.24-0.473-11.241
				c-0.118-5.251-0.252-8.685-0.424-10.805c-0.014-0.136-0.054-0.524-1.158-0.524h-0.716c-1.322,0-2.379,0.071-3.229,0.217
				c-0.39,0.049-0.39,0.144-0.39,0.179c-0.05,1.551-0.088,3.372-0.132,5.471l-0.047,2.24c0,0.55,0,1.56-0.022,3.019
				c-0.022,1.452-0.022,2.591-0.022,3.462c0,1.813,0,4.542,0.022,8.168c0.022,3.627,0.022,6.067,0.022,7.322
				c0,0.636,0.132,1.022,1.962,1.022h0.851c1.448,0,3.934-0.016,7.556-0.09h0.547c0.572,0,0.843-0.018,0.971-0.034
				c0.003-0.033,0.006-0.077,0.006-0.138v-0.626c0-2.946-0.072-4.901-0.22-5.976C493.976,1043.817,493.94,1043.732,493.923,1043.709
				z"/>
			<path fill="#ED1C24" d="M516.785,1047.886c-0.07-1.229-0.113-2.112-0.113-2.714v-0.18c0-0.711-0.153-0.842-0.155-0.843
				c-0.27,0-0.83,0.012-1.719,0.088c-0.884,0.075-1.461,0.091-1.789,0.091h-1.254c-0.766,0-1.037-0.486-1.037-0.902
				c-0.063-2.361-0.107-6.668-0.168-12.63l-0.011-1.064c-0.022-1.273-0.045-2.908-0.067-4.856c-0.022-1.95-0.022-3.586-0.022-4.863
				c0-0.262-0.051-0.521-0.665-0.577c-0.337-0.021-0.887-0.043-1.611-0.043c-1.503,0-2.706,0.129-3.575,0.383
				c-0.271,0.085-0.429,0.148-0.462,0.186c-0.038,0.056-0.064,0.365-0.076,0.497c-0.058,1.613-0.088,3.144-0.088,4.523
				c0,2.802-0.078,6.981-0.246,13.153c-0.17,6.286-0.246,10.113-0.246,12.41c0,0.157,0,0.306,0.485,0.306h1.388
				c0.52,0,1.227,0.012,2.13,0.026l2.294,0.038c0.864,0.014,1.533,0.025,2.022,0.025c1.936,0,3.538-0.089,4.764-0.264
				c0.269-0.035,0.331-0.099,0.332-0.1C516.896,1049.965,516.854,1049.098,516.785,1047.886z"/>
			<path fill="#ED1C24" d="M549.156,1044.785c1.144-2.502,1.723-6.093,1.723-10.671c0-4.062-1.031-7.579-3.064-10.455
				c-2.028-2.871-4.729-4.267-8.255-4.267c-5.131,0-8.849,1.377-11.05,4.091c-2.228,2.748-3.358,6.973-3.358,12.557
				c0,2.945,0.39,5.587,1.16,7.853c0.736,2.165,2.021,3.978,3.819,5.386c1.75,1.37,4.003,2.064,6.699,2.064
				c2.514,0,4.649-0.349,6.348-1.038C546.015,1049.111,548.028,1047.252,549.156,1044.785z M543.206,1042.122
				c-1.175,1.346-3.17,2.028-5.929,2.028c-1.033,0-1.873-0.189-2.496-0.563c-0.645-0.387-1.266-1.021-1.9-1.936
				c-0.983-1.533-1.477-3.492-1.477-5.836c0-2.497,0.658-4.66,1.955-6.429c1.319-1.799,3.27-2.711,5.798-2.711
				c1.327,0,2.513,0.589,3.43,1.704c1.561,1.894,2.352,4.396,2.352,7.436C544.94,1038.68,544.356,1040.801,543.206,1042.122z"/>
			<path fill="#ED1C24" d="M572.201,1019.75h-0.851c-1.053,0-2.627-0.039-5.163-0.111c-2.453-0.071-4.094-0.112-5.224-0.112
				c-0.888,0-0.888,0.359-0.888,0.574c0,0.161,0.009,0.509,0.019,0.888c0.013,0.466,0.026,0.979,0.026,1.262
				c0,1.381,0.011,2.68,0.022,3.994c0.011,1.349,0.023,2.713,0.023,4.198v4.478c0,5.628,0.06,10.971,0.176,15.884
				c0.012,0.001,0.025,0.001,0.04,0.001c0.473,0,1.081,0.014,1.825,0.03l1.567,0.035c0.594,0.014,1.048,0.024,1.354,0.024
				c0.885,0,1.469-0.172,1.524-0.448c0.07-0.305,0.08-0.545,0.08-0.663c0-3.641,0.045-6.316,0.136-7.952
				c0.013-0.13,0.019-0.231,0.024-0.329c0.023-0.425,0.073-1.308,1.057-1.308c0.328,0,0.811-0.022,1.49-0.065
				c0.708-0.046,1.233-0.068,1.599-0.068c0.351,0,0.351-0.091,0.351-0.217c0-0.562,0-1.482,0.022-2.762
				c0.022-1.272,0.022-2.164,0.022-2.7c0-0.078-0.008-0.104-0.008-0.105c-0.095-0.021-0.821-0.021-1.06-0.021h-2.104
				c-1.093,0-1.307-0.562-1.307-1.53c0-0.242,0-0.616-0.022-1.166c-0.022-0.568-0.022-1.022-0.022-1.386v-1.836
				c0-0.596,0.018-1.063,0.049-1.279c0.079-0.468,0.401-1.234,1.704-1.234c0.229,0,0.569,0.013,0.996,0.029l0.825,0.032
				c0.389,0.015,0.698,0.027,0.911,0.027c0.882,0,0.917-0.321,0.936-0.494c0.215-1.842,0.311-2.9,0.311-3.438v-0.896
				c-0.021-0.824-0.062-1.217-0.075-1.308C572.552,1019.793,572.455,1019.75,572.201,1019.75z"/>
			<path fill="#ED1C24" d="M590.395,1032.783c-0.846,0-1.275-0.29-1.275-0.862c0-0.286,0.012-0.697,0.028-1.214l0.033-1.106
				c0.016-0.521,0.029-0.942,0.029-1.262c0-0.564,0-1.888,0.903-1.888c0.276,0,0.735,0.022,1.378,0.068
				c0.611,0.044,1.068,0.066,1.352,0.066c0.623,0,1.146-0.078,1.555-0.23c-0.063,0.03,0.094-0.176,0.094-0.926
				c0-0.645-0.022-1.511-0.067-2.599c-0.045-1.107-0.068-1.809-0.068-2.147c-0.021-0.623-0.098-0.828-0.12-0.875
				c-0.02,0.017-0.308-0.079-1.229-0.103c-2.191-0.059-4.214-0.089-5.852-0.089c-0.326,0-0.773,0.011-1.34,0.024l-1.534,0.037
				c-0.605,0.016-1.081,0.027-1.424,0.027c-0.152,0-0.515,0.02-0.587,0.2c-0.063,0.156-0.167,0.596-0.167,1.808v1.164
				c0,2.362-0.016,6.389-0.089,12.161c-0.074,5.745-0.09,9.631-0.09,11.88c0,1.336,0.022,2.337,0.044,3.027l0,0.106
				c0,0.76,0.313,0.833,0.634,0.843h6.029c0.098,0,0.134-0.012,0.155-0.02l0.096-0.031l0.101,0.008
				c0.282,0.021,0.716,0.043,1.259,0.043c1.72,0,2.951-0.07,3.763-0.216c0.393-0.042,0.438-0.063,0.438-0.493
				c0.022-1.371,0.045-3.339,0.045-5.864c0-0.279-0.063-0.354-0.063-0.355l-0.78,0.005c-0.52,0-1.08-0.013-1.598-0.025
				c-0.439-0.01-0.849-0.02-1.177-0.02h-0.896c-0.417,0-0.903-0.26-0.903-0.992v-4.164c0-0.37,0.193-0.992,1.485-0.992h0.582
				c0.297,0,1.173-0.009,2.887-0.089c0.374-0.047,0.374-0.188,0.374-0.352c0-0.709-0.03-1.434-0.088-2.152
				c-0.057-0.704-0.091-1.322-0.091-1.653c-0.061-0.816-0.443-0.888-0.798-0.888c-0.374,0-0.923,0.022-1.625,0.066l-0.337,0.021
				C591.033,1032.76,590.676,1032.783,590.395,1032.783z"/>
			<path fill="#ED1C24" d="M619.477,1050.41c0-1.813-0.118-3.474-0.353-4.935c-0.074-0.673-0.231-0.791-0.233-0.793
				c-0.324,0.006-0.869,0.005-1.615-0.018c-0.731-0.022-1.264-0.022-1.597-0.022c-0.574,0-1.229,0.023-1.872,0.046
				c-0.638,0.022-1.265,0.044-1.799,0.044c-0.652,0-1.044-0.1-1.27-0.323c-0.223-0.225-0.305-0.6-0.305-1.386v-3.044
				c0-1.038,0.31-1.255,1.182-1.345c0.309-0.006,0.694-0.015,1.23-0.025l2.469-0.051c0.545-0.012,0.937-0.02,1.17-0.02
				c0.214-0.012,0.852-0.044,0.969-0.125c-0.001,0-0.001,0-0.001,0c-0.009,0,0.01-0.072,0.01-0.315v-5.551
				c0-0.146-0.004-0.24-0.009-0.302c-0.241-0.012-1.14-0.006-2.64,0.084c-0.952,0.059-1.838,0.091-2.492,0.091
				c-1.282,0-1.933-0.258-1.933-1.664c0-0.573-0.011-1.058-0.021-1.554c-0.012-0.531-0.023-1.077-0.023-1.759
				c0-0.233,0.081-0.993,1.127-0.993c0.413,0,0.959-0.014,1.628-0.03l1.394-0.032c0.597-0.015,1.072-0.026,1.41-0.026
				c0.353,0,0.902-0.022,1.65-0.066c0.773-0.046,1.365-0.068,1.753-0.068c0.02,0,0.036,0,0.05-0.001
				c0.032-0.165,0.032-0.536,0.032-0.708v-2.104c0-0.66-0.054-1.762-0.179-3.684c-0.001-0.001-0.1-0.07-0.441-0.07
				c-0.691,0-1.764,0-3.26,0.022c-1.504,0.022-2.625,0.022-3.365,0.022c-0.831,0-2.086,0-3.745-0.022
				c-1.654-0.022-2.859-0.022-3.643-0.022c-0.084,0-0.11,0.01-0.111,0.01c-0.005,0.014-0.084,0.144-0.152,0.755
				c-0.209,2.021-0.311,3.907-0.311,5.765c0,0.781,0,1.875,0.022,3.305c0.022,1.437,0.022,2.447,0.022,3.008
				c0,1.364-0.046,3.313-0.135,5.793c-0.09,2.512-0.134,4.409-0.134,5.802c0,2.525,0.022,4.357,0.045,5.452
				c0,0.798,0.351,0.906,0.679,0.946c2.145,0.265,5.197,0.399,9.073,0.399h4.388c0.125,0,0.402-0.011,0.861-0.084
				C619.477,1050.724,619.477,1050.527,619.477,1050.41z"/>
			<path fill="#ED1C24" d="M649.509,1042.442c1.582-2.535,2.385-5.292,2.385-8.193c0-8.621-3.943-13.321-12.056-14.367
				c-2.144-0.238-5.113-0.354-9.068-0.354c-0.784,0-1.249,0.913-1.381,2.716c-0.207,3.661-0.313,7.839-0.313,12.408
				c0,1.538-0.054,3.819-0.179,7.628c-0.126,3.784-0.18,6.069-0.18,7.639c0,0.259,0.088,0.381,0.337,0.469
				c1.718,0.521,3.369,0.777,5.028,0.777c3.352,0,6.388-0.833,9.024-2.477C645.782,1047.022,647.935,1044.92,649.509,1042.442z
				 M637.539,1043.31c-0.191,0.145-0.468,0.213-0.858,0.213c-0.523,0-1.082-0.331-1.082-1.261c0-6.038,0.205-11.149,0.628-15.627
				c0.032-0.411,0.346-0.9,1.125-0.9c2.162,0,3.945,0.771,5.299,2.294c1.331,1.498,2.007,3.334,2.007,5.458
				C644.657,1037.617,642.262,1040.921,637.539,1043.31z"/>
			<path fill="#ED1C24" d="M666.179,1049.649c-0.002-0.059-0.047-1.331-0.135-3.788c-0.018-0.547-0.194-0.547-0.351-0.547
				c-0.157,0.003-3.37,0.151-5.813,0.265v2.011c0,0.259,0.045,1.198,0.134,2.792c0.021,0.648,0.264,0.648,0.441,0.648
				c1.556,0,3.244-0.059,5.162-0.179C665.783,1050.845,666.179,1050.833,666.179,1049.649z"/>
			<path fill="#ED1C24" d="M693.321,1019.661c-3.382,0-5.961,0.307-7.667,0.912c-2.327,0.84-4.242,1.956-5.689,3.317
				c-1.424,1.338-2.634,3.172-3.598,5.45c-0.597,1.511-0.901,3.393-0.901,5.58c0,4.969,1.448,8.893,4.303,11.661
				c2.859,2.772,6.771,4.179,11.628,4.179h1.478c1.335,0,1.335-0.245,1.335-0.529v-0.224c-0.155-1.306-0.292-2.973-0.401-4.896
				c-0.022-0.539-0.109-0.669-0.113-0.674c-0.008,0-0.155-0.083-0.748-0.156c-6.143-0.748-9.258-4.214-9.258-10.301
				c0-2.954,0.723-5.019,2.209-6.31c1.443-1.254,3.688-1.995,6.673-2.203c0.369-0.068,0.849-0.185,1.371-0.339
				c0.281-0.108,0.447-0.224,0.447-1.356c0-0.25,0-0.681,0.022-1.294c0.022-0.595,0.022-0.992,0.022-1.168
				c0-0.504-0.049-1.008-0.148-1.537C694.199,1019.736,693.949,1019.661,693.321,1019.661z"/>
			<path fill="#ED1C24" d="M730.968,1033.622c0-2.418-0.627-4.777-1.862-7.011c-2.859-4.976-6.803-7.397-12.054-7.397
				c-3.991,0-7.351,1.473-10.271,4.503c-2.935,3.043-4.36,6.503-4.36,10.577c0,5.241,1.191,9.407,3.542,12.382
				c2.328,2.948,5.743,4.443,10.15,4.443c4.542,0,8.188-1.561,10.836-4.639C729.616,1043.378,730.968,1039.052,730.968,1033.622z
				 M716.784,1043.389c-2.247,0-4.096-0.77-5.494-2.288c-1.38-1.499-2.079-3.398-2.079-5.644c0-2.416,0.874-4.467,2.597-6.094
				c1.729-1.636,3.811-2.465,6.186-2.465c2.255,0,3.936,0.887,4.994,2.636c0.999,1.648,1.505,3.822,1.505,6.46
				C724.492,1040.763,721.754,1043.389,716.784,1043.389z"/>
			<path fill="#ED1C24" d="M766.157,1020.24c-2.949-0.26-4.488-0.394-4.585-0.4c-0.457,0.001-1.161,0.148-1.653,1.427
				c-0.43,1.087-1.036,2.84-1.785,5.019c-0.777,2.267-2.868,7.039-2.996,7.077c-0.257,0.076-0.905-0.877-1.298-1.482
				c-0.448-0.695-1.23-1.902-2.372-3.647c-2.1-3.242-3.836-5.896-5.488-8.1c0.003,0.005-0.06-0.072-0.177-0.24
				c-0.06-0.087-0.122-0.181-0.163-0.227c-0.081-0.081-0.133-0.094-0.155-0.094c-4.044-0.345-4.795-0.4-4.887-0.403
				c-0.09,0-0.141,0.015-0.157,0.022c0.002,0.004-0.008,0.037-0.008,0.104v3.044c0,6.202-0.045,10.892-0.134,13.938
				c-0.022,0.915-0.067,2.883-0.112,5.857c-0.046,3.007-0.113,5.348-0.202,6.959l0.001,0.51c0,0.607,0.124,0.732,0.125,0.733
				c0.009,0.006,0.255,0.172,1.225,0.199c2.315,0.079,3.996,0.177,5.451,0.315c0.001,0,0.004,0,0.007,0
				c0.033,0,0.158,0.011,0.283,0.022c0.098,0.01,0.195,0.021,0.243,0.021c0.281,0,0.351-0.035,0.358-0.039
				c0.003-0.017,0.037-0.14,0.037-0.58c0.067-6.382,0.374-14.756,0.736-14.794c0.15-0.016,0.941,1.4,1.109,1.77
				c0.392,0.686,0.935,1.824,1.865,3.912c0.825,1.852,1.382,3.055,1.672,3.657c0.14,0.29,0.249,0.437,0.316,0.508
				c0.229-0.375,0.433-0.776,0.605-1.197c0.296-0.711,0.796-1.648,1.447-2.712c0.783-1.28,1.129-2.015,1.341-2.373
				c1.941-3.277,3.021-5.135,3.202-4.863c0.191,0.287,0.166,11.245,0.166,12.646c0,0.15-0.011,0.421-0.022,0.692
				c-0.011,0.255-0.021,0.51-0.021,0.65c0,1.169,0.178,1.29,1.005,1.337c0.296,0.014,0.686,0.015,1.163,0.031l0.349,0.013
				c1.145,0.061,2.175,0.089,3.251,0.089c0.229,0,0.977-0.022,0.977-0.306c0-1.847,0.027-5.251,0.157-10.98
				c0.103-4.498,0.156-8.441,0.156-11.404c0-2.57-0.022-4.492-0.044-5.767C767.145,1020.556,767.002,1020.333,766.157,1020.24z"/>
		</g>
	</g>
</g>
</svg>
