<?xml version="1.0" encoding="utf-8"?>
<!-- Generator: Adobe Illustrator 16.0.3, SVG Export Plug-In . SVG Version: 6.00 Build 0)  -->
<!DOCTYPE svg PUBLIC "-//W3C//DTD SVG 1.1//EN" "http://www.w3.org/Graphics/SVG/1.1/DTD/svg11.dtd">
<svg version="1.1" xmlns="http://www.w3.org/2000/svg" x="0px" y="0px"
     width="1190.551px" height="1190.551px" viewBox="0 0 1190.551 1190.551"
     enable-background="new 0 0 1190.551 1190.551"
     xml:space="preserve">
<g id="back">
	<rect fill="#0D1428" width="1190.551" height="1190.551"/>
</g>
<g id="logo">
	<g>
		<g>
			<path fill="none" d="M412.236,749.112c0-0.009,0.002-0.015,0.002-0.023c-2.091-1.642-4.224-3.238-6.286-4.91
				C408.017,745.852,410.125,747.468,412.236,749.112z"/>
			<path fill="#27AAE1" d="M714.283,224.541c-2.861-1.145-5.718-2.321-8.643-3.364c-8.035,12.577-17.152,24.679-26.721,36.282
				C690.543,246.335,702.081,234.963,714.283,224.541z"/>
			<path fill="#27AAE1" d="M323.17,638.749c0.865,1.782,1.759,3.551,2.646,5.322c1.116,2.223,2.24,4.411,3.392,6.619
				c0.964,1.788,1.942,3.581,2.931,5.357c1.237,2.23,2.513,4.413,3.8,6.625c0.966,1.598,1.899,3.246,2.882,4.833
				c2.149,3.457,4.358,6.896,6.626,10.294c0.989,1.474,2.03,2.89,3.053,4.357c1.513,2.164,3.037,4.316,4.606,6.456
				c1.173,1.573,2.357,3.144,3.548,4.707c1.556,1.996,3.132,4.01,4.72,5.985c1.198,1.465,2.374,2.937,3.573,4.355
				c2.154,2.559,4.354,5.083,6.576,7.554c1.313,1.466,2.638,2.919,3.969,4.329c2.208,2.366,4.431,4.718,6.72,7.032
				c1.258,1.288,2.568,2.547,3.856,3.779c1.914,1.862,3.858,3.71,5.819,5.534c1.334,1.222,2.669,2.469,4.036,3.667
				c2.218,1.981,4.48,3.924,6.771,5.856c1.091,0.911,2.161,1.836,3.257,2.766c2.062,1.672,4.194,3.269,6.286,4.91
				c2.136-34.269,8.693-68.635,15.164-101.948c8.593-44.331,18.808-88.353,30.238-132.037c0.918-3.476,1.882-6.972,2.84-10.439
				c-0.713-7.992-0.423-15.944,0.987-23.553c-20.479,1.614-41.83-3.509-58.309-15.108c-14.346-10.109-23.835-23.883-30.837-39.979
				c-5.299-12.192-9.107-26.296-11.554-39.389c-3.821-20.592-4.221-34.019-4.315-44.485c-0.006-0.677,0-3.03,0.935-4.479
				c0.877-1.314,3.245-2.165,4.177-2.463c28.962-9.136,58.334-16.575,88.313-21.803c24.148-4.232,48.476-7.826,72.797-11.115
				c1.496-0.202,2.996-0.379,4.523-0.571c4.141-6.265,8.835-12.157,14.187-17.504c18.559-18.543,44.133-30.108,69.979-33.538
				c0.534-0.051,1.097-0.108,1.663-0.181c-10.687-8.507-23.058-15.423-34.824-20.168c-14.07-5.702-29.31-7.869-44.433-8.37
				c-14.715-0.479-30.005,1.683-44.979,1.694c-114.182,44.459-195.1,154.971-195.1,284.385c0,40.667,8.054,79.45,22.55,114.961
				c0.894,2.188,1.81,4.362,2.752,6.532C320.35,632.643,321.731,635.708,323.17,638.749z"/>
			<path fill="#27AAE1" d="M702.923,274.033c0.47,0.37,0.961,0.699,1.432,1.075c10.105,8.175,16.536,17.967,20.646,28.751
				c7.816,1.021,15.573,2.203,23.284,3.547c13.929,2.378,51.701,10.928,76.459,20.202c2.248,0.823,9.919,2.983,12.02,6.722
				c1.124,1.925,1.355,4.975,1.258,8.036c-0.128,4.397-2.259,16.983-2.828,19.924c-0.642,3.46-1.296,6.431-1.716,8.785
				c-3.191,17.236-7.635,34.235-12.923,50.813c-10.313,32.342-25.678,61.011-51.842,83.291
				c-16.913,14.429-36.084,24.468-56.871,28.369c-2.196,24.855-2.679,49.527-0.882,74.539c2.907,40.101,13.91,76.431,27.663,114.189
				c5.726,15.731,12.755,31.624,20.826,46.871c0.078-0.031,0.128-0.087,0.205-0.113c3.728-2.262,7.374-4.616,11.002-7.042
				c1.096-0.719,2.185-1.486,3.305-2.25c2.66-1.802,5.263-3.669,7.883-5.557c1.08-0.795,2.161-1.607,3.24-2.404
				c3.445-2.585,6.873-5.233,10.21-7.978c0.407-0.324,0.81-0.694,1.206-1.052c2.997-2.466,5.884-4.961,8.779-7.514
				c1.035-0.958,2.09-1.932,3.112-2.895c2.347-2.158,4.676-4.343,6.946-6.585c0.938-0.897,1.86-1.782,2.765-2.686
				c3.026-3.035,5.983-6.102,8.89-9.283c0.648-0.718,1.305-1.487,1.977-2.204c2.271-2.544,4.524-5.111,6.706-7.734
				c0.954-1.113,1.87-2.257,2.818-3.372c2.062-2.546,4.067-5.109,6.078-7.724c0.701-0.905,1.415-1.81,2.107-2.759
				c2.556-3.422,5.061-6.882,7.451-10.417c0.691-0.997,1.364-2.053,2.043-3.061c1.785-2.711,3.539-5.399,5.232-8.139
				c0.779-1.269,1.554-2.525,2.325-3.764c1.794-3.018,3.56-6.075,5.294-9.185c0.421-0.775,0.889-1.557,1.302-2.332
				c2.059-3.769,4.023-7.615,5.911-11.506c0.59-1.192,1.154-2.386,1.725-3.584c18.667-39.44,29.162-83.501,29.162-129.975
				c0-102.136-50.447-192.491-127.823-247.935c-7.786,1.949-15.639,3.645-23.453,5.281
				C739.529,268.813,720.671,272.181,702.923,274.033z"/>
			<path fill="#27AAE1" d="M649.677,247.214c1.164-12.937,2.12-26.419,3.802-39.863c-4.167-0.703-8.313-1.351-12.486-1.886
				c4.969,13.782,7.773,28.702,8.479,43.931C649.55,248.677,649.598,247.933,649.677,247.214z"/>
			<path fill="#FFFFFF" d="M700.246,535.041c-8.028,0.584-16.213,0.271-24.58-1.096c-21.948-3.554-43.058-11.869-60.737-24.965
				c1.274,22.001,5.062,44.543,13.05,64.66c5.287,13.266,14.61,28.631,22.352,40.632c5.84,9.074,11.735,17.879,16.061,27.886
				c4.62,10.7,10.856,25.083,3.405,36.012c-5.957,8.687-18.581,9.39-28.074,8.811c-14.663-0.892-28.861-6.415-39.582-16.725
				c-11.566-11.104-17.665-24.566-21.124-40.077c-3.926-17.568-3.812-36.113-3.229-54.016c0.47-14.228,1.965-28.38,4.222-42.417
				c-4.825,3.618-10.142,6.573-15.877,8.674c-7.107,2.65-14.458,3.499-21.76,3.088c-4.51,11.893-8.245,24.59-10.381,36.266
				c-1.874,10.317-2.874,21.98-4.81,32.287c-2.378,12.708-8.341,41.256-27.485,33.982c-21.831-8.333-17.803-37.315-12.552-55.251
				c5.54-18.687,17.472-37.8,32.088-52.729c-0.988-0.39-1.984-0.737-2.962-1.192c-5.594-2.465-18.534-10.804-27.377-16.684
				c-3.361,4.179-6.399,8.748-8.93,13.556c-0.53,1.047-4.703,8.516-8.253,7.801c-3.746-0.769-6.757-9.98-7.758-13.139
				c-0.102-0.3-0.189-0.575-0.242-0.761c-0.319-0.99-0.615-1.993-0.931-3.036c-8.021,32.106-14.882,64.328-21.668,96.903
				c-5.892,28.254-9.676,57.638-13.691,86.211c-1.676,11.984-2.67,30.833-3.154,49.667c49.476,34.016,109.461,53.968,174.122,53.968
				c52.932,0,102.701-13.376,146.133-36.859c-26.233-52.063-43.157-109.986-47.074-168.211
				C697.796,583.865,698.159,559.396,700.246,535.041z"/>
			<path fill="#FFFFFF" d="M615.692,297.125c32.107,0.438,64.316,1.625,96.251,5.158c-0.008-0.003-0.011-0.01-0.013-0.045
				c-6.1-11.5-15.611-20.456-26.826-26.863c-47.399-27.086-111.031-17.584-144.737,24.849
				C565.393,297.667,590.458,296.815,615.692,297.125z"/>
			<path fill="#FFFFFF" d="M537.715,416.098c2.255-0.473,4.523-0.866,6.788-1.217c0.718-0.11,1.455-0.225,2.167-0.324
				c1.285-0.173,2.563-0.295,3.844-0.414c0.482-0.064,0.959-0.11,1.439-0.17c0,0.005,0,0.008,0.005,0.015
				c2.631-0.219,5.223-0.355,7.849-0.434c-0.505-3.037-0.989-6.079-1.433-9.114c-2.188-15.807-3.677-31.905-4.381-47.83
				c0-0.082-0.035-0.127-0.035-0.206c-3.56,0.206-7.112,0.584-10.641,1.113c-0.993,15.511-2.921,30.977-6.553,46.023
				c-1.073,4.46-2.347,9.04-3.778,13.583c0.645-0.15,1.325-0.317,2.007-0.48C535.887,416.441,536.814,416.288,537.715,416.098z"/>
			<path fill="#ED1C24" d="M709.374,199.603c6.458-12.545,12.464-25.839,14.958-39.821c1.611-8.762,3.672-24.921-5.897-30.336
				c-12.861-7.281-27.424,1.938-34.809,12.537c-8.139,11.639-14.198,25.354-17.385,39.127c-5.459,23.367-8.492,47.366-11.36,71.326
				c5.689,1.186,11.301,2.749,16.773,4.696C686.008,239.176,698.938,219.924,709.374,199.603z"/>
			<path fill="#ED1C24" d="M732.397,263.243c21.534-4.044,44.742-9.755,65.225-17.785c12.584-4.924,29.483-10.277,36.981-22.513
				c7.144-11.658,5.773-27.323-8.485-32.215c-14.312-4.905-29.261-0.924-43.126,3.636c-15.352,5.021-29.91,12.032-43.261,21.102
				c-19.659,13.313-38.864,29.974-56.771,46.315c4.738,2.247,9.315,4.849,13.647,7.713
				C708.518,268.145,721.137,265.375,732.397,263.243z"/>
			<path fill="#ED1C24" d="M643.268,250.562c-1.82-19.479-7.218-38.946-16.212-56.177c-5.675-10.801-12.563-21.136-21.606-29.436
				c-8.222-7.523-18.063-13.445-27.945-18.584c-12.111-6.305-25.156-10.851-38.831-12.07c-15.118-1.34-32.344-1.23-46.998,3.001
				c-15.455,4.458-30.939,12.741-41.007,25.765c-8.329,10.762-12.505,27.181-1.78,38.53c13.043,13.887,33.581,13.413,51.242,12.751
				c18.921-0.698,37.693-1.927,56.372,1.841c24.599,4.988,47.438,16.207,64.966,33.609
				C628.654,249.458,635.953,249.692,643.268,250.562z"/>
			<path fill="#ED1C24" d="M597.313,651.094c3.62,6.074,8.537,11.304,14.258,15.434c8.023,5.785,17.093,9.9,27.113,10.625
				c6.089,0.461,15.112,0.872,20.144-2.278c2.733-1.69,4.473-4.592,4.278-9.338c-0.541-13.04-6.371-26.105-13.364-36.822
				c-6.155-9.409-12.359-18.751-17.585-28.7c-15.682-29.895-22.461-62.546-23.462-96.018c-0.933-0.773-1.835-1.56-2.727-2.368
				c-2.622,5.453-5.616,10.722-8.729,15.661c-2.666,4.297-5.896,8.22-9.537,11.678c-2.147,21.785-3.751,51.835-3.255,68.135
				C584.945,613.399,588.755,636.754,597.313,651.094z"/>
			<path fill="#ED1C24" d="M493.91,625.208c1.097,6.238,6.003,17.671,14.539,15.113c6.785-2.059,9.652-11.611,11.374-17.605
				c2.03-7.281,3.377-14.756,4.182-22.28c2.018-18.462,7.698-37.585,14.82-55.494c-3.92-0.576-7.783-1.482-11.606-2.718
				c-14.125,14.118-25.703,33.05-30.734,50.948C493.824,602.631,492.156,615.361,493.91,625.208z"/>
			<path fill="#FECF08" d="M566.497,533.262c10.589-5.273,19.864-13.845,26.428-23.775c3.217-4.879,5.461-9.312,7.056-13.694
				c-1.944-2.01-3.839-4.081-5.659-6.293c-1.928-2.36-3.789-4.769-5.621-7.222c-2.246,3.535-5.507,6.977-10.226,9.559
				c-8.738,4.809-24.332,6.477-33.674,7.221c-14.462,1.122-29.302,2.325-41.467,11.132c-2.65,1.904-5.208,4.197-7.656,6.668
				c3.527,2.462,9.639,5.815,11.413,6.909c5.875,3.64,12.25,7.021,18.675,9.514C539.168,538.496,553.231,539.854,566.497,533.262z"
				/>
			<path fill="#FECF08" d="M482.45,453.759c-17.442,20.417-18.483,52.5-8.923,78.818c0.184,0.49,0.642,1.962,1.427,2.05
				c0.046,0,0.139-0.058,0.237-0.106c-0.541,1.178-1.188,2.285-1.858,3.366c0.002,0,0.035,0.007,0.042,0.007
				c0.635-1.088,1.278-2.198,1.817-3.375c0.148-0.083,0.268-0.194,0.397-0.362c0.587-0.609,2.066-3.315,2.355-3.851
				c10.074-19.494,27.96-34.232,51.109-37.514c8.254-1.182,24.016-0.774,36.945-3.688c7.68-1.703,15.204-4.326,19.812-11.021
				c-4.984-7.178-9.471-14.71-13.395-22.517c-5.121-10.264-8.449-21.264-10.816-32.456c-2.291-0.014-4.62,0.056-6.957,0.161
				c-0.001-0.012-0.001-0.02-0.002-0.055C527.694,424.454,499.527,433.783,482.45,453.759z"/>
			<path fill="#FFFFFF" d="M618.344,408.471c-6.706,5.969-13.381,11.983-19.853,18.042c-1.584,1.474-3.151,2.946-4.708,4.425
				c-0.282,0.238-0.903,0.874-0.859,1.208c0.086,0.396,0.902,0.543,1.285,0.565c2.731,0.18,5.464,0.364,8.166,0.521
				c15.759,1.067,31.486,2.302,47.201,3.633c-1.289,2.557-2.573,5.149-3.907,7.661c-5.503,10.673-10.613,21.379-15.836,32.083
				c-1.493,3.049-5.484,11.123-8.742,17.8c-1.091,2.239-4.216,8.353-3.836,8.598c0.781,0.437,6.315-3.6,8.618-5.113
				c7.511-5.014,17.79-12.048,24.903-17.252c4.906-3.611,9.608-7.094,13.071-9.826c5.88-4.611,42.108-31.397,65.368-49.185
				c1.741-1.306,3.377-2.584,4.935-3.817c0.364-0.239,1.178-0.979,1.159-1.367c-0.015-0.458-0.97-0.617-1.404-0.658
				c-2.07-0.275-4.173-0.544-6.242-0.783c-3.552-0.455-7.104-0.88-10.656-1.324c-9.878-1.183-19.738-2.341-29.642-3.338
				c0.335-0.876,0.705-1.748,1.079-2.583c5.611-12.763,11.348-25.492,17.175-38.175c5.899-12.892,15.167-34.457,22.995-51.682
				c0.612-1.365,2.007-4.951,1.947-5.254c-0.394-1.229-4.942,3.006-6.64,4.467c-9.942,8.546-21.291,17.816-27.248,22.792
				C682.96,351.286,631.337,396.949,618.344,408.471z"/>
			<path fill="#FFFFFF" d="M482.235,424.76c9.543-9.714,32.916-32.873,34.684-34.379c0.403-0.372,1.649-1.341,1.555-1.753
				c-0.087-0.376-1.244-0.27-1.578-0.23c-2.559,0.055-5.118,0.153-7.675,0.291c-5.773,0.228-11.534,0.514-17.238,0.735
				c-7.101,0.296-14.259,0.585-21.423,0.957c1.278-3.518,2.572-6.991,3.914-10.493c2.927-7.652,16.585-44.172,25.547-68.182
				c0.103-0.283,0.401-1.455,0.168-1.455c-0.161,0-0.288,0.041-0.444,0.125c-0.302,0.176-1.526,1.429-1.989,1.84
				c-0.995,0.961-2.029,1.904-3.041,2.872c-3.241,3.104-12.403,11.967-22.795,22.08c-12.985,12.638-65.132,64.679-79.338,80.263
				c-0.186,0.228-1.409,1.54-2.901,3.192c-0.151,0.146-0.447,0.521-0.388,0.727c0.101,0.376,1.721,0.146,2.305,0.061
				c1.833-0.259,3.579-0.479,4.536-0.598c16.782-2.325,33.859-3.64,50.892-4.577c-1.08,4.187-3.968,15.813-4.86,19.53
				c-2.446,10.097-4.913,20.127-7.5,29.478c-0.632,2.315-1.272,4.571-1.916,6.765c-0.098,0.365-0.211,1.004-0.004,1.091
				c0.247,0.108,0.877-0.395,1.225-0.736c0.99-1.04,2.006-2.056,3.038-3.113C451.549,454.502,469.395,437.832,482.235,424.76z"/>
		</g>
		<g id="letters_2_">
			<path fill="#ED1C24" d="M226.635,991.046c0,5.996,0,6.21-8.217,6.21h-12.221h-3.33c-3.999,0-3.776-0.433-3.999-5.548
				l-0.444-140.391c0.223-5.113-0.667-5.999,5.332-5.999c11.107,0,27.324,0.219,38.653,0.886
				c15.994,1.113,28.435,8.663,31.545,20.875c1.556,5.781,2.444,11.561,2.444,17.327c0,22.442-15.108,40.001-44.429,41.768
				c-4.888,0.229-4.888,0.229-4.888,3.998L226.635,991.046z M225.082,861.082c-3.11,0-3.331,0.445-3.331,2.897v1.331l0.668,37.104
				c0,2.434,0,3.098,1.998,3.098c18.883,0,27.324-13.544,27.324-23.322C251.74,865.31,243.299,861.082,225.082,861.082z"/>
			<path fill="#ED1C24" d="M332.824,998.21c-40.43,0-49.316-42.436-49.316-72.635c0-34.656,4.886-83.752,47.538-83.752
				c48.875,0,49.542,51.094,49.542,83.083C380.587,958.226,377.254,998.21,332.824,998.21z M352.82,932.67v-33.316
				c0-14.448-1.559-31.108-9.777-37.104c-2.445-1.771-6.443-2.213-12.439-2.213c-6.442,0-8.887,1.997-10.221,4.443
				c-6.884,11.998-9.552,36.652-9.552,52.863c0,13.995,2.668,44.883,8.665,54.21c1.999,2.886,5.555,3.117,11.55,3.117h4.668
				c4.444,0,7.33-0.669,9.109-3.117C348.155,967.338,352.82,954.229,352.82,932.67z"/>
			<path fill="#ED1C24" d="M408.133,848.867c8.22,0,8.662,0.221,8.662,5.779v1.104l-2.22,114.422v0.429v0.234
				c0,4.665,0,5.102,6.666,5.552l18.657,1.329c5.332,0.451,6.446,0,6.446,3.783v0.883l-0.221,9.999
				c-0.226,6.214-1.113,5.547-9.333,5.777c-13.55,0.218-27.548,0.665-40.876,0.665c-4.887,0-6.22-0.896-6.22-7.114l-0.223-135.728
				v-2.898c0-3.545,0.445-4.216,7.773-4.216H408.133z"/>
			<path fill="#ED1C24" d="M472.775,843.919c8.222,0,8.664,0.231,8.664,5.78v1.113l-2.224,114.406v0.436v0.233
				c0,4.667,0,5.101,6.664,5.55l18.662,1.327c5.333,0.453,6.446,0,6.446,3.785v0.881l-0.225,10c-0.219,6.229-1.108,5.56-9.329,5.778
				c-13.55,0.218-27.546,0.665-40.876,0.665c-4.889,0-6.224-0.884-6.224-7.113l-0.218-135.729v-2.884
				c0-3.563,0.443-4.229,7.774-4.229H472.775z"/>
			<path fill="#ED1C24" d="M516.979,930.4c0-31.997,0.668-83.082,49.543-83.082c42.646,0,47.535,49.085,47.535,83.751
				c0,30.203-8.886,72.638-49.314,72.638C520.316,1003.707,516.979,963.723,516.979,930.4z M552.744,977.048
				c1.777,2.451,4.671,3.117,9.112,3.117h4.667c5.998,0,9.548-0.23,11.552-3.117c6-9.323,8.66-40.214,8.66-54.208
				c0-16.209-2.661-40.869-9.55-52.862c-1.334-2.45-3.774-4.446-10.221-4.446c-6,0-9.997,0.446-12.443,2.215
				c-8.218,5.996-9.773,22.658-9.773,37.102v33.318C544.748,959.723,549.412,972.835,552.744,977.048z"/>
			<path fill="#ED1C24" d="M697.999,873.525c-4.22,0-6.885,0.45-6.885,4.669v0.446l0.446,19.763c0,3.777,0.438,3.777,5.553,3.777
				c8.442,0.234,12.44,0.452,20.878,0.452h1.56c2.882,0,3.769,0.214,3.769,3.546l0.665,12.897v1.333
				c0,2.662-0.665,2.662-5.767,2.662c-8.893,0.218-17.772,0.668-25.105,0.885c-4.664,0.219-5.113,0.219-5.113,1.998
				c0,23.543-0.218,45.101-0.218,68.642c0,4.894,0,4.894-6.667,5.112l-7.327,0.447h-3.777c-5.116,0-6-1.332-6-3.995v-3.564v-0.67
				c0.447-37.316,0.664-73.302,0.664-110.854v-28.203c0-4.222,0.666-4.667,8.662-4.667h50.431h2.884c2.666,0,3.33,0.445,3.564,3.336
				l0.883,18.656v1.333c0,2.217-0.883,2.449-3.329,2.449c-9.777,0-10.667-0.45-21.331-0.45H697.999z"/>
			<path fill="#ED1C24" d="M809.517,854.646c4.212,0,5.33,0,5.33,1.77c0,0.451-0.221,1.112-0.221,2.002l-0.662,13.775
				c-0.667,4.221-0.235,4.221-6.665,4.221h-34.217c-3.776,0-4.441,0.66-4.441,2.444v2.446l-0.227,23.326v1.784
				c0,1.996,0.227,2.215,4.668,2.215h29.549h2.671c3.546,0,4.215,0.217,4.215,3.995v10.664c0,5.551,0,5.78-7.337,6.001
				c-3.992,0.217-7.994,0.217-12.877,0.217h-17.557h-2.667c-4.216,0-4.883,0.229-4.883,4.444l-0.23,31.772
				c0,5.777,0,5.548,7.342,5.777l40.873,1.773c5.783,0.229,5.997,0.229,5.997,4.893v15.097c0,4.664,0,4.895-6.216,4.895h-65.091
				c-5.996,0-5.114-0.447-5.328-4.67l-0.668-135.07c0-4.004,0.437-4.436,3.548-4.436h4.217L809.517,854.646z"/>
			<path fill="#ED1C24" d="M899.042,991.925c0,4.005-0.229,4.005-5.558,4.005l-60.646-0.219c-4.883,0-5.331-0.217-5.331-5.329V856.2
				v-1.554c0-3.109,0.222-3.328,5.55-3.563l54.655-1.331h1.335c4.002,0,3.77,0.666,4.002,3.999c0.435,4.451,0.665,7.559,0.665,13.56
				c0,2.667-0.23,2.667-3.333,2.667h-0.896h-33.763c-4.44,0-4.44,0.432-4.44,3.547v31.987v1.119c0,1.544,0.439,1.779,3.773,1.779
				l33.541,0.219c3.553,0,4.221,0,4.221,1.549v1.785l-1.104,14.211c-0.448,2.895-0.448,2.895-4.229,3.115l-28.653,0.883
				c-3.108,0-3.338,0.228-3.338,1.999v0.895l0.229,36.209c0,3.327,0,3.561,4.438,3.561l34.883,0.219c3.77,0,3.998,0.448,3.998,2.445
				v1.549V991.925z"/>
			<path fill="#ED1C24" d="M908.144,853.982c0-2.898,0.231-3.333,5.11-3.999c7.999-1.337,16.441-1.998,24.442-1.998
				c13.776,0,24.874,2.216,32.868,6.661c21.333,12.215,21.561,38.425,21.561,63.759v14.661c0,29.325-7.998,65.979-54.213,65.979
				c-5.33,0-14.663-0.223-20.432-0.223c-7.777-0.229-9.337-1.78-9.337-5.56V856.416V853.982z M967.016,919.076
				c0-27.107-3.996-54.432-16.207-54.432c-4.007,0-11.78,0.434-14.895,1.334c-3.332,0.883-3.772,1.333-3.772,4.666v0.435v7.331
				c0,20.438-0.446,46.433-0.446,66.65c0,13.33,0.219,23.992,0.887,28.658c3.778-0.216,16.894-0.664,22.889-1.116
				c5.103-0.436,5.103-0.885,6.433-4.213C964.568,960.609,967.016,939.946,967.016,919.076z"/>
		</g>
	</g>
</g>
</svg>
