<?xml version="1.0" encoding="utf-8"?>
<!-- Generator: Adobe Illustrator 16.0.3, SVG Export Plug-In . SVG Version: 6.00 Build 0)  -->
<!DOCTYPE svg PUBLIC "-//W3C//DTD SVG 1.1//EN" "http://www.w3.org/Graphics/SVG/1.1/DTD/svg11.dtd">
<svg version="1.1" xmlns="http://www.w3.org/2000/svg" x="0px" y="0px"
     width="1190.551px" height="433.885px" viewBox="0 0 1190.551 433.885" enable-background="new 0 0 1190.551 433.885"
     xml:space="preserve">
<g id="back">
	<rect fill="#0D1428" width="1190.551" height="433.885"/>
</g>
<g id="logo">
	<g id="character">
		<g>
			<path fill="none" d="M568.284,332.118c0-0.004,0.001-0.007,0.001-0.011c-0.873-0.685-1.764-1.352-2.625-2.051
				C566.522,330.757,567.404,331.43,568.284,332.118z"/>
			<path fill="#27AAE1" d="M694.444,113.015c-1.197-0.478-2.389-0.97-3.611-1.406c-3.354,5.254-7.164,10.31-11.161,15.154
				C684.528,122.118,689.347,117.368,694.444,113.015z"/>
			<path fill="#27AAE1" d="M531.084,286.021c0.361,0.745,0.734,1.482,1.104,2.222c0.465,0.931,0.936,1.844,1.417,2.766
				c0.403,0.748,0.811,1.495,1.225,2.238c0.516,0.932,1.05,1.844,1.588,2.767c0.402,0.668,0.792,1.354,1.203,2.018
				c0.897,1.446,1.82,2.881,2.768,4.302c0.414,0.615,0.848,1.207,1.275,1.818c0.633,0.904,1.269,1.804,1.924,2.696
				c0.49,0.658,0.985,1.313,1.482,1.966c0.649,0.835,1.308,1.677,1.971,2.5c0.5,0.613,0.992,1.229,1.493,1.821
				c0.899,1.067,1.818,2.122,2.746,3.155c0.548,0.611,1.102,1.218,1.658,1.809c0.921,0.986,1.85,1.969,2.807,2.937
				c0.525,0.535,1.072,1.063,1.611,1.577c0.799,0.778,1.611,1.55,2.43,2.313c0.557,0.509,1.115,1.029,1.685,1.531
				c0.927,0.826,1.873,1.639,2.829,2.444c0.455,0.381,0.902,0.767,1.36,1.155c0.861,0.699,1.752,1.366,2.625,2.051
				c0.893-14.312,3.631-28.666,6.333-42.581c3.589-18.517,7.856-36.902,12.63-55.147c0.384-1.452,0.786-2.912,1.186-4.36
				c-0.297-3.34-0.177-6.66,0.412-9.839c-8.554,0.675-17.47-1.467-24.354-6.312c-5.992-4.223-9.956-9.974-12.879-16.697
				c-2.215-5.093-3.805-10.983-4.826-16.453c-1.597-8.601-1.764-14.209-1.803-18.58c-0.002-0.282,0-1.266,0.391-1.869
				c0.366-0.55,1.355-0.905,1.745-1.029c12.096-3.816,24.365-6.924,36.887-9.108c10.085-1.767,20.247-3.268,30.406-4.641
				c0.625-0.085,1.251-0.158,1.89-0.239c1.729-2.616,3.689-5.079,5.924-7.311c7.751-7.745,18.435-12.576,29.23-14.01
				c0.221-0.021,0.458-0.044,0.694-0.074c-4.463-3.554-9.632-6.441-14.546-8.424c-5.878-2.382-12.242-3.287-18.559-3.495
				c-6.146-0.202-12.532,0.701-18.786,0.707c-47.693,18.57-81.49,64.728-81.49,118.781c0,16.986,3.364,33.187,9.419,48.017
				c0.373,0.913,0.755,1.823,1.149,2.729C529.906,283.47,530.482,284.751,531.084,286.021z"/>
			<path fill="#27AAE1" d="M689.697,133.686c0.198,0.156,0.403,0.293,0.601,0.45c4.219,3.414,6.906,7.504,8.623,12.009
				c3.264,0.426,6.504,0.919,9.724,1.481c5.819,0.993,21.594,4.563,31.936,8.438c0.939,0.343,4.143,1.245,5.021,2.806
				c0.468,0.806,0.566,2.077,0.525,3.357c-0.054,1.837-0.942,7.094-1.181,8.322c-0.27,1.445-0.542,2.685-0.717,3.669
				c-1.334,7.2-3.189,14.3-5.398,21.225c-4.307,13.507-10.725,25.483-21.653,34.789c-7.063,6.026-15.071,10.221-23.754,11.847
				c-0.919,10.383-1.118,20.688-0.369,31.136c1.216,16.747,5.811,31.922,11.556,47.693c2.391,6.571,5.327,13.21,8.698,19.577
				c0.032-0.012,0.053-0.036,0.086-0.049c1.558-0.942,3.081-1.927,4.596-2.939c0.458-0.301,0.911-0.621,1.381-0.939
				c1.11-0.753,2.198-1.532,3.292-2.321c0.451-0.332,0.903-0.672,1.352-1.005c1.441-1.079,2.871-2.186,4.266-3.332
				c0.17-0.135,0.336-0.29,0.505-0.439c1.25-1.026,2.457-2.069,3.667-3.139c0.431-0.399,0.871-0.804,1.299-1.208
				c0.98-0.901,1.953-1.814,2.902-2.75c0.393-0.375,0.776-0.745,1.153-1.122c1.264-1.268,2.499-2.549,3.714-3.878
				c0.27-0.3,0.544-0.62,0.824-0.921c0.95-1.063,1.89-2.134,2.801-3.23c0.399-0.462,0.782-0.941,1.178-1.409
				c0.862-1.061,1.699-2.131,2.54-3.223c0.292-0.381,0.59-0.758,0.88-1.153c1.066-1.431,2.113-2.877,3.112-4.352
				c0.288-0.418,0.568-0.857,0.854-1.278c0.744-1.131,1.478-2.255,2.185-3.401c0.325-0.525,0.649-1.052,0.97-1.569
				c0.752-1.262,1.489-2.538,2.213-3.836c0.175-0.325,0.371-0.648,0.543-0.976c0.861-1.573,1.683-3.179,2.471-4.806
				c0.244-0.496,0.481-0.996,0.721-1.495c7.796-16.478,12.178-34.878,12.178-54.289c0-42.659-21.069-80.398-53.388-103.557
				c-3.252,0.813-6.531,1.521-9.793,2.206C704.988,131.506,697.11,132.914,689.697,133.686z"/>
			<path fill="#27AAE1" d="M667.457,122.486c0.488-5.404,0.888-11.035,1.588-16.649c-1.738-0.295-3.471-0.566-5.212-0.789
				c2.073,5.758,3.245,11.988,3.54,18.35C667.405,123.097,667.425,122.786,667.457,122.486z"/>
			<path fill="#FFFFFF" d="M688.578,242.706c-3.35,0.243-6.77,0.113-10.266-0.458c-9.165-1.484-17.982-4.957-25.369-10.427
				c0.534,9.188,2.114,18.604,5.45,27.005c2.211,5.543,6.104,11.959,9.338,16.971c2.439,3.791,4.901,7.467,6.707,11.646
				c1.931,4.473,4.536,10.479,1.424,15.044c-2.488,3.629-7.761,3.923-11.728,3.68c-6.123-0.372-12.055-2.679-16.531-6.985
				c-4.831-4.637-7.379-10.262-8.823-16.74c-1.641-7.337-1.594-15.085-1.35-22.56c0.197-5.944,0.821-11.854,1.763-17.718
				c-2.014,1.513-4.235,2.748-6.629,3.624c-2.97,1.105-6.04,1.461-9.09,1.288c-1.884,4.969-3.444,10.272-4.336,15.149
				c-0.783,4.307-1.2,9.181-2.011,13.485c-0.992,5.307-3.482,17.23-11.478,14.191c-9.119-3.479-7.437-15.584-5.243-23.074
				c2.313-7.808,7.298-15.79,13.402-22.024c-0.413-0.165-0.829-0.309-1.238-0.497c-2.335-1.031-7.74-4.514-11.434-6.97
				c-1.403,1.746-2.673,3.653-3.73,5.66c-0.221,0.439-1.964,3.559-3.446,3.259c-1.564-0.321-2.823-4.168-3.242-5.488
				c-0.04-0.125-0.078-0.239-0.1-0.315c-0.134-0.415-0.257-0.834-0.389-1.268c-3.35,13.408-6.215,26.869-9.051,40.474
				c-2.46,11.799-4.042,24.071-5.718,36.006c-0.701,5.007-1.116,12.88-1.317,20.746c20.665,14.207,45.72,22.541,72.727,22.541
				c22.106,0,42.896-5.587,61.037-15.396c-10.958-21.745-18.027-45.938-19.663-70.257
				C687.558,263.097,687.708,252.878,688.578,242.706z"/>
			<path fill="#FFFFFF" d="M653.263,143.333c13.411,0.183,26.864,0.679,40.202,2.154c-0.001-0.002-0.002-0.004-0.003-0.019
				c-2.549-4.804-6.521-8.544-11.206-11.22c-19.798-11.313-46.375-7.346-60.454,10.377
				C632.255,143.559,642.724,143.203,653.263,143.333z"/>
			<path fill="#FFFFFF" d="M620.693,193.026c0.944-0.197,1.891-0.364,2.838-0.512c0.297-0.045,0.606-0.093,0.903-0.133
				c0.536-0.074,1.07-0.124,1.606-0.174c0.2-0.027,0.4-0.046,0.601-0.07c0.001,0.002,0.001,0.004,0.002,0.006
				c1.099-0.092,2.183-0.148,3.277-0.18c-0.211-1.27-0.412-2.54-0.598-3.809c-0.914-6.602-1.535-13.324-1.829-19.979
				c-0.001-0.033-0.016-0.052-0.016-0.085c-1.486,0.085-2.971,0.244-4.445,0.465c-0.413,6.479-1.219,12.938-2.734,19.224
				c-0.45,1.863-0.982,3.775-1.58,5.672c0.27-0.061,0.554-0.131,0.839-0.199C619.932,193.167,620.318,193.105,620.693,193.026z"/>
			<path fill="#ED1C24" d="M692.392,102.599c2.699-5.24,5.206-10.793,6.249-16.632c0.672-3.66,1.534-10.409-2.463-12.671
				c-5.372-3.041-11.455,0.81-14.541,5.237c-3.397,4.861-5.929,10.59-7.259,16.342c-2.281,9.76-3.549,19.782-4.747,29.791
				c2.378,0.495,4.721,1.148,7.008,1.961C682.634,119.128,688.033,111.086,692.392,102.599z"/>
			<path fill="#ED1C24" d="M702.009,129.18c8.995-1.688,18.688-4.074,27.243-7.429c5.257-2.058,12.314-4.293,15.445-9.403
				c2.984-4.868,2.411-11.412-3.543-13.454c-5.978-2.05-12.222-0.387-18.013,1.518c-6.413,2.097-12.492,5.025-18.069,8.814
				c-8.212,5.561-16.234,12.519-23.713,19.343c1.98,0.94,3.892,2.027,5.7,3.223C692.035,131.228,697.308,130.072,702.009,129.18z"/>
			<path fill="#ED1C24" d="M664.781,123.883c-0.761-8.136-3.014-16.267-6.771-23.463c-2.37-4.512-5.247-8.828-9.024-12.294
				c-3.436-3.143-7.546-5.617-11.673-7.763c-5.059-2.634-10.507-4.532-16.219-5.041c-6.314-0.56-13.509-0.514-19.629,1.253
				c-6.457,1.862-12.924,5.322-17.129,10.762c-3.479,4.496-5.223,11.353-0.744,16.093c5.448,5.799,14.026,5.602,21.403,5.326
				c7.902-0.291,15.743-0.804,23.546,0.77c10.272,2.082,19.813,6.769,27.134,14.038C658.676,123.423,661.726,123.52,664.781,123.883
				z"/>
			<path fill="#ED1C24" d="M645.586,291.176c1.514,2.538,3.565,4.723,5.957,6.447c3.353,2.417,7.14,4.136,11.325,4.438
				c2.543,0.193,6.312,0.364,8.413-0.95c1.142-0.706,1.868-1.918,1.787-3.903c-0.227-5.446-2.662-10.901-5.582-15.378
				c-2.572-3.931-5.163-7.832-7.344-11.986c-6.55-12.488-9.381-26.126-9.801-40.106c-0.391-0.325-0.768-0.651-1.139-0.986
				c-1.097,2.274-2.348,4.478-3.646,6.539c-1.114,1.795-2.463,3.432-3.983,4.879c-0.896,9.098-1.566,21.648-1.359,28.456
				C640.421,275.434,642.013,285.189,645.586,291.176z"/>
			<path fill="#ED1C24" d="M602.398,280.366c0.458,2.605,2.508,7.381,6.072,6.311c2.834-0.856,4.033-4.849,4.752-7.354
				c0.846-3.038,1.409-6.16,1.745-9.305c0.843-7.711,3.216-15.696,6.19-23.178c-1.637-0.24-3.251-0.618-4.848-1.135
				c-5.9,5.896-10.735,13.804-12.838,21.28C602.362,270.934,601.665,276.251,602.398,280.366z"/>
			<path fill="#FECF08" d="M632.717,241.961c4.422-2.202,8.297-5.782,11.037-9.931c1.344-2.036,2.281-3.888,2.949-5.72
				c-0.814-0.839-1.604-1.705-2.365-2.628c-0.805-0.986-1.582-1.991-2.347-3.018c-0.939,1.477-2.3,2.916-4.271,3.994
				c-3.651,2.008-10.163,2.705-14.065,3.017c-6.041,0.469-12.238,0.97-17.32,4.649c-1.107,0.794-2.175,1.752-3.197,2.785
				c1.473,1.027,4.026,2.427,4.766,2.884c2.454,1.521,5.118,2.934,7.8,3.975C621.302,244.148,627.174,244.716,632.717,241.961z"/>
			<path fill="#FECF08" d="M597.611,208.752c-7.285,8.532-7.721,21.931-3.727,32.925c0.077,0.205,0.268,0.818,0.596,0.854
				c0.019,0,0.058-0.024,0.099-0.042c-0.225,0.491-0.496,0.952-0.775,1.404c0.001,0,0.015,0.001,0.018,0.001
				c0.266-0.453,0.534-0.916,0.759-1.407c0.062-0.036,0.112-0.083,0.166-0.153c0.245-0.257,0.863-1.383,0.984-1.607
				c4.207-8.143,11.678-14.298,21.348-15.668c3.446-0.493,10.028-0.323,15.429-1.54c3.208-0.712,6.352-1.808,8.275-4.604
				c-2.08-2.999-3.954-6.145-5.595-9.406c-2.139-4.284-3.528-8.88-4.518-13.558c-0.956-0.004-1.929,0.024-2.904,0.067
				c-0.001-0.003-0.001-0.005-0.002-0.021C616.509,196.514,604.744,200.412,597.611,208.752z"/>
			<path fill="#FFFFFF" d="M654.37,189.838c-2.8,2.492-5.587,5.005-8.292,7.535c-0.659,0.616-1.314,1.232-1.966,1.85
				c-0.116,0.1-0.377,0.364-0.358,0.505c0.037,0.163,0.377,0.227,0.537,0.233c1.141,0.077,2.282,0.154,3.41,0.22
				c6.583,0.447,13.151,0.961,19.715,1.518c-0.538,1.069-1.074,2.151-1.631,3.199c-2.299,4.459-4.434,8.931-6.617,13.4
				c-0.621,1.274-2.287,4.646-3.648,7.436c-0.455,0.936-1.762,3.487-1.604,3.589c0.329,0.184,2.638-1.502,3.603-2.133
				c3.136-2.096,7.43-5.032,10.398-7.208c2.053-1.508,4.014-2.961,5.461-4.103c2.455-1.927,17.589-13.114,27.304-20.544
				c0.728-0.546,1.41-1.079,2.06-1.594c0.153-0.101,0.492-0.409,0.486-0.573c-0.008-0.188-0.406-0.257-0.589-0.273
				c-0.863-0.115-1.741-0.228-2.605-0.326c-1.484-0.193-2.969-0.368-4.451-0.555c-4.126-0.495-8.245-0.977-12.381-1.394
				c0.141-0.366,0.294-0.731,0.452-1.077c2.342-5.334,4.739-10.649,7.172-15.946c2.465-5.385,6.335-14.392,9.605-21.587
				c0.255-0.569,0.836-2.068,0.812-2.194c-0.162-0.514-2.063,1.256-2.771,1.866c-4.153,3.569-8.894,7.441-11.379,9.52
				C681.358,165.954,659.797,185.026,654.37,189.838z"/>
			<path fill="#FFFFFF" d="M597.521,196.644c3.986-4.06,13.749-13.732,14.486-14.36c0.17-0.155,0.689-0.561,0.65-0.732
				c-0.037-0.157-0.521-0.114-0.659-0.097c-1.069,0.024-2.138,0.064-3.206,0.122c-2.411,0.095-4.817,0.213-7.199,0.306
				c-2.966,0.125-5.956,0.246-8.948,0.401c0.533-1.469,1.074-2.92,1.635-4.384c1.223-3.194,6.927-18.45,10.67-28.478
				c0.043-0.118,0.168-0.607,0.07-0.607c-0.066,0-0.12,0.017-0.186,0.052c-0.126,0.074-0.638,0.597-0.83,0.769
				c-0.415,0.402-0.849,0.795-1.271,1.2c-1.353,1.296-5.18,4.998-9.521,9.221c-5.424,5.279-27.204,27.017-33.138,33.524
				c-0.078,0.097-0.588,0.645-1.211,1.334c-0.063,0.061-0.187,0.217-0.163,0.305c0.042,0.157,0.719,0.059,0.963,0.024
				c0.765-0.108,1.495-0.2,1.895-0.251c7.009-0.969,14.143-1.521,21.257-1.91c-0.451,1.748-1.657,6.603-2.03,8.157
				c-1.022,4.216-2.052,8.405-3.133,12.311c-0.264,0.969-0.531,1.911-0.8,2.827c-0.042,0.152-0.089,0.418-0.002,0.455
				c0.104,0.045,0.367-0.165,0.512-0.307c0.414-0.435,0.838-0.859,1.269-1.301C584.706,209.066,592.158,202.103,597.521,196.644z"/>
		</g>
	</g>
	<g id="letters_1_">
		<path fill="#ED1C24" d="M113.359,296.391c0,5.907,0,6.12-8.095,6.12H93.23h-3.282c-3.938,0-3.718-0.428-3.938-5.464
			l-0.438-138.271c0.22-5.037-0.656-5.907,5.252-5.907c10.938,0,26.911,0.214,38.068,0.87c15.751,1.098,28.004,8.532,31.067,20.562
			c1.533,5.691,2.408,11.384,2.408,17.063c0,22.102-14.878,39.396-43.757,41.135c-4.814,0.228-4.814,0.228-4.814,3.938
			L113.359,296.391z M111.828,168.393c-3.063,0-3.281,0.441-3.281,2.853v1.313l0.657,36.541c0,2.397,0,3.053,1.968,3.053
			c18.598,0,26.911-13.341,26.911-22.97C138.083,172.558,129.769,168.393,111.828,168.393z"/>
		<path fill="#ED1C24" d="M217.942,303.448c-39.822,0-48.572-41.791-48.572-71.539c0-34.129,4.812-82.484,46.82-82.484
			c48.133,0,48.79,50.323,48.79,81.827C264.98,264.068,261.699,303.448,217.942,303.448z M237.633,238.9v-32.817
			c0-14.225-1.534-30.633-9.628-36.54c-2.407-1.741-6.345-2.183-12.251-2.183c-6.343,0-8.752,1.969-10.064,4.38
			c-6.783,11.813-9.41,36.098-9.41,52.064c0,13.782,2.627,44.202,8.532,53.39c1.97,2.842,5.473,3.068,11.379,3.068h4.594
			c4.377,0,7.22-0.657,8.972-3.068C233.038,273.042,237.633,260.129,237.633,238.9z"/>
		<path fill="#ED1C24" d="M292.11,156.364c8.095,0,8.533,0.216,8.533,5.693v1.085l-2.187,112.688v0.428v0.229
			c0,4.594,0,5.023,6.564,5.465l18.377,1.313c5.25,0.442,6.345,0,6.345,3.724v0.871l-0.218,9.845
			c-0.221,6.121-1.096,5.465-9.189,5.692c-13.348,0.216-27.132,0.656-40.258,0.656c-4.815,0-6.126-0.884-6.126-7.005L273.73,163.37
			v-2.854c0-3.495,0.439-4.152,7.659-4.152H292.11z"/>
		<path fill="#ED1C24" d="M355.777,151.49c8.095,0,8.532,0.228,8.532,5.692v1.099l-2.19,112.675v0.429v0.229
			c0,4.594,0,5.022,6.563,5.464l18.379,1.313c5.253,0.442,6.347,0,6.347,3.724v0.871l-0.221,9.844
			c-0.217,6.136-1.091,5.479-9.188,5.693c-13.348,0.214-27.131,0.656-40.258,0.656c-4.814,0-6.128-0.87-6.128-7.006l-0.214-133.677
			v-2.841c0-3.509,0.436-4.165,7.655-4.165H355.777z"/>
		<path fill="#ED1C24" d="M399.313,236.665c0-31.518,0.657-81.828,48.79-81.828c42.006,0,46.821,48.342,46.821,82.485
			c0,29.748-8.753,71.538-48.57,71.538C402.597,308.86,399.313,269.481,399.313,236.665z M434.535,282.607
			c1.754,2.412,4.598,3.068,8.974,3.068h4.594c5.908,0,9.41-0.228,11.379-3.068c5.907-9.187,8.532-39.606,8.532-53.39
			c0-15.967-2.625-40.251-9.41-52.064c-1.313-2.411-3.717-4.38-10.066-4.38c-5.908,0-9.845,0.441-12.25,2.182
			c-8.096,5.908-9.629,22.317-9.629,36.542v32.816C426.66,265.543,431.254,278.456,434.535,282.607z"/>
		<path fill="#ED1C24" d="M830.787,180.649c-4.153,0-6.779,0.441-6.779,4.595v0.44l0.441,19.463c0,3.723,0.43,3.723,5.466,3.723
			c8.318,0.229,12.256,0.444,20.562,0.444h1.54c2.839,0,3.71,0.213,3.71,3.494l0.656,12.699v1.313c0,2.625-0.656,2.625-5.679,2.625
			c-8.76,0.213-17.507,0.656-24.728,0.869c-4.594,0.215-5.035,0.215-5.035,1.97c0,23.186-0.215,44.417-0.215,67.603
			c0,4.821,0,4.821-6.563,5.035l-7.219,0.443h-3.725c-5.036,0-5.907-1.313-5.907-3.938v-3.51v-0.656
			c0.442-36.755,0.656-72.196,0.656-109.18v-27.78c0-4.152,0.657-4.593,8.532-4.593h49.667h2.84c2.626,0,3.282,0.44,3.511,3.282
			l0.87,18.377v1.312c0,2.184-0.87,2.411-3.281,2.411c-9.631,0-10.502-0.441-21.004-0.441H830.787z"/>
		<path fill="#ED1C24" d="M940.62,162.057c4.151,0,5.25,0,5.25,1.741c0,0.442-0.216,1.097-0.216,1.97L945,179.335
			c-0.656,4.153-0.229,4.153-6.564,4.153h-33.7c-3.716,0-4.372,0.655-4.372,2.411v2.41l-0.224,22.972v1.755
			c0,1.969,0.224,2.183,4.596,2.183h29.106h2.625c3.496,0,4.153,0.216,4.153,3.938v10.501c0,5.466,0,5.693-7.222,5.908
			c-3.937,0.214-7.875,0.214-12.684,0.214h-17.292h-2.626c-4.151,0-4.809,0.228-4.809,4.379l-0.227,31.291
			c0,5.692,0,5.465,7.227,5.692l40.256,1.742c5.694,0.228,5.908,0.228,5.908,4.821v14.868c0,4.594,0,4.821-6.123,4.821h-64.105
			c-5.906,0-5.036-0.44-5.25-4.595l-0.656-133.033c0-3.939,0.428-4.367,3.495-4.367h4.151L940.62,162.057z"/>
		<path fill="#ED1C24" d="M1028.796,297.261c0,3.939-0.228,3.939-5.478,3.939l-59.728-0.215c-4.808,0-5.25-0.215-5.25-5.252V163.584
			v-1.527c0-3.066,0.22-3.281,5.464-3.51l53.834-1.313h1.313c3.939,0,3.711,0.656,3.939,3.939c0.428,4.379,0.655,7.446,0.655,13.354
			c0,2.625-0.228,2.625-3.282,2.625h-0.883h-33.253c-4.372,0-4.372,0.428-4.372,3.496v31.503v1.099c0,1.527,0.435,1.755,3.716,1.755
			l33.037,0.214c3.497,0,4.153,0,4.153,1.527v1.755l-1.085,13.997c-0.442,2.854-0.442,2.854-4.167,3.068l-28.222,0.87
			c-3.061,0-3.282,0.228-3.282,1.968v0.885l0.222,35.657c0,3.281,0,3.509,4.374,3.509l34.354,0.213c3.713,0,3.94,0.444,3.94,2.412
			v1.526V297.261z"/>
		<path fill="#ED1C24" d="M1037.756,161.401c0-2.854,0.228-3.282,5.035-3.938c7.877-1.313,16.195-1.97,24.072-1.97
			c13.568,0,24.498,2.185,32.373,6.564c21.01,12.028,21.231,37.84,21.231,62.794v14.438c0,28.88-7.876,64.979-53.391,64.979
			c-5.251,0-14.439-0.216-20.124-0.216c-7.656-0.228-9.197-1.754-9.197-5.478V163.798V161.401z M1095.741,225.507
			c0-26.696-3.938-53.605-15.966-53.605c-3.943,0-11.601,0.429-14.668,1.313c-3.281,0.871-3.715,1.313-3.715,4.595v0.428v7.221
			c0,20.132-0.437,45.729-0.437,65.646c0,13.127,0.214,23.628,0.87,28.222c3.724-0.213,16.637-0.657,22.543-1.098
			c5.023-0.429,5.023-0.87,6.336-4.153C1093.334,266.414,1095.741,246.068,1095.741,225.507z"/>
	</g>
</g>
</svg>
