<?xml version="1.0" standalone="yes"?>
<svg xmlns="http://www.w3.org/2000/svg" width="280" height="280">
<path style="fill:#ffffff; stroke:none;" d="M0 0L0 280L280 280L280 0L0 0z"/>
<path style="fill:#f7931b; stroke:none;" d="M124 7.42517C104.056 10.14 84.9693 16.307 68 27.3449C-7.86842 76.6945 -14.9467 192.343 59 247.37C72.6131 257.501 87.6496 265.128 104 269.706C120.347 274.282 139.104 275.735 156 273.715C175.494 271.383 194.252 265.278 211 254.935C292.937 204.336 294.756 82.1487 215 28.6705C202.291 20.1492 187.917 13.718 173 10.2354C157.512 6.61929 139.825 5.27112 124 7.42517z"/>
<path style="fill:#fbbf77; stroke:none;" d="M156 51L156 52L161 52L156 51z"/>
<path style="fill:#f9ac4e; stroke:none;" d="M161 51L162 52L161 51z"/>
<path style="fill:#fdd9af; stroke:none;" d="M155 52L153 55L155 52z"/>
<path style="fill:#ffffff; stroke:none;" d="M75 147L142 147C141.84 164.944 126.164 188.012 118.248 204C114.763 211.037 107.843 221.072 110 229C119.222 222.212 126.511 211.509 134.169 203C150.648 184.69 167.438 166.612 183.576 148C189.154 141.567 195.238 135.532 200.695 129C202.096 127.323 205.202 124.038 203.828 121.603C201.96 118.295 191.241 120 188 120L152 120C148.224 120 141.594 121.238 138.333 118.972C133.892 115.886 140.327 105.684 141.8 102C148.412 85.4707 155.295 68.8635 161 52C151.568 52.711 144.153 64.3469 138.285 71C123.127 88.1876 107.757 105.397 91.9614 122C85.1909 129.116 75.1229 136.596 75 147z"/>
<path style="fill:#fdd9af; stroke:none;" d="M160 53L161 54L160 53z"/>
<path style="fill:#f9ac4e; stroke:none;" d="M160 54L161 55L160 54z"/>
<path style="fill:#fbbf77; stroke:none;" d="M152 55L153 56L152 55M151 56L152 57L151 56M159 56L160 57L159 56M150 57L151 58L150 57z"/>
<path style="fill:#f9ac4e; stroke:none;" d="M159 57L160 58L159 57M149 58L150 59L149 58z"/>
<path style="fill:#fdd9af; stroke:none;" d="M158 58L159 59L158 58z"/>
<path style="fill:#f9ac4e; stroke:none;" d="M148 59L149 60L148 59M158 59L159 60L158 59M147 60L148 61L147 60z"/>
<path style="fill:#fdd9af; stroke:none;" d="M147 61L148 62L147 61M157 61L158 62L157 61M146 62L147 63L146 62z"/>
<path style="fill:#f9ac4e; stroke:none;" d="M157 62L158 63L157 62z"/>
<path style="fill:#fdd9af; stroke:none;" d="M145 63L146 64L145 63M156 63L157 64L156 63M144 64L145 65L144 64z"/>
<path style="fill:#fbbf77; stroke:none;" d="M156 64L157 65L156 64z"/>
<path style="fill:#fdd9af; stroke:none;" d="M143 65L144 66L143 65z"/>
<path style="fill:#fbbf77; stroke:none;" d="M142 66L143 67L142 66z"/>
<path style="fill:#fdd9af; stroke:none;" d="M155 66L156 67L155 66z"/>
<path style="fill:#fbbf77; stroke:none;" d="M141 67L142 68L141 67z"/>
<path style="fill:#f9ac4e; stroke:none;" d="M155 67L156 68L155 67z"/>
<path style="fill:#fbbf77; stroke:none;" d="M140 68L141 69L140 68z"/>
<path style="fill:#f9ac4e; stroke:none;" d="M139 69L140 70L139 69z"/>
<path style="fill:#fdd9af; stroke:none;" d="M154 69L155 70L154 69z"/>
<path style="fill:#f9ac4e; stroke:none;" d="M138 70L139 71L138 70M154 70L155 71L154 70M137 71L138 72L137 71z"/>
<path style="fill:#fdd9af; stroke:none;" d="M153 71L154 72L153 71z"/>
<path style="fill:#fbbf77; stroke:none;" d="M153 72L154 73L153 72z"/>
<path style="fill:#fdd9af; stroke:none;" d="M136 73L137 74L136 73M135 74L136 75L135 74M152 74L153 75L152 74M134 75L135 76L134 75z"/>
<path style="fill:#f9ac4e; stroke:none;" d="M152 75L153 76L152 75z"/>
<path style="fill:#fdd9af; stroke:none;" d="M133 76L134 77L133 76M132 77L133 78L132 77z"/>
<path style="fill:#fbbf77; stroke:none;" d="M151 77L152 78L151 77M131 78L132 79L131 78z"/>
<path style="fill:#f9ac4e; stroke:none;" d="M151 78L152 79L151 78z"/>
<path style="fill:#fbbf77; stroke:none;" d="M130 79L131 80L130 79z"/>
<path style="fill:#fdd9af; stroke:none;" d="M150 79L151 80L150 79z"/>
<path style="fill:#f9ac4e; stroke:none;" d="M129 80L130 81L129 80z"/>
<path style="fill:#fbbf77; stroke:none;" d="M150 80L151 81L150 80z"/>
<path style="fill:#f9ac4e; stroke:none;" d="M128 81L129 82L128 81M127 82L128 83L127 82z"/>
<path style="fill:#fdd9af; stroke:none;" d="M149 82L150 83L149 82z"/>
<path style="fill:#f9ac4e; stroke:none;" d="M149 83L150 84L149 83z"/>
<path style="fill:#fdd9af; stroke:none;" d="M126 84L127 85L126 84M125 85L126 86L125 85z"/>
<path style="fill:#fbbf77; stroke:none;" d="M148 85L149 86L148 85z"/>
<path style="fill:#fdd9af; stroke:none;" d="M124 86L125 87L124 86M123 87L124 88L123 87M147 87L148 88L147 87M122 88L123 89L122 88z"/>
<path style="fill:#f9ac4e; stroke:none;" d="M147 88L148 89L147 88z"/>
<path style="fill:#fbbf77; stroke:none;" d="M121 89L122 90L121 89M120 90L121 91L120 90M146 90L147 91L146 90M119 91L120 92L119 91z"/>
<path style="fill:#f9ac4e; stroke:none;" d="M146 91L147 92L146 91M118 92L119 93L118 92z"/>
<path style="fill:#fdd9af; stroke:none;" d="M145 92L146 93L145 92z"/>
<path style="fill:#f9ac4e; stroke:none;" d="M117 93L118 94L117 93M145 93L146 94L145 93M116 94L117 95L116 94z"/>
<path style="fill:#fdd9af; stroke:none;" d="M116 95L117 96L116 95M144 95L145 96L144 95M115 96L116 97L115 96z"/>
<path style="fill:#f9ac4e; stroke:none;" d="M144 96L145 97L144 96z"/>
<path style="fill:#fdd9af; stroke:none;" d="M114 97L115 98L114 97M143 97L144 98L143 97M113 98L114 99L113 98z"/>
<path style="fill:#fbbf77; stroke:none;" d="M143 98L144 99L143 98z"/>
<path style="fill:#fdd9af; stroke:none;" d="M112 99L113 100L112 99M111 100L112 101L111 100M142 100L143 101L142 100z"/>
<path style="fill:#fbbf77; stroke:none;" d="M110 101L111 102L110 101z"/>
<path style="fill:#f9ac4e; stroke:none;" d="M142 101L143 102L142 101z"/>
<path style="fill:#fbbf77; stroke:none;" d="M109 102L110 103L109 102z"/>
<path style="fill:#fdd9af; stroke:none;" d="M141 102L142 103L141 102z"/>
<path style="fill:#f9ac4e; stroke:none;" d="M108 103L109 104L108 103z"/>
<path style="fill:#fbbf77; stroke:none;" d="M141 103L142 104L141 103z"/>
<path style="fill:#f9ac4e; stroke:none;" d="M107 104L108 105L107 104M106 105L107 106L106 105z"/>
<path style="fill:#fdd9af; stroke:none;" d="M140 105L141 106L140 105z"/>
<path style="fill:#f9ac4e; stroke:none;" d="M140 106L141 107L140 106z"/>
<path style="fill:#fdd9af; stroke:none;" d="M105 107L106 108L105 107M139 107L140 108L139 107M104 108L105 109L104 108z"/>
<path style="fill:#fbbf77; stroke:none;" d="M139 108L140 109L139 108z"/>
<path style="fill:#fdd9af; stroke:none;" d="M103 109L104 110L103 109M102 110L103 111L102 110z"/>
<path style="fill:#fbbf77; stroke:none;" d="M138 110L139 111L138 110z"/>
<path style="fill:#fdd9af; stroke:none;" d="M101 111L102 112L101 111z"/>
<path style="fill:#f9ac4e; stroke:none;" d="M138 111L139 112L138 111z"/>
<path style="fill:#fbbf77; stroke:none;" d="M100 112L101 113L100 112z"/>
<path style="fill:#fdd9af; stroke:none;" d="M137 112L138 113L137 112z"/>
<path style="fill:#fbbf77; stroke:none;" d="M99 113L100 114L99 113z"/>
<path style="fill:#f9ac4e; stroke:none;" d="M137 113L138 114L137 113z"/>
<path style="fill:#fbbf77; stroke:none;" d="M98 114L99 115L98 114z"/>
<path style="fill:#fdd9af; stroke:none;" d="M136 114L137 115L136 114z"/>
<path style="fill:#f9ac4e; stroke:none;" d="M97 115L98 116L97 115z"/>
<path style="fill:#fbbf77; stroke:none;" d="M136 115L137 116L136 115z"/>
<path style="fill:#f9ac4e; stroke:none;" d="M96 116L97 117L96 116M95 117L96 118L95 117z"/>
<path style="fill:#fdd9af; stroke:none;" d="M95 118L96 119L95 118z"/>
<path style="fill:#fbbf77; stroke:none;" d="M136 118L137 119L136 118z"/>
<path style="fill:#fdd9af; stroke:none;" d="M94 119L95 120L94 119M137 119L138 120L137 119z"/>
<path style="fill:#f9ac4e; stroke:none;" d="M138 119L138 120L204 120L183 119L138 119z"/>
<path style="fill:#fdd9af; stroke:none;" d="M93 120L94 121L93 120z"/>
<path style="fill:#fbbf77; stroke:none;" d="M204 120L205 121L204 120z"/>
<path style="fill:#fdd9af; stroke:none;" d="M92 121L93 122L92 121M91 122L92 123L91 122M205.333 122.667L205.667 123.333L205.333 122.667z"/>
<path style="fill:#fbbf77; stroke:none;" d="M90 123L91 124L90 123M89 124L90 125L89 124z"/>
<path style="fill:#fdd9af; stroke:none;" d="M204 124L205 125L204 124z"/>
<path style="fill:#fbbf77; stroke:none;" d="M88 125L89 126L88 125z"/>
<path style="fill:#fdd9af; stroke:none;" d="M203 125L204 126L203 125z"/>
<path style="fill:#f9ac4e; stroke:none;" d="M87 126L88 127L87 126z"/>
<path style="fill:#fdd9af; stroke:none;" d="M202 126L203 127L202 126z"/>
<path style="fill:#f9ac4e; stroke:none;" d="M86 127L87 128L86 127M85 128L86 129L85 128M201 128L202 129L201 128M200 129L201 130L200 129z"/>
<path style="fill:#fdd9af; stroke:none;" d="M84 130L85 131L84 130z"/>
<path style="fill:#fbbf77; stroke:none;" d="M199 130L200 131L199 130z"/>
<path style="fill:#fdd9af; stroke:none;" d="M83 131L84 132L83 131z"/>
<path style="fill:#fbbf77; stroke:none;" d="M198 131L199 132L198 131z"/>
<path style="fill:#fdd9af; stroke:none;" d="M82 132L83 133L82 132z"/>
<path style="fill:#fbbf77; stroke:none;" d="M197 132L198 133L197 132z"/>
<path style="fill:#fdd9af; stroke:none;" d="M81 133L82 134L81 133M196 133L197 134L196 133M80 134L81 135L80 134M195 134L196 135L195 134z"/>
<path style="fill:#fbbf77; stroke:none;" d="M79 135L80 136L79 135z"/>
<path style="fill:#fdd9af; stroke:none;" d="M194 135L195 136L194 135z"/>
<path style="fill:#fbbf77; stroke:none;" d="M78 136L79 137L78 136z"/>
<path style="fill:#fdd9af; stroke:none;" d="M193 136L194 137L193 136z"/>
<path style="fill:#f9ac4e; stroke:none;" d="M77 137L78 138L77 137M193 137L194 138L193 137M76 138L77 139L76 138M192 138L193 139L192 138M75 139L76 140L75 139M191 139L192 140L191 139z"/>
<path style="fill:#fbbf77; stroke:none;" d="M190 140L191 141L190 140M189 141L190 142L189 141z"/>
<path style="fill:#fdd9af; stroke:none;" d="M188 142L189 143L188 142M187 143L188 144L187 143M186 144L187 145L186 144M185 145L186 146L185 145M184 146L185 147L184 146z"/>
<path style="fill:#f9ac4e; stroke:none;" d="M184 147L185 148L184 147M183 148L184 149L183 148M182 149L183 150L182 149z"/>
<path style="fill:#fbbf77; stroke:none;" d="M181 150L182 151L181 150M180 151L181 152L180 151z"/>
<path style="fill:#fdd9af; stroke:none;" d="M179 152L180 153L179 152z"/>
<path style="fill:#f9ac4e; stroke:none;" d="M141 153L142 154L141 153z"/>
<path style="fill:#fdd9af; stroke:none;" d="M178 153L179 154L178 153M141 154L142 155L141 154M177 154L178 155L177 154z"/>
<path style="fill:#f9ac4e; stroke:none;" d="M140 155L141 156L140 155z"/>
<path style="fill:#fdd9af; stroke:none;" d="M176 155L177 156L176 155M140 156L141 157L140 156z"/>
<path style="fill:#f9ac4e; stroke:none;" d="M139 157L140 158L139 157M175 157L176 158L175 157z"/>
<path style="fill:#fdd9af; stroke:none;" d="M139 158L140 159L139 158z"/>
<path style="fill:#f9ac4e; stroke:none;" d="M174 158L175 159L174 158M173 159L174 160L173 159z"/>
<path style="fill:#fbbf77; stroke:none;" d="M138 160L139 161L138 160M172 160L173 161L172 160M171 161L172 162L171 161M137 162L138 163L137 162z"/>
<path style="fill:#fdd9af; stroke:none;" d="M170 162L171 163L170 162M169 163L170 164L169 163z"/>
<path style="fill:#fbbf77; stroke:none;" d="M136 164L137 165L136 164z"/>
<path style="fill:#fdd9af; stroke:none;" d="M168 164L169 165L168 164M167 165L168 166L167 165z"/>
<path style="fill:#f9ac4e; stroke:none;" d="M135 166L136 167L135 166z"/>
<path style="fill:#fdd9af; stroke:none;" d="M135 167L136 168L135 167z"/>
<path style="fill:#f9ac4e; stroke:none;" d="M166 167L167 168L166 167M134 168L135 169L134 168M165 168L166 169L165 168z"/>
<path style="fill:#fdd9af; stroke:none;" d="M134 169L135 170L134 169z"/>
<path style="fill:#fbbf77; stroke:none;" d="M164 169L165 170L164 169z"/>
<path style="fill:#f9ac4e; stroke:none;" d="M133 170L134 171L133 170z"/>
<path style="fill:#fbbf77; stroke:none;" d="M163 170L164 171L163 170z"/>
<path style="fill:#fdd9af; stroke:none;" d="M133 171L134 172L133 171M162 171L163 172L162 171z"/>
<path style="fill:#f9ac4e; stroke:none;" d="M132 172L133 173L132 172z"/>
<path style="fill:#fdd9af; stroke:none;" d="M161 172L162 173L161 172M132 173L133 174L132 173M160 173L161 174L160 173M159 174L160 175L159 174z"/>
<path style="fill:#fbbf77; stroke:none;" d="M131 175L132 176L131 175z"/>
<path style="fill:#fdd9af; stroke:none;" d="M158 175L159 176L158 175z"/>
<path style="fill:#f9ac4e; stroke:none;" d="M158 176L159 177L158 176z"/>
<path style="fill:#fbbf77; stroke:none;" d="M130 177L131 178L130 177z"/>
<path style="fill:#f9ac4e; stroke:none;" d="M157 177L158 178L157 177M156 178L157 179L156 178z"/>
<path style="fill:#fbbf77; stroke:none;" d="M129 179L130 180L129 179M155 179L156 180L155 179M154 180L155 181L154 180z"/>
<path style="fill:#f9ac4e; stroke:none;" d="M128 181L129 182L128 181z"/>
<path style="fill:#fdd9af; stroke:none;" d="M153 181L154 182L153 181M128 182L129 183L128 182M152 182L153 183L152 182z"/>
<path style="fill:#f9ac4e; stroke:none;" d="M127 183L128 184L127 183z"/>
<path style="fill:#fdd9af; stroke:none;" d="M151 183L152 184L151 183M127 184L128 185L127 184M150 184L151 185L150 184z"/>
<path style="fill:#f9ac4e; stroke:none;" d="M126 185L127 186L126 185z"/>
<path style="fill:#fdd9af; stroke:none;" d="M149 185L150 186L149 185M126 186L127 187L126 186z"/>
<path style="fill:#f9ac4e; stroke:none;" d="M149 186L150 187L149 186M125 187L126 188L125 187M148 187L149 188L148 187z"/>
<path style="fill:#fdd9af; stroke:none;" d="M125 188L126 189L125 188z"/>
<path style="fill:#f9ac4e; stroke:none;" d="M147 188L148 189L147 188z"/>
<path style="fill:#fbbf77; stroke:none;" d="M146 189L147 190L146 189M124 190L125 191L124 190M145 190L146 191L145 190z"/>
<path style="fill:#fdd9af; stroke:none;" d="M144 191L145 192L144 191z"/>
<path style="fill:#fbbf77; stroke:none;" d="M123 192L124 193L123 192z"/>
<path style="fill:#fdd9af; stroke:none;" d="M143 192L144 193L143 192M142 193L143 194L142 193z"/>
<path style="fill:#fbbf77; stroke:none;" d="M122 194L123 195L122 194z"/>
<path style="fill:#fdd9af; stroke:none;" d="M141 194L142 195L141 194z"/>
<path style="fill:#fbbf77; stroke:none;" d="M121 196L122 197L121 196z"/>
<path style="fill:#f9ac4e; stroke:none;" d="M140 196L141 197L140 196z"/>
<path style="fill:#fdd9af; stroke:none;" d="M121 197L122 198L121 197z"/>
<path style="fill:#f9ac4e; stroke:none;" d="M139 197L140 198L139 197M120 198L121 199L120 198z"/>
<path style="fill:#fbbf77; stroke:none;" d="M138 198L139 199L138 198z"/>
<path style="fill:#fdd9af; stroke:none;" d="M120 199L121 200L120 199z"/>
<path style="fill:#fbbf77; stroke:none;" d="M137 199L138 200L137 199z"/>
<path style="fill:#f9ac4e; stroke:none;" d="M119 200L120 201L119 200z"/>
<path style="fill:#fbbf77; stroke:none;" d="M136 200L137 201L136 200z"/>
<path style="fill:#fdd9af; stroke:none;" d="M119 201L120 202L119 201M135 201L136 202L135 201z"/>
<path style="fill:#f9ac4e; stroke:none;" d="M118 202L119 203L118 202z"/>
<path style="fill:#fdd9af; stroke:none;" d="M134 202L135 203L134 202M118 203L119 204L118 203M133 203L134 204L133 203M132 204L133 205L132 204z"/>
<path style="fill:#fbbf77; stroke:none;" d="M117 205L118 206L117 205z"/>
<path style="fill:#f9ac4e; stroke:none;" d="M132 205L133 206L132 205M131 206L132 207L131 206z"/>
<path style="fill:#fbbf77; stroke:none;" d="M116 207L117 208L116 207z"/>
<path style="fill:#f9ac4e; stroke:none;" d="M130 207L131 208L130 207z"/>
<path style="fill:#fbbf77; stroke:none;" d="M129 208L130 209L129 208M115 209L116 210L115 209M128 209L129 210L128 209z"/>
<path style="fill:#fdd9af; stroke:none;" d="M127 210L128 211L127 210z"/>
<path style="fill:#fbbf77; stroke:none;" d="M114 211L115 212L114 211z"/>
<path style="fill:#fdd9af; stroke:none;" d="M126 211L127 212L126 211M114 212L115 213L114 212M125 212L126 213L125 212z"/>
<path style="fill:#f9ac4e; stroke:none;" d="M113 213L114 214L113 213z"/>
<path style="fill:#fdd9af; stroke:none;" d="M124 213L125 214L124 213M113 214L114 215L113 214M123 214L124 215L123 214z"/>
<path style="fill:#f9ac4e; stroke:none;" d="M112 215L113 216L112 215M123 215L124 216L123 215z"/>
<path style="fill:#fdd9af; stroke:none;" d="M112 216L113 217L112 216z"/>
<path style="fill:#f9ac4e; stroke:none;" d="M122 216L123 217L122 216M111 217L112 218L111 217M121 217L122 218L121 217z"/>
<path style="fill:#fdd9af; stroke:none;" d="M111 218L112 219L111 218z"/>
<path style="fill:#fbbf77; stroke:none;" d="M120 218L121 219L120 218z"/>
<path style="fill:#f9ac4e; stroke:none;" d="M110 219L111 220L110 219z"/>
<path style="fill:#fbbf77; stroke:none;" d="M119 219L120 220L119 219M110 220L111 221L110 220z"/>
<path style="fill:#fdd9af; stroke:none;" d="M118 220L119 221L118 220M117 221L118 222L117 221z"/>
<path style="fill:#fbbf77; stroke:none;" d="M109 222L110 223L109 222z"/>
<path style="fill:#fdd9af; stroke:none;" d="M116 222L117 223L116 222M115 223L116 224L115 223z"/>
<path style="fill:#fbbf77; stroke:none;" d="M108 224L108 227L109 227L108 224z"/>
<path style="fill:#f9ac4e; stroke:none;" d="M114 225L115 226L114 225M113 226L114 227L113 226M108 227L109 228L108 227M112 227L113 228L112 227z"/>
<path style="fill:#fdd9af; stroke:none;" d="M109 228L110 229L109 228z"/>
<path style="fill:#fbbf77; stroke:none;" d="M111 228L112 229L111 228z"/>
<path style="fill:#f9ac4e; stroke:none;" d="M110 229L111 230L110 229z"/>
</svg>
