<?xml version="1.0" standalone="no"?>
<!DOCTYPE svg PUBLIC "-//W3C//DTD SVG 1.1//EN" "http://www.w3.org/Graphics/SVG/1.1/DTD/svg11.dtd" >
<svg xmlns="http://www.w3.org/2000/svg" xmlns:xlink="http://www.w3.org/1999/xlink" version="1.1">
<metadata>
Created by FontForge 20200427 at Sat Aug  6 02:21:04 2016
 By www
By PintassilgoPrints, 2016. All rights reserved.
http://www.pintassilgoprints.com
</metadata>
<defs>
<font id="SunbeatW01-Regular" horiz-adv-x="330" >
  <font-face 
    font-family="SunbeatW01-Regular"
    font-weight="400"
    font-stretch="normal"
    units-per-em="1024"
    panose-1="2 0 5 3 0 0 0 0 0 0"
    ascent="819"
    descent="-205"
    x-height="682"
    cap-height="679"
    bbox="-135 -204 666 872"
    underline-thickness="51"
    underline-position="-128"
    unicode-range="U+0020-2122"
  />
<missing-glyph horiz-adv-x="512" 
 />
    <glyph glyph-name=".notdef" horiz-adv-x="512" 
 />
    <glyph glyph-name="glyph1" horiz-adv-x="0" 
 />
    <glyph glyph-name="glyph2" horiz-adv-x="341" 
 />
    <glyph glyph-name="space" unicode=" " horiz-adv-x="204" 
 />
    <glyph glyph-name="exclam" unicode="!" horiz-adv-x="180" 
d="M155 22q0 -24 -15 -42.5t-37 -18.5q-21 0 -38 19t-17 40q0 28 13.5 48.5t43.5 20.5q24 0 37 -21t13 -46zM155 679q0 -106 -4 -259.5t-4 -261.5q0 -27 -3.5 -32.5t-16.5 -5.5h-19.5t-20 -0.5t-9.5 -0.5q-13 0 -17.5 6.5t-4.5 27.5l-1 525v13q0 13 4.5 16.5t22.5 3.5h43
q22 0 26 -3.5t4 -23.5v-5z" />
    <glyph glyph-name="quotedbl" unicode="&#x22;" horiz-adv-x="259" 
d="M168 729h21h17q17 -1 21.5 -4t4.5 -13v-1l-8 -155q0 -14 -2.5 -18t-14.5 -4h-4l-30 1h-8t-6 1t-5 1t-3.5 2t-1.5 2.5t-1 4t-1 5v7v8.5l-3 117v19q0 27 24 27zM49 733h23h16q17 -1 22 -4t5 -13v-1l-5 -155q0 -14 -3 -18t-15 -4h-4l-33 1h-8t-6 1t-5 1t-3.5 2t-1.5 2.5
t-1 4t-1 5v7v8.5l-3 117v20q0 26 23 26z" />
    <glyph glyph-name="numbersign" unicode="#" horiz-adv-x="460" 
d="M163 702l26 -1q23 -1 24 -9v-4q0 -7 -2 -19l-21 -180l100 1q4 32 11 96.5t11 97.5q2 11 6 14.5t17 3.5h7l27 -1q22 -1 23 -9v-4q0 -7 -2 -19l-20 -179l49 2q14 0 18 -3t4 -15q0 -8 -0.5 -18.5t-0.5 -18.5v-8.5t-1 -6.5t-1 -4.5t-2 -3t-3 -2t-4 -1t-5 -0.5h-7h-8h-49
l-12 -101l71 1q15 0 18.5 -2.5t3.5 -14.5q0 -8 -0.5 -20t-0.5 -20v-8.5t-1 -6.5t-1 -4.5t-2 -3t-3 -2t-4 -1t-5 -0.5h-7h-8l-70 -1l-23 -194q-3 -25 -8 -28q-3 -2 -11 -2h-4q-14 0 -50 3q-8 2 -9 6v4q0 2 2 18q20 167 23 193l-99 -1l-22 -182q-3 -23 -7.5 -27t-27.5 -7
l-21 -4q-14 -2 -17 -2q-8 0 -9 5v4q0 11 1 19q4 32 12.5 96t11.5 97h-18h-19q-27 0 -27 24v16v17q1 17 4.5 21.5t13.5 4.5h2h53q2 17 5.5 50.5t5.5 50.5h-38q-4 0 -10.5 -0.5t-8.5 -0.5q-27 0 -27 23v14v17q1 17 4.5 21.5t13.5 4.5h2h74q4 33 11 98t11 98q2 11 6 14.5
t17 3.5h7zM281 410h-100l-12 -101l100 1q2 17 6 50t6 50z" />
    <glyph glyph-name="dollar" unicode="$" horiz-adv-x="328" 
d="M49 309q12 2 21 2q14 0 22 -2q11 -2 15 -6t5 -16q2 -13 2 -41v-20v-21q2 -33 19 -61t43 -28q59 0 63 99q-5 47 -35 75t-78 48q-103 42 -110 163v12q0 55 31.5 107.5t83.5 65.5q-3 48 -3 51q0 13 2 15q6 6 41 6q33 0 39 -6v-3q0 -10 -7 -66q57 -17 83.5 -71t26.5 -123
q0 -22 -4 -62q0 -3 -0.5 -7t-1 -6t-1.5 -4t-4 -3t-7 -1h-23q-20 0 -30 4q-14 5 -14 23q0 7 0.5 23t0.5 24q0 23 -1.5 39t-6.5 32.5t-16.5 25t-28.5 8.5q-27 0 -43 -21.5t-16 -58.5q0 -34 13 -74q11 -17 47.5 -29.5t41.5 -15.5q83 -48 83 -166q0 -60 -30 -104t-79 -59
q8 -67 8 -71v-2q-7 -7 -39 -7q-34 0 -41 7q-2 2 -2 16q0 5 3 53q-50 11 -73.5 63t-23.5 121q0 25 3 48q2 14 5 18t16 6z" />
    <glyph glyph-name="percent" unicode="%" horiz-adv-x="419" 
d="M401 122q0 -50 -26 -91.5t-65 -41.5q-51 0 -76 37t-25 88q0 67 24 112.5t79 45.5q46 0 67.5 -47t21.5 -103zM327 76q6 36 6 55q0 12 -6 48q-4 15 -25 15q-10 0 -24 -8q-7 -35 -7 -47q0 -46 8 -63h48zM210 566q0 -50 -26.5 -91.5t-65.5 -41.5q-51 0 -76 37t-25 88
q0 67 24 113t79 46q46 0 68 -47.5t22 -103.5zM135 527q5 30 5 50q0 18 -5 48q-3 13 -24 13q-15 0 -25 -6q-6 -30 -6 -48q0 -42 7 -57h48zM342 702l29 -1q20 -1 20 -8v-1q-1 -3 -9 -23l-257 -625q-9 -23 -15 -27t-30 -7l-27 -4q-16 -2 -17 -2q-7 0 -7 5q0 1 8 23
q53 127 150.5 364.5t118.5 287.5q8 18 29 18h7z" />
    <glyph glyph-name="ampersand" unicode="&#x26;" horiz-adv-x="440" 
d="M256 469q-15 1 -15 13v17q2 46 2 58q0 39 -9 54.5t-36 15.5q-59 0 -59 -80q0 -61 56 -145q11 -16 42.5 -72.5t55.5 -89.5q1 10 1 32v32v10v16q0 7 2.5 9.5t11.5 2.5q36 2 49 2t17 -7t4 -24q0 -107 -23 -175q46 -62 74 -93q12 -12 12 -22q0 -15 -32 -15h-1h-44
q-12 0 -19 4t-14.5 15.5t-9.5 14.5q-1 1 -4 3.5t-5 5t-4 4.5q-26 -29 -52 -42t-70 -13q-68 0 -119 67t-51 143q0 19 1 35.5t4 31.5t4.5 26t7.5 24t8 19.5t10 19.5t10 16t11.5 17.5t11.5 16.5q-17 20 -25 43t-9.5 39.5t-1.5 47.5v8q0 68 36 114t113 46q84 0 112 -39.5
t28 -120.5q0 -36 -1 -54q-1 -13 -2 -19t-6 -10t-14 -4q-20 0 -58 2zM267 127q-25 34 -70.5 107t-61.5 95q-25 -34 -25 -98q0 -15 -2 -41t-2 -37q0 -53 33 -54l86 -3q13 2 19 5.5t12.5 12.5t10.5 13z" />
    <glyph glyph-name="quotesingle" unicode="'" horiz-adv-x="137" 
d="M47 723h23h16q17 -1 22 -4t5 -13v-1l-5 -155q0 -14 -3 -18.5t-15 -4.5h-4l-33 1q-22 1 -24 9q-1 2 -2 23l-3 117v19q0 27 23 27z" />
    <glyph glyph-name="parenleft" unicode="(" horiz-adv-x="204" 
d="M186 691q-21 0 -38.5 -56t-21.5 -95q-3 -34 -3 -75q0 -11 -1 -61t-1 -85q0 -109 8 -193q3 -31 17.5 -59.5t42.5 -31.5q1 0 3.5 -8t4 -20t1.5 -22q0 -17 -3 -17q-52 0 -93 27.5t-57 81.5q-20 72 -23 160q-2 48 -2 69q0 145 14 259q10 77 46 133q17 26 45.5 40t57.5 14
q6 0 6 -27z" />
    <glyph glyph-name="parenright" unicode=")" horiz-adv-x="207" 
d="M19 691q-2 15 -2 34q0 27 7 27q29 0 57 -14t45 -40q37 -57 47 -133q13 -105 13 -259q0 -45 -1 -69q-3 -88 -23 -160q-16 -54 -57 -81.5t-93 -27.5q-3 0 -3 17q0 11 1.5 22.5t3.5 19.5t3 8q28 3 42.5 31.5t17.5 59.5q8 84 8 193q0 35 -0.5 85t-0.5 61q0 29 -4 75
q-4 39 -21.5 95t-38.5 56h-1z" />
    <glyph glyph-name="asterisk" unicode="*" horiz-adv-x="280" 
d="M42 655q4 0 21 -11l49 -24l1 70v10t1.5 5.5t4 4t8.5 0.5q1 0 10 -0.5t13 -0.5q7 0 9 -3.5t2 -13.5v-10l-1 -67l56 32q18 10 21 10q5 0 14 -15t9 -20t-13 -13l-64 -44l51 -62q9 -11 9 -15t-13 -15.5t-19 -11.5q-1 0 -18 17l-54 52l-53 -53q-16 -16 -18 -16q-4 0 -9 4
t-9.5 9t-5.5 5q-8 6 -8 10q0 5 8 15l52 61l-63 43q-14 8 -14 13t9 19.5t14 14.5z" />
    <glyph glyph-name="plus" unicode="+" horiz-adv-x="303" 
d="M24 342v29v16q1 17 4 22t13 5h1l70 1v56q0 15 2.5 19.5t14.5 4.5h4l34 -2h8.5t6.5 -1t4.5 -1t3 -2t2 -2.5t1.5 -4.5t1 -5v-7v-8v-47l61 1q14 0 18.5 -3t4.5 -15v-4l-2 -46v-8.5t-1 -6.5t-1 -4.5t-2 -3t-3 -2t-4 -1t-5 -0.5h-7h-8h-49v-36q0 -4 0.5 -11t0.5 -9
q0 -25 -24 -25h-16h-17q-17 1 -21.5 3.5t-4.5 12.5v2l-1 60h-43q-4 0 -11 -0.5t-9 -0.5q-26 0 -26 24z" />
    <glyph glyph-name="comma" unicode="," horiz-adv-x="149" 
d="M102 121q10 0 13.5 -5.5t4.5 -20.5q1 -20 1 -77v-5q0 -25 -18 -51t-31 -37q-6 -6 -11 -6q-6 0 -14 5.5t-8 10.5q0 3 8 15q30 41 30 46q-1 5 -21 5h-7q-14 0 -17.5 2.5t-5.5 14.5q-4 24 -4 75q0 19 5.5 24t21.5 5q8 0 27 -0.5t26 -0.5z" />
    <glyph glyph-name="hyphen" unicode="-" horiz-adv-x="250" 
d="M27 335v35v17q1 17 4 22t13 5h1l155 -5q14 0 18 -3t4 -15v-4l-1 -46q-1 -19 -4.5 -23t-20.5 -4h-7l-116 -2q-4 0 -11 -0.5t-9 -0.5q-26 0 -26 24z" />
    <glyph glyph-name="period" unicode="." horiz-adv-x="149" 
d="M128 13q-1 -12 -12 -13q-2 0 -8 -0.5t-9 -0.5q-10 0 -25.5 1t-18.5 1h-7q-14 0 -17.5 2.5t-5.5 14.5q-5 30 -5 75q0 19 6 24t22 5q8 0 31.5 -0.5t30.5 -0.5q10 0 13 -5t4 -21q1 -20 1 -77v-3v-2z" />
    <glyph glyph-name="slash" unicode="/" horiz-adv-x="346" 
d="M272 734l35 -1q22 -1 22 -9q0 -3 -1 -7t-3 -9.5t-3 -7.5l-218 -688q-8 -26 -19 -30q-4 -1 -24 -4l-30 -4q-12 -2 -17 -2q-8 0 -8 5q0 2 2.5 10t3.5 13q168 505 228 716q5 19 25 19q1 0 3 -0.5t4 -0.5z" />
    <glyph glyph-name="zero" unicode="0" horiz-adv-x="385" 
d="M23 342q0 56 3 98.5t13.5 93.5t28.5 84.5t52 56t80 22.5q34 0 61.5 -14t45.5 -35.5t31 -56t19.5 -66t10 -75t4.5 -74t1 -71.5q0 -128 -52.5 -219t-146.5 -91q-45 0 -77 32t-47 87.5t-21 110t-6 117.5zM247 115q19 27 19 83q0 13 -1 38.5t-1 39.5q0 146 -13 244
q-8 60 -31 90q-55 -4 -96 -27q-14 -173 -14 -274q0 -106 16 -194h121z" />
    <glyph glyph-name="one" unicode="1" horiz-adv-x="223" 
d="M106 684h69h7q8 0 10 -3t3 -14q2 -26 2 -59q0 -34 -3 -147t-3 -178q0 -196 -3 -248v-8t-0.5 -6.5t-0.5 -4.5t-1 -4l-2.5 -2.5t-3.5 -2t-5.5 -1t-7.5 -0.5q-7 0 -34.5 0.5t-35.5 0.5q-7 0 -8.5 2.5t-1.5 13.5v2q0 131 4 527l-13 -14q-13 -14 -22 -22t-12 -8q-9 0 -23 24.5
t-14 31.5t10 17q75 75 75 91q0 8 2.5 10t11.5 2z" />
    <glyph glyph-name="two" unicode="2" horiz-adv-x="355" 
d="M119 577q0 -33 -0.5 -73t-0.5 -45q0 -16 -15 -21q-13 -4 -29 -4h-25q-6 0 -9.5 0.5t-6 0.5t-3.5 3t-1 4t-1 7t-1 9q-7 54 -7 66q0 66 22.5 107t80.5 62q34 12 57 12q75 0 118.5 -54t43.5 -133q0 -32 -22.5 -71.5t-42.5 -62.5t-54 -57q-109 -109 -109 -182q0 -21 5 -21
q12 -2 24 -2q27 0 91 5.5t90 5.5q6 0 7 -32l2 -49v-4v-8q0 -19 -4 -25.5t-21 -7.5q-37 -3 -133 -3q-8 0 -30 -1t-34 -1q-35 0 -51 4q-5 1 -11.5 2.5t-9 2t-5.5 2t-4 4t-2.5 6.5t-2.5 11q-5 23 -5 76q0 77 21.5 132t87.5 112q32 28 51 47t39.5 53.5t20.5 65.5q0 52 -11 67
q-6 10 -62 10q-47 0 -48 -20z" />
    <glyph glyph-name="three" unicode="3" horiz-adv-x="303" 
d="M79 98q48 -8 92 -8q21 0 27 30q6 24 6 59q0 53 -27 71t-87 18v93q63 4 90 27.5t27 81.5q0 7 -0.5 17t-0.5 16q0 37 -15 52.5t-60 15.5q-11 0 -27 -2l-81 -2q0 21 -0.5 40t-0.5 41v15q0 12 4.5 15t22.5 3q16 0 50 1t46 1q88 0 126 -80q22 -48 22 -95q0 -88 -21 -135.5
t-78 -56.5q50 -18 76.5 -55.5t26.5 -85.5q0 -89 -38 -131.5t-134 -42.5q-31 0 -74 5q-3 0 -8 0.5t-7 1t-5.5 1t-4.5 1t-3 2t-3 3t-2 4t-1 5.5v7v61q0 12 18 12q2 0 44 -6z" />
    <glyph glyph-name="four" unicode="4" horiz-adv-x="317" 
d="M47 654h41q8 0 10.5 -2t2.5 -8v-11l-9 -244q0 -17 2.5 -19t19.5 -3l58 -2q3 0 6.5 -0.5t4.5 -0.5q7 0 9.5 3t2.5 13v3l-5 274v12q0 7 1.5 10t5.5 4t13 2l62 6q2 0 5 0.5t4 0.5q8 0 10 -2.5t2 -11.5v-14l1 -634v-1q0 -13 -2.5 -16t-12.5 -3h-7h-46q-13 0 -16 3.5t-3 13.5
v5v3l-2 232q0 12 -2.5 14t-16.5 3l-80 3h-74q-4 0 -7 2.5t-4 5.5l-1 3l11 329v3q0 24 16 24z" />
    <glyph glyph-name="five" unicode="5" horiz-adv-x="323" 
d="M98 445q0 -2 -0.5 -5t-0.5 -4q0 -9 9 -10q3 0 8 -1h5q100 -5 145 -44.5t45 -137.5q0 -157 -92 -211q-40 -23 -100 -23q-36 0 -68 2q-13 1 -15.5 3t-4.5 14q-9 56 -9 90v7q0 18 9 18q7 0 20 -4q68 -17 101 -17q28 0 37 10q15 48 15 82q0 68 -31 127q-5 0 -35 -1.5
t-51 -1.5q-20 0 -36 2q-3 0 -8.5 1t-7 1.5t-5 1.5t-4 2.5l-1.5 4.5t-1 7v3l18 293v5q1 13 7 15l12 1l190 14q2 0 5 0.5t4 0.5q8 0 10 -3.5t2 -15.5v-54q0 -16 -2 -18t-18 -4l-117 -22q-11 -2 -15 -3t-8 -6t-4 -14q-4 -66 -8 -105z" />
    <glyph glyph-name="six" unicode="6" 
d="M117 335q-4 -10 -4 -44q0 -16 2 -36q4 -42 7 -64t8.5 -55t13 -48t17.5 -15h17q40 0 50 17q3 37 3 76q0 78 -17 173q-12 0 -47.5 -2t-49.5 -2zM172 -7q-49 0 -81 26t-46.5 75t-19.5 95.5t-5 111.5q0 406 145 406q34 0 58 -3.5t39.5 -13.5t24.5 -20.5t13 -32.5t5 -40.5
t1 -53.5q0 -18 -3.5 -25t-16.5 -7q-20 0 -56 2q-9 0 -11.5 3t-2.5 10v16q0 65 -7 78t-42 13q-26 0 -39 -62t-13 -129q0 -21 2 -35q2 1 11.5 6t19 8t20.5 3q73 0 110 -54t37 -136q0 -241 -143 -241z" />
    <glyph glyph-name="seven" unicode="7" horiz-adv-x="270" 
d="M257 673q0 -10 0.5 -24.5t0.5 -20.5q0 -4 -0.5 -16.5t-0.5 -20.5q0 -20 -4 -33q-21 -84 -65 -273.5t-65 -269.5q-3 -12 -5 -14.5t-9 -2.5q-2 0 -7 0.5t-9 0.5q-38 3 -48 4q-19 3 -19 12q0 4 6 26q60 216 134 537l3 15q0 6 -16 7q-31 2 -121 2h-1q-10 0 -11 8q-4 36 -4 55
q0 16 30 18q97 7 164 7h36q11 0 11 -17z" />
    <glyph glyph-name="eight" unicode="8" horiz-adv-x="344" 
d="M134 549q0 -80 52 -106h8q17 0 30 19q10 15 18 42.5t8 48.5q0 13 -1.5 26t-4 22.5t-2.5 10.5q-10 18 -49 18q-20 0 -32 -5l-22 -9q-5 -2 -5 -67zM108 207q0 -67 12.5 -92t44.5 -25h46q24 0 32 15q9 15 11.5 33t2.5 69q0 45 -24 92t-52 47q-30 -20 -51.5 -56t-21.5 -83z
M201 709q59 0 94 -36.5t35 -115.5q0 -46 -29 -92t-73 -76q50 -16 79.5 -76t29.5 -128q0 -82 -36.5 -142.5t-101.5 -60.5q-110 0 -147 49t-37 166q0 65 33.5 117.5t91.5 72.5q-45 31 -66.5 66t-21.5 94q0 82 40 122t109 40z" />
    <glyph glyph-name="nine" unicode="9" horiz-adv-x="312" 
d="M209 385q6 54 6 99q0 21 -8 115q-1 10 -6 30t-8 22h-6q-69 0 -84 -25q-3 -38 -3 -68q0 -78 17 -173h92zM176 731q27 0 50 -15.5t33 -37.5q35 -72 35 -208v-4v-5q0 -16 1 -88t1 -114v-20q0 -42 -0.5 -65.5t-4 -55.5t-10.5 -49t-19 -34.5t-32 -25t-47 -7.5q-98 0 -128 35.5
t-30 128.5q0 18 3.5 25t16.5 7q19 0 55 -2q16 0 16 -13q0 -2 -0.5 -7t-0.5 -8q0 -61 13.5 -76.5t52.5 -15.5q31 0 31 97q0 19 -1 57t-1 55v5q-15 -6 -34 -6h-4q-73 3 -111.5 62.5t-38.5 142.5q0 101 37.5 171.5t116.5 70.5z" />
    <glyph glyph-name="colon" unicode=":" horiz-adv-x="156" 
d="M23 452q0 25 14 46.5t38 21.5q30 0 43.5 -20.5t13.5 -48.5q0 -21 -17 -40t-38 -19q-23 0 -38.5 18t-15.5 42zM132 184q0 -24 -14 -41.5t-37 -17.5q-21 0 -38 18.5t-17 39.5q0 28 13.5 49t43.5 21q23 0 36 -21.5t13 -47.5z" />
    <glyph glyph-name="semicolon" unicode=";" horiz-adv-x="156" 
d="M133 235q-2 -13 -13 -14q-2 0 -7.5 -0.5t-8.5 -0.5q-10 0 -25.5 1.5t-18.5 1.5h-7q-14 0 -18 2.5t-6 14.5q-4 24 -4 75q0 19 5.5 23.5t22.5 4.5q8 0 31 -0.5t30 -0.5q10 0 13.5 -5t4.5 -20q1 -20 1 -77v-3v-2zM108 95h8q6 0 7 -15v-40v-1q0 -6 0.5 -12t0.5 -10v-5
q0 -10 -3 -19t-6.5 -13.5t-9 -10.5t-6.5 -7q-9 -10 -15.5 -18t-10.5 -12q-6 -6 -11 -6t-12 5.5t-7 10.5q0 2 7 13q27 38 27 42q-1 4 -19 4h-7q-13 0 -15.5 2.5t-4.5 13.5q-4 22 -4 42q0 24 7 30.5t31 6.5q7 0 22 -0.5t21 -0.5z" />
    <glyph glyph-name="less" unicode="&#x3c;" horiz-adv-x="250" 
d="M18 362q89 196 117 245q0 1 1 3q6 11 19 12h2l65 6h3q7 0 7 -3q0 -6 -5 -14q-4 -7 -42.5 -94t-57.5 -119q-14 -31 -14 -45q0 -13 9 -39q12 -39 39 -108t42 -124q1 -3 2.5 -6.5t1.5 -4.5q0 -6 -11 -10q-7 -2 -27 -5.5t-24 -4.5l-10 -2q-6 0 -8 4.5t-6 19.5q-1 4 -48 138z
" />
    <glyph glyph-name="equal" unicode="=" horiz-adv-x="284" 
d="M268 216q0 -23 -26 -23q-2 0 -9 0.5t-11 0.5l-162 2h-9t-7.5 0.5t-5 0.5t-4 1.5t-2.5 3t-2 4.5t-0.5 6.5t-0.5 9.5l-1 40v4q0 12 4 15t18 3h200h1q10 0 13 -5t4 -22v-16v-25zM28 362v18v16q1 17 4 22t13 5h1l200 1q14 0 18 -2.5t4 -14.5v-5l-1 -33v-8.5t-1 -6.5t-1 -4.5
t-2 -3t-2.5 -2t-4.5 -1.5t-5 -1h-7h-8l-162 -2q-4 0 -11 -0.5t-9 -0.5q-26 0 -26 23z" />
    <glyph glyph-name="greater" unicode="&#x3e;" horiz-adv-x="250" 
d="M230 366q-17 -44 -54 -152q-47 -134 -48 -138q-8 -23 -14 -24q-2 0 -12 2q-4 1 -15 3t-20 4t-14 4q-12 5 -12 9q0 2 1.5 5t2.5 6q15 54 42.5 123.5t39.5 108.5q9 25 9 39q0 12 -15 45q-19 32 -57 118.5t-42 94.5q-6 10 -6 14q0 3 7 3h4l65 -6q8 0 12 -2.5t5 -4t5 -8.5
q25 -44 116 -244z" />
    <glyph glyph-name="question" unicode="?" horiz-adv-x="356" 
d="M144 -43q-20 0 -36.5 17.5t-16.5 38.5q0 28 15.5 49.5t45.5 21.5q22 0 34 -20t12 -45t-15.5 -43.5t-38.5 -18.5zM182 651q-18 0 -30 -8.5t-17.5 -25.5t-8 -32.5t-3.5 -38.5q-1 -16 -1 -46q-1 -19 -14 -24q-10 -4 -31 -4h-23q-4 0 -6.5 0.5t-3.5 2.5t-1.5 3.5t-0.5 5.5v6
q-2 32 -2 51v16q3 81 42 140t118 59q61 0 99.5 -54.5t38.5 -118.5q0 -48 -12 -86.5t-32 -65t-41.5 -49.5t-43.5 -53t-34 -63q-10 -26 -10 -64q0 -12 4.5 -34t4.5 -33q0 -8 -18 -8l-34 -1h-2q-12 0 -15 3t-5 14q-9 37 -9 68q0 55 19.5 109.5t52.5 86.5q62 60 62 166
q0 78 -43 78z" />
    <glyph glyph-name="at" unicode="@" horiz-adv-x="418" 
d="M238 254l-4 175q-1 13 -8 21t-16 8q-16 0 -26 -20q-4 -52 -5 -74v-26q0 -46 6 -88q2 -10 12 -10h4h24q8 0 10 2.5t3 11.5zM331 474q0 51 -37 95t-89 44q-42 0 -74 -64.5t-32 -128.5v-160q0 -48 17 -123q5 -8 62 -18t105 -10q6 0 16 0.5t14 0.5h5q7 0 10 -0.5t5 -3
t2.5 -5.5t0.5 -11l5 -79v-9q0 -9 -2.5 -10.5t-13.5 -1.5h-10h-66q-107 0 -165 64t-60 164q0 18 -1.5 67.5t-2 91t-0.5 66.5q0 285 196 285q55 0 97.5 -31t57.5 -79q24 -79 24 -199q0 -16 1 -43.5t1 -39.5q0 -76 -30 -136q-7 -12 -21.5 -24t-29.5 -12q-48 0 -65 22
q-15 -17 -35 -17q-41 0 -61.5 45t-20.5 107v13q1 36 2.5 52.5t7 41t16.5 42.5q23 42 58 42q12 0 31 -17v7v9q0 8 4 8q2 0 20 -3q2 0 6 -0.5t5 -1t3 -1t2.5 -2t1 -3.5t0.5 -6v-3q0 -16 -4 -81t-4 -100q0 -57 8 -89q3 -12 18 -12q7 0 10 5q16 33 16 117q0 24 -2 70t-2 65z" />
    <glyph glyph-name="A" unicode="A" 
d="M252 28q-9 0 -10.5 1.5t-2.5 11.5l-7 86l-9 92q-1 9 -5 9q-1 0 -3 -0.5t-4 -0.5q-44 -6 -69 -8q-5 0 -6.5 -0.5t-3.5 -2t-2.5 -3.5t-0.5 -6l-27 -199q0 -4 -0.5 -5.5t-1.5 -3t-3 -1.5h-6q-1 0 -32.5 -1.5t-47.5 -1.5q-7 0 -7 5q0 4 1 7q15 101 30 226q4 29 8.5 61.5
t10 72t8.5 61.5q5 34 39 255q3 20 5 23t14 3h10h99h8q6 0 8.5 -0.5t4.5 -3t2.5 -5.5t1.5 -11l70 -651v-6q0 -4 -10 -4h-62zM174 611l-7 -1h-7q-3 0 -5 -14l-31 -257v-5q0 -4 10 -4h47q10 0 10 4q0 1 -0.5 3t-0.5 4q-3 43 -4.5 128.5t-4.5 128.5q-2 13 -7 13z" />
    <glyph glyph-name="B" unicode="B" horiz-adv-x="332" 
d="M200 399q61 -22 91 -58.5t30 -104.5q0 -110 -58.5 -172.5t-170.5 -62.5q-26 0 -48 3q-14 1 -16 5t-2 21l1 173q-1 45 -1 133q0 46 0.5 137t0.5 138v79q1 16 4 20t17 6q24 4 62 4q91 0 143.5 -37.5t52.5 -116.5q0 -94 -106 -167zM158 339q-14 0 -30 -3q-9 -1 -11 -4.5
t-2 -15.5v-173q0 -3 -0.5 -9t0 -7t3.5 -3t9 -3q2 0 6 -0.5t6 -0.5q17 0 30 7q25 13 43 41t18 61q0 53 -19 81.5t-53 28.5zM119 615l2 -139q0 -12 2.5 -13.5t12.5 1.5q34 6 60.5 31t27.5 64q0 34 -28.5 51t-64.5 19q-9 1 -10.5 -1.5t-1.5 -12.5z" />
    <glyph glyph-name="C" unicode="C" horiz-adv-x="349" 
d="M257 261q0 11 -0.5 32t-0.5 31q0 6 1.5 7.5t8.5 1.5q26 0 39 -1q12 -1 15 -3.5t3 -12.5q0 -43 -1 -71t-5.5 -69.5t-14.5 -68t-26.5 -53t-44 -39.5t-63.5 -13h-2q-65 1 -100 54t-40 116q-4 53 -4 120q0 34 1.5 92t1.5 69q2 68 17.5 124.5t56 98t100.5 41.5q55 0 92.5 -44
t37.5 -118v-25q0 -10 0.5 -31.5t0.5 -31.5q0 -6 -1 -9.5t-1.5 -5.5t-4 -3t-4.5 -1.5t-7.5 -1t-8.5 -0.5q-54 -3 -57 -3q-9 0 -11 3.5t-2 16.5q0 7 -0.5 27.5t-1 32t-2 30t-4.5 29t-7.5 22t-12 17t-17.5 5.5q-54 0 -71 -26q-8 -35 -8 -139v-146q0 -181 65 -181q26 0 43.5 10
t25.5 29.5t11 39.5t3 48z" />
    <glyph glyph-name="D" unicode="D" horiz-adv-x="331" 
d="M26 17v56v640q3 4 11 4h4h68h31h17q48 -2 83 -28q34 -26 51 -79.5t19.5 -97.5t2.5 -124v-10v-32q0 -174 -57 -260.5t-207 -92.5h-9q-10 0 -12 3.5t-2 20.5zM130 99q58 0 79.5 41t21.5 113q0 12 0.5 46.5t0.5 55.5v17q0 35 -0.5 56t-2.5 53t-5.5 52t-11 43.5t-18 37
t-26.5 22.5t-36 9h-8q-7 0 -9 -2.5t-2 -12.5v-36q0 -74 0.5 -223t0.5 -223v-31q0 -18 6 -18h10z" />
    <glyph glyph-name="E" unicode="E" horiz-adv-x="286" 
d="M270 111v-69q0 -13 -2.5 -15.5t-16.5 -2.5l-96 -1l-102 2h-9q-12 0 -15 3.5t-3 20.5v619v7q0 11 3 13t16 3l186 6h5q10 0 11.5 -2.5t2.5 -15.5q2 -40 2 -63q0 -9 -1.5 -10.5t-9.5 -1.5h-3h-110q-11 0 -13 -2.5t-2 -13.5l-3 -148v-5q0 -5 2 -6.5t10 -1.5l112 -1
q10 0 12.5 -1t2.5 -6v-8l-4 -66q-1 -10 -3 -11.5t-12 -2.5l-91 -4q-7 0 -9 -2t-2 -8v-4l1 -167q0 -12 2 -14t13 -2h54l58 -1q9 0 11.5 -2t2.5 -9v-7z" />
    <glyph glyph-name="F" unicode="F" horiz-adv-x="280" 
d="M169 588h-21q-23 0 -23 -22v-2l2 -91q0 -13 2.5 -15t15.5 -2q58 -2 71 -2h5q8 0 10.5 -3t2.5 -14l3 -59v-6q0 -9 -3.5 -11t-16.5 -2q-18 -1 -48.5 -2.5t-39.5 -1.5q-12 -1 -14.5 -2t-2.5 -7q0 -54 -0.5 -158t-0.5 -158q0 -17 -3 -20t-20 -4l-31 -2h-12q-12 0 -16 4.5
t-4 14.5v16v3q2 344 2 511v130q0 15 4.5 18.5t24.5 3.5h180h10q7 0 9 -3t3 -13l3 -86v-6q0 -7 -2.5 -9t-8.5 -2q-17 0 -39.5 1t-41.5 1z" />
    <glyph glyph-name="G" unicode="G" horiz-adv-x="353" 
d="M274 101q-6 -7 -26 -32.5t-30.5 -36.5t-30.5 -22.5t-41 -11.5q-124 0 -124 308q0 20 -1 61t-1 61q0 96 15 152q17 64 55 101.5t91 37.5q34 0 59 -16.5t39 -39.5t23 -62t12.5 -69t6.5 -76v-4q0 -16 -14 -18l-62 -5h-8q-7 0 -7 14q0 24 -0.5 39t-2 41.5t-5 43t-8 34.5
t-12.5 27t-19 9q-36 0 -52.5 -25.5t-19.5 -79.5q-5 -80 -5 -143q0 -111 17 -213q4 -33 18 -53t32 -21h3q27 0 41 44q6 18 12 90q-11 14 -54 24q-9 2 -11 5t-2 14v52q0 8 2.5 10.5t12.5 3.5q88 9 115 9h15q12 0 16 -4t5 -20q3 -75 3 -150q0 -24 -0.5 -71.5t-0.5 -70.5v-5
q0 -7 -2.5 -9.5t-10.5 -3.5l-27 -2h-8q-8 0 -8 15v68z" />
    <glyph glyph-name="H" unicode="H" horiz-adv-x="333" 
d="M222 23v8l-2 232q0 12 -2.5 14t-15.5 3l-80 3h-6q-10 0 -13 -3t-3 -12v-11l2 -224v-2q0 -12 -2.5 -16t-10.5 -4h-12q-4 0 -16.5 0.5t-16.5 0.5q-10 1 -13 3.5t-3 9.5v11l-3 610v4q0 25 16 25h56q15 0 15 -10v-280q0 -17 2.5 -19.5t18.5 -3.5l54 -2q3 0 7 -0.5t5 -0.5
q7 0 9 3.5t2 13.5v3l-4 274v12q0 10 3 12t16 4l63 6q2 0 4.5 0.5t3.5 0.5q8 0 10 -2.5t2 -11.5v-15l1 -633v-1q0 -13 -2.5 -16t-12.5 -3h-52q-13 0 -16.5 3.5t-3.5 13.5z" />
    <glyph glyph-name="I" unicode="I" horiz-adv-x="138" 
d="M53 679l34 -1q17 -1 21.5 -5t4.5 -18v-10v-595q0 -23 -4 -27t-27 -7l-29 -4q-14 -2 -17 -2q-7 0 -8.5 5t-1.5 23v318v285v19q0 11 4 15t16 4h7z" />
    <glyph glyph-name="J" unicode="J" horiz-adv-x="332" 
d="M94 333q16 -1 16 -14v-16q0 -221 52 -221q49 0 49 219v51q0 21 -0.5 70t-0.5 79q0 26 -0.5 80t-0.5 77v16q0 15 5 18.5t27 3.5h43q17 0 21 -3t4 -14v-16q0 -15 -0.5 -46t-0.5 -46q2 -228 2 -342q0 -57 -12 -112q-11 -52 -47.5 -82t-86.5 -30q-35 0 -61 12.5t-42 38
t-26 51.5t-14.5 64.5t-5.5 65.5t-1 65q0 19 4.5 26.5t17.5 7.5q1 0 58 -3z" />
    <glyph glyph-name="K" unicode="K" horiz-adv-x="311" 
d="M47 721l41 4q5 1 12 1q10 0 10 -19l1 -170q0 -27 2 -77q1 -23 3 -23q1 0 2.5 3.5t3.5 10.5t4 11q19 45 46.5 129t33.5 100q3 8 4 10.5t3.5 6.5t6.5 4.5t10 0.5h8l35 -2q24 -1 24 -8q0 -1 -4 -15q-17 -50 -54 -142.5t-51 -132.5q5 -4 24.5 -14t25.5 -16q5 -4 9 -9t7 -8.5
t5.5 -9t4.5 -8t3.5 -10t2.5 -9.5t2.5 -11.5t2 -11.5t2 -13.5t1.5 -13.5q6 -40 19 -249v-8q0 -6 -2.5 -8t-11.5 -3l-62 -6q-2 0 -5.5 -0.5t-4.5 -0.5q-7 0 -7 9q-1 2 -1 5v5q-2 46 -10 132q-1 9 -2 27t-2 31.5t-3 31.5t-4.5 31t-6 25t-9 18.5t-11.5 7.5q-18 3 -27 3t-9 -7
q0 -26 2 -62q4 -120 9 -226v-8q0 -9 -2.5 -11.5t-9.5 -2.5h-9h-4l-51 -1h-8q-13 0 -15.5 4t-2.5 22q-2 264 -2 396q0 43 0.5 129t0.5 130v6q0 13 3 17t17 5z" />
    <glyph glyph-name="L" unicode="L" horiz-adv-x="236" 
d="M52 701h43q22 0 26 -3.5t4 -22.5v-5l-7 -528v-2v-1v-5q0 -13 3 -16t19 -4l64 -6h4q15 -2 17 -8l1 -10v-4l-1 -46v-8.5t-1 -6.5t-1 -4.5t-2 -3t-2.5 -2t-4.5 -1.5t-5 -1h-7h-8q-144 -3 -146 -3q-13 0 -17 6t-4 27l-1 626v13q0 13 4 16t22 3z" />
    <glyph glyph-name="M" unicode="M" horiz-adv-x="416" 
d="M31 28l-5 658v10v8q0 14 4 17t22 3h18q8 0 13.5 -0.5t9 -2.5t6 -3t4.5 -5t2.5 -6.5t2.5 -9t3 -10.5q13 -43 38.5 -127.5t39.5 -128.5q9 -29 13 -29q3 0 15 34q14 36 44.5 123t42.5 118q9 25 15 29q7 5 22 8q20 5 23 5q2 0 4 -0.5t3 -2t1.5 -2.5t0.5 -4t0.5 -5t0.5 -6v-7
l26 -632q0 -4 0.5 -9t0.5 -7q0 -10 -5 -12.5t-22 -3.5l-41 -2h-5q-18 0 -22.5 8.5t-4.5 37.5l-5 207l-2 114q0 37 -2 37q-1 0 -14 -38q-27 -79 -61 -153q-13 -30 -15 -30q-5 0 -14 27l-59 178q-10 28 -11 28t-1 -8v-26v-185l1 -199v-9q0 -18 -6 -22t-27 -4h-6h-18
q-21 1 -25.5 4t-4.5 17v18z" />
    <glyph glyph-name="N" unicode="N" horiz-adv-x="363" 
d="M254 297q0 64 -1.5 192.5t-1.5 191.5v5q0 16 3.5 19t20.5 4l25 2h16q12 0 15.5 -5t3.5 -24v-20q1 -69 1 -208t1 -208l1 -167v-17q0 -17 -5.5 -21t-30.5 -4h-33q-12 0 -19.5 1.5t-12 2t-7.5 6.5t-4 7.5t-3 13t-3 15.5q-11 47 -43.5 174.5t-48.5 197.5q-5 -43 -5 -102
q0 -45 2 -136t2 -137q0 -6 -0.5 -17t-0.5 -16q-1 -31 -6.5 -36.5t-36.5 -5.5h-25q-21 0 -26.5 5t-5.5 20v22v617v15q0 12 4 15.5t21 3.5h48q6 0 10 -0.5t7 -0.5t5 -1.5t3.5 -2t2.5 -4t1.5 -4.5t1.5 -6.5t2 -8.5q5 -20 28 -115t44 -172.5t41 -128.5l7 -13q2 0 2 27v24z" />
    <glyph glyph-name="O" unicode="O" horiz-adv-x="403" 
d="M387 324q0 -326 -185 -326q-49 0 -86.5 31t-58 80.5t-30.5 104t-10 110.5q0 52 5 100.5t18.5 99.5t34.5 88t56.5 61t80.5 24q40 0 70.5 -16.5t49 -48.5t30.5 -65.5t17 -81.5t6.5 -81.5t1.5 -79.5zM266 112q24 41 24 179v141q0 134 -30 171q-10 10 -60 10
q-17 0 -32.5 -5.5t-17.5 -14.5q-30 -69 -30 -232q0 -193 26 -249q7 -15 43 -15h23h22q24 0 32 15z" />
    <glyph glyph-name="P" unicode="P" horiz-adv-x="307" 
d="M124 327l-2 -281q0 -21 -3.5 -25t-24.5 -4h-38h-11q-10 0 -11.5 3.5t-2.5 22.5q-7 280 -7 493q0 66 2 154v9q1 16 6 18l12 1q80 0 132 -4q41 -4 71 -30t37 -67q8 -43 8 -79q0 -80 -39.5 -133.5t-112.5 -59.5q-12 -1 -14 -3t-2 -15zM208 548q0 56 -21 76.5t-70 20.5
q-8 0 -10 -2.5t-2 -10.5v-6l3 -171q0 -15 7 -15q45 0 69 34t24 74z" />
    <glyph glyph-name="Q" unicode="Q" horiz-adv-x="365" 
d="M243 150q6 24 6 54q0 200 -16 324q0 2 -1.5 15.5t-2.5 18.5t-3 16.5t-5 16.5t-7.5 12t-11.5 10t-15 3q-31 0 -52 -12q-13 -6 -17 -13.5t-6 -28.5q-13 -200 -13 -250q0 -91 13 -175q2 -14 5.5 -17t16.5 -3h56q-13 52 -43 92q-1 1 -1 4q0 7 14 7q7 0 17 -10q36 -34 54 -89
q7 6 12 25zM161 -1q-47 0 -78.5 38t-44.5 95q-19 80 -20 158q0 10 -0.5 39.5t-0.5 39.5q0 90 12 161q12 73 56 127q37 46 99 46q32 0 57.5 -13t41 -31.5t27 -48t17 -53t10.5 -55.5q12 -75 12 -189v-43q-2 -70 -22 -126q-30 -82 -90 -129q-1 -4 -11 -27t-18.5 -49t-8.5 -45
q0 -42 38 -42q61 0 61 37q0 15 -10 20t-22.5 4t-22.5 7t-10 27q0 51 56 51q54 0 54 -76q0 -108 -100 -108q-39 0 -61 21t-22 60q0 16 16 52.5t17 51.5h-32z" />
    <glyph glyph-name="R" unicode="R" horiz-adv-x="331" 
d="M246 1q-17 0 -20 3.5t-3 20.5q-2 156 -30 264q-12 17 -65 22q-3 0 -7.5 0.5t-5.5 0.5q-11 0 -11 -7q0 -8 1 -15l3 -21q6 -44 9 -228v-14q0 -13 -4.5 -15.5t-25.5 -3.5q-32 -2 -38 -2q-15 0 -19 4t-4 17v23q0 28 0.5 84t0.5 84v204q0 175 -1 263v5q0 21 4 25.5t26 6.5
q27 3 47 3q57 0 105 -12q58 -16 80 -55.5t22 -110.5v-1q0 -102 -26 -130q-19 -20 -58.5 -35.5t-40.5 -16.5q13 0 73 -28q18 -9 28 -33q5 -12 8 -26t4 -23.5t3 -28t4 -29.5q2 -12 10 -161v-11q0 -16 -3.5 -19.5t-17.5 -3.5h-48zM128 422h5q50 0 70 24q8 50 8 102q0 35 -6 64
q-4 20 -31 23q-6 1 -17 1q-16 0 -23 -1q-12 -1 -15 -3.5t-3 -11.5v-15v-3l-1 -151v-18q0 -11 13 -11z" />
    <glyph glyph-name="S" unicode="S" horiz-adv-x="351" 
d="M162 -1q-65 0 -97 61.5t-32 147.5v22q1 14 2 18t4.5 6t15.5 3l60 5q6 1 14 1t10 -4t2 -19v-4v-45v-68v-3q0 -16 7 -21q11 -8 25 -8q26 0 47 7q17 6 17 44q0 119 -70 155q-42 22 -56 32q-97 71 -97 192q0 35 11 82q14 59 55 91.5t102 32.5q151 0 151 -229q0 -23 -3 -47
q-1 -12 -14 -12q-2 0 -6 0.5t-7 0.5l-35 4q-21 2 -23 6q-2 3 -2 18v6q-3 165 -68 165q-36 0 -53.5 -40t-17.5 -84q0 -19 2.5 -34t9.5 -27.5t12 -20t18.5 -17.5t18.5 -13.5t23.5 -13t23.5 -12.5q53 -29 74 -77.5t21 -125.5q0 -83 -36.5 -129t-108.5 -46z" />
    <glyph glyph-name="T" unicode="T" horiz-adv-x="323" 
d="M28 620q-18 1 -18 19q0 11 5 56q3 22 30 24l246 -17q8 -1 11.5 -1.5t6.5 -4.5t3 -12q2 -22 2 -32q0 -6 -1 -10.5t-2.5 -7t-5 -3.5t-5.5 -1.5t-8 -0.5h-8h-55h-1q-8 0 -11 -2.5t-3 -12.5q0 -22 -1.5 -118.5t-1.5 -149.5v-190v-117q0 -18 -3 -21.5t-19 -4.5l-54 -3
q-1 0 -3 -0.5t-3 -0.5q-9 0 -13 5.5t-4 21.5v49v305q0 124 -1 181v30q-1 16 -17 16z" />
    <glyph glyph-name="U" unicode="U" horiz-adv-x="344" 
d="M123 617q-2 -37 -2 -102v-66v-96q0 -272 48 -272q56 0 56 228v64q0 104 -6 272q0 6 -0.5 13.5t-0.5 9.5q0 7 2.5 10t7 4t15.5 2l65 6h3q5 0 6 -4.5t2 -22.5q2 -64 2 -133q0 -30 0.5 -94.5t0.5 -96.5v-95q0 -48 -2.5 -80.5t-11 -67t-24 -55t-43.5 -33.5t-67 -13
q-96 0 -129 113q-16 60 -20 155q-2 64 -2 124v51q0 110 5 174v6q2 26 10 29q4 2 11 2h67q7 0 7 -12v-20z" />
    <glyph glyph-name="V" unicode="V" horiz-adv-x="327" 
d="M39 683h28q8 0 13 -0.5t9 -2.5t5.5 -2.5t3 -5t2 -6.5t1 -10t1.5 -12q20 -186 43 -426q2 -25 3.5 -24.5t5.5 23.5l78 461q0 9 6.5 14.5t14.5 5.5l51 3h6q15 0 15 -10q0 -1 -0.5 -2.5t-0.5 -3.5q-9 -53 -33.5 -203.5t-45 -258t-43.5 -199.5q-5 -18 -11 -20q-5 -2 -19 -2
h-58q-15 1 -20 5t-7 17l-75 628q-2 10 -2 14q0 16 29 17z" />
    <glyph glyph-name="W" unicode="W" horiz-adv-x="530" 
d="M504 697q2 0 6.5 -0.5t5.5 -0.5t4 -1t3.5 -1.5t1.5 -2.5t1 -4v-6q0 -8 -5 -33q-2 -12 -18 -99t-20 -110.5t-16 -95t-17 -110t-11.5 -96t-10.5 -107.5q0 -3 -0.5 -5.5t-1 -4.5t-2 -3.5t-1.5 -2t-2.5 -1.5t-3.5 -1t-4.5 -1t-4.5 -1q-28 -7 -48 -7q-19 0 -31 5
q-10 4 -12.5 8.5t-4.5 17.5q-19 180 -50 341q-4 22 -6 22q-1 0 -6 -23q-12 -61 -24 -173.5t-18 -154.5q-2 -14 -6 -18t-18 -5q-10 -1 -30 -1q-30 0 -45 1q-5 0 -8.5 0.5t-6 2t-4 2.5t-2.5 4t-1 4.5t-1 7t-1 8.5l-78 599v3q0 16 20 19h56h7t5 -1.5t3.5 -2t2 -3.5t1 -4t1 -5.5
t0.5 -6.5q8 -63 23.5 -177.5t21.5 -161.5q3 -18 5 -18q1 0 5 21q11 47 32 171.5t30 168.5q3 14 7.5 17.5t19.5 6.5q30 6 37 6t10 -12v-2q14 -86 17 -123q3 -26 11 -75.5t11 -71.5q8 -61 19 -113q4 -18 5 -18q2 0 5 20q12 65 32 193t31 192q3 20 9 23t19 3q9 0 29 -1.5
t22 -1.5z" />
    <glyph glyph-name="X" unicode="X" horiz-adv-x="316" 
d="M223 689q30 3 64 3q17 0 17 -9q0 -5 -3 -15q-49 -214 -69 -289l76 -346v-1q0 -14 -6 -15q-15 -2 -38.5 -5t-34.5 -4q-18 -1 -22 21l-52 271q-3 14 -5 14q-3 0 -4 -14l-54 -270q-3 -14 -7 -15q-2 -1 -6 -1h-33h-28q-10 0 -10 5q0 3 2 11q7 41 38.5 168.5t36.5 175.5
q-14 85 -67 295q-1 4 -1 11q0 15 17 15h3l35 -2q23 -4 28 -25l46 -206q5 -22 7 -22t9 22q16 54 50 205q1 4 2 8.5t1 6.5t1 4t2.5 2.5t4.5 0.5z" />
    <glyph glyph-name="Y" unicode="Y" horiz-adv-x="376" 
d="M24 645l60 1h3q22 0 28 -21q2 -7 12.5 -44t15.5 -52t16 -42.5t24 -49.5q5 -11 8 -11t7 14q10 32 23.5 79t23.5 77.5t25 71.5q4 11 8 14t18 3l65 1q16 -2 16 -11q0 -4 -1 -6q-90 -230 -135 -346q-8 -19 -8 -42q0 -54 4.5 -142t5.5 -115v-13q0 -7 -3.5 -9t-15.5 -2h-82
q-13 0 -17 2t-4 9q0 1 0.5 5t0.5 7q9 204 9 235q0 72 -32 136q-21 41 -50.5 117.5t-39.5 100.5q-8 16 -8 22q0 11 23 11z" />
    <glyph glyph-name="Z" unicode="Z" horiz-adv-x="265" 
d="M20 36q-2 70 -2 104q0 12 6 32q16 60 59.5 214.5t60.5 225.5h-94q-23 2 -23 24l2 40q0 5 0.5 8t1.5 5.5t1.5 3.5t3.5 2t4.5 1h7h8.5q12 0 32 1t37.5 1.5t35.5 0.5q20 0 66 -2q11 -1 14.5 -3.5t3.5 -9.5v-11q-2 -65 -8 -83q-54 -152 -117 -424q0 -1 -1.5 -6t-1.5 -8
q0 -7 17 -8q31 -2 97 -2h1q12 0 12 -9q0 -1 -0.5 -3t-0.5 -4l-14 -79q-2 -12 -8 -16t-21 -5q-129 -9 -141 -9h-27q-12 0 -12 19z" />
    <glyph glyph-name="bracketleft" unicode="[" horiz-adv-x="228" 
d="M43 9q-11 0 -14 4t-3 17v78q0 51 1.5 181.5t1.5 190.5q0 66 -1 99v120q0 10 8 16t16 6q20 0 49 -0.5t50 -0.5l47 1h2q8 0 8 -7v-4l-1 -37q0 -10 -3 -11.5t-14 -1.5l-22 -1h-28q-12 0 -15 -2.5t-3 -14.5q0 -53 3 -572h27l48 1h1q8 0 8 -8v-4v-39q0 -10 -3.5 -11.5
t-14.5 -1.5h-22q-26 0 -126 2z" />
    <glyph glyph-name="backslash" unicode="\" horiz-adv-x="346" 
d="M72 733q2 0 4 0.5t3 0.5q20 0 25 -19q27 -84 103.5 -323t116.5 -360q6 -20 6 -23q0 -5 -7 -5q-4 0 -18 2l-31 4q-24 3 -29.5 7t-12.5 27l-209 655q-1 2 -4.5 11.5t-3.5 12.5q0 8 22 9z" />
    <glyph glyph-name="bracketright" unicode="]" horiz-adv-x="228" 
d="M184 2q-100 -2 -127 -2h-22h-8.5t-5 1t-4 4t-0.5 8v39v4q0 7 9 7h1l48 -1h26q3 519 3 573q0 11 -3 14t-15 3h-28l-22 1q-8 0 -10.5 0.5t-4.5 3t-2 9.5l-1 36v5q0 7 9 7h2l47 -1q21 0 49.5 0.5t48.5 0.5q9 0 17 -6t8 -16v-121q-1 -33 -1 -98q0 -60 1.5 -191t1.5 -182v-77
q0 -13 -3 -17t-14 -4z" />
    <glyph glyph-name="asciicircum" unicode="^" horiz-adv-x="251" 
d="M84 758q1 0 26.5 1.5t40.5 1.5q27 0 28 -4q12 -29 47 -101q1 -2 1 -4q0 -8 -10 -8l-47 1q-4 0 -6 0.5t-3.5 0.5t-3 1.5t-1.5 2t-1.5 3.5t-1.5 4l-24 50l-26 -44q-9 -16 -19 -16h-2l-42 1q-15 0 -15 8t5 15q6 11 14.5 26.5t13.5 24.5l10 18t9 13.5t7 4.5z" />
    <glyph glyph-name="underscore" unicode="_" horiz-adv-x="381" 
d="M29 -63v13v16q1 17 4 22t13 5h1l282 -5q14 0 18 -3t4 -15v-4l-1 -23q-1 -23 -9 -25q-3 -1 -23 -2l-243 -2q-4 0 -11 -0.5t-9 -0.5q-26 0 -26 24z" />
    <glyph glyph-name="grave" unicode="`" horiz-adv-x="236" 
d="M44 780q-14 14 -14 20q0 8 29 10h52q8 0 13 -2t7.5 -4.5t6.5 -8.5t7 -10l56 -86q2 -4 2 -5q0 -8 -12 -8l-53 1q-14 0 -24 12q-3 4 -17 20.5l-28 33t-25 27.5z" />
    <glyph glyph-name="a" unicode="a" horiz-adv-x="362" 
d="M344 -12l-43 -5q-12 -2 -13 -2q-6 0 -8 4t-4 15l-29 237q-2 14 -5 17.5t-15 3.5h-6l-67 -2q-7 0 -10 -0.5t-5 -3t-2.5 -5t-0.5 -9.5q-2 -33 -5 -98t-5 -98q0 -11 -0.5 -14t-3 -7.5t-7 -5.5t-13.5 -1l-73 -2h-5q-13 0 -13 7q0 8 1 15q4 35 34 281t46 366q1 12 5 15.5
t16 3.5h19q14 0 61 1t59 1q28 0 34.5 -4.5t8.5 -28.5q22 -238 26 -286q5 -65 19 -200t18 -172q1 -6 1 -13q0 -8 -15 -10zM160 587q-20 -112 -26 -206v-8q0 -6 10 -6h76q7 0 7 4v10l-19 203q-1 14 -15 14h-8h-11q-12 0 -14 -11z" />
    <glyph glyph-name="b" unicode="b" horiz-adv-x="297" 
d="M52 707q40 5 69 5q92 0 129 -43t37 -132q0 -50 -26.5 -87.5t-73.5 -55.5q102 -18 102 -194q0 -58 -21 -110q-36 -80 -123 -80q-11 0 -41.5 1t-46.5 1q-17 0 -21.5 3.5t-4.5 15.5v14q0 21 0.5 62t0.5 62q0 252 -12 507v7q0 5 0.5 8.5t2 6t2.5 4t4.5 2.5t5.5 1t8 1t9 1z
M219 188q0 7 0.5 25t0.5 25q0 25 -1.5 38.5t-6.5 28.5t-17.5 22t-33.5 7q-42 0 -58 -6l3 -39l9 -128l1 -42q16 -2 32 -2q42 0 56.5 16t14.5 55zM101 455q5 0 20.5 -0.5t20.5 -0.5q26 0 38 3q34 6 34 75q0 36 -5 64q-6 31 -26 31q-39 0 -80 -9z" />
    <glyph glyph-name="c" unicode="c" horiz-adv-x="343" 
d="M126 507q-13 -123 -13 -176q0 -115 11 -201q4 -25 30 -25q6 0 20.5 0.5t21.5 0.5q17 0 20.5 8.5t3.5 45.5v129q0 9 3 11.5t16 2.5h66q13 0 17 -2t4 -10q0 -124 -29 -197q-21 -52 -53.5 -77.5t-82.5 -25.5q-33 0 -58 16.5t-40 49t-24.5 65t-13.5 79.5t-5 77t-1 73
q0 56 7.5 112t24.5 115t52.5 96t84.5 37q63 0 95.5 -57.5t32.5 -136.5q0 -3 -0.5 -9t-0.5 -9v-5.5t-0.5 -5t-1 -3.5t-1.5 -3t-3.5 -2t-5.5 -2q-5 -1 -55 -10q-5 -1 -11 -2.5t-7 -1.5q-4 0 -5 21v26q0 112 -41 112q-9 0 -16.5 -4t-12.5 -9.5t-9.5 -15.5t-7 -17.5t-5 -20
t-3.5 -18.5t-2.5 -17.5t-1.5 -13.5z" />
    <glyph glyph-name="d" unicode="d" horiz-adv-x="336" 
d="M28 63v23l-6 581v11q0 10 2.5 13t14.5 5q47 10 84 10q79 0 122 -31q26 -20 42 -50.5t22 -76.5t7.5 -77t1.5 -90v-68q0 -46 -3.5 -84t-14.5 -81t-29.5 -71.5t-52.5 -48t-79 -19.5q-9 0 -40 0.5t-41 0.5q-19 1 -25 6.5t-6 19.5q0 3 0.5 12t0.5 15zM220 151q18 72 18 227
q0 106 -13.5 178.5t-42.5 72.5q-50 0 -65 -6q-14 -5 -14 -22v-2q1 -112 7 -270t11 -203q3 0 34.5 2t43.5 3t15 4.5t6 15.5z" />
    <glyph glyph-name="e" unicode="e" horiz-adv-x="308" 
d="M51 678l211 -3q19 0 19 -8q0 -1 -0.5 -4.5t-0.5 -5.5l-6 -63q-2 -17 -6 -19q-4 -1 -16 -1h-112q-15 0 -15 -11v-11l-1 -108v-8q0 -7 2.5 -8.5t13.5 -1.5h96h9q9 0 11.5 -3t2.5 -15v-50q0 -20 -3 -23t-22 -4q-14 -1 -44 -1h-60h-9q-11 0 -14 -3.5t-3 -17.5l-1 -146
q0 -20 3 -23t23 -4l142 -8q15 -1 18 -4t3 -19v-69q0 -17 -3 -20t-19 -3h-215h-7t-5 1l-3 1.5t-1.5 3t-1 3.5t-0.5 5.5v7.5l-12 622q0 13 2 17t10 4h14z" />
    <glyph glyph-name="f" unicode="f" horiz-adv-x="286" 
d="M30 42q-7 306 -7 496q0 54 2 138q0 12 2 15.5t9 3.5q34 0 108.5 -1.5t109.5 -1.5q9 0 11 -2t3 -13q2 -48 2 -65q0 -7 -3 -9t-14 -2h-3q-22 0 -66 1.5t-66 1.5q-9 0 -11.5 -3.5t-2.5 -15.5v-91q0 -13 3 -15.5t17 -3.5l101 2h5q12 0 15 -3t3 -15v-41q0 -19 -3 -22.5
t-20 -4.5q-2 0 -35.5 -2.5t-50.5 -3.5q-14 -1 -16 -3t-2 -16l-2 -328q0 -22 -9 -22l-58 -3h-4q-10 0 -13.5 6t-4.5 23z" />
    <glyph glyph-name="g" unicode="g" horiz-adv-x="362" 
d="M316 456l-61 -7q-10 -2 -11 -2q-7 0 -8 19q-2 67 -15 147q-4 23 -36 23q-23 0 -29 -14q-20 -45 -33.5 -142t-13.5 -191q0 -97 12 -149q7 -28 40 -28q48 0 54 18q21 63 21 110q0 11 -4 17h-8q-6 0 -17 -0.5t-12 -0.5q-7 0 -19.5 -1t-18.5 -1q-10 0 -10 10v10l6 91
q1 15 3 17.5t17 2.5q12 0 40 1t45 1q40 0 66 -3q6 -1 8 -1.5t4.5 -1.5t3 -3.5t0.5 -6.5l-2 -338q0 -24 -12 -29q-8 -3 -17 -3q-13 0 -16.5 4t-3.5 18l-3 125q-1 -4 -6 -22t-7 -23.5t-7 -21t-9 -21.5t-11 -18t-14.5 -16.5t-17 -11t-21.5 -9t-26 -2.5q-39 0 -69.5 28t-47 72.5
t-24.5 91t-8 90.5q0 46 0.5 75t4.5 77.5t10.5 81t20 70.5t32 60.5t48 38t66.5 15.5q134 0 134 -223v-7q0 -6 -0.5 -8.5t-2.5 -4.5t-5 -2.5t-10 -1.5z" />
    <glyph glyph-name="h" unicode="h" horiz-adv-x="348" 
d="M85 -1q-18 -2 -26 -2h-19q-3 0 -5 0.5t-3.5 1t-2.5 2t-1.5 2.5t-0.5 3.5t-0.5 4t-0.5 6v6.5v645q1 16 2.5 17t6.5 1h6l53 -2q12 -1 14.5 -3.5t3.5 -14.5q2 -52 6 -145t4 -102q1 -22 7 -22q8 0 31.5 0.5t32.5 0.5h12.5t5.5 4.5t2 5.5t1 12q4 54 8 276q0 13 2.5 15.5
t15.5 2.5l61 2q22 0 22 -16v-671q0 -18 -1.5 -20.5t-15.5 -3.5l-64 -5h-9q-7 0 -9 2.5t-2 13.5v6q0 19 -0.5 55.5t-0.5 54.5q0 10 0.5 31t0.5 31v87q0 4 -0.5 7t-3.5 4t-4 1.5t-5.5 1t-5.5 0.5q-2 0 -8 0.5t-10 0.5q-24 0 -74 -4q-15 -1 -15 -10v-9q1 -19 4 -248v-11
q0 -8 -2.5 -11t-12.5 -4z" />
    <glyph glyph-name="i" unicode="i" horiz-adv-x="149" 
d="M52 675l54 -2q11 -1 14 -3.5t3 -11.5v-5l1 -602v-10q0 -7 -2.5 -8.5t-12.5 -3.5l-63 -10h-8q-8 0 -8 13v7l-4 609q0 18 2 22.5t13 4.5h11z" />
    <glyph glyph-name="j" unicode="j" horiz-adv-x="338" 
d="M237 702h59q10 0 12.5 -2.5t2.5 -9.5v-7v-8q0 -79 -0.5 -233t-0.5 -232v-75q0 -59 -40.5 -105.5t-97.5 -46.5q-36 0 -62.5 7t-43.5 23t-28 34.5t-16 49t-6.5 58t-1.5 69.5v86v6q0 9 2.5 11t12.5 4q9 1 40.5 5.5t50.5 4.5q7 0 7 -10v-8v-19l2 -133q0 -96 51 -96
q20 0 33.5 19.5t13.5 42.5q0 75 -4 224t-4 226q0 31 2 95q0 1 0.5 5.5t0.5 5t0.5 3.5t1.5 3t2.5 1.5t4 1.5h6.5z" />
    <glyph glyph-name="k" unicode="k" horiz-adv-x="338" 
d="M41 672h40h8q16 0 18.5 -2.5t3.5 -19.5q0 -8 2.5 -72t2.5 -98q0 -38 -1 -55q30 42 68 134q5 13 29 68q4 9 27 52q6 12 11 14q3 1 9 1l66 6h4q6 0 6 -4q0 -3 -5 -13q-50 -109 -112 -223q-15 -33 -15 -50q0 -13 10 -43q10 -31 88 -269q12 -37 28 -91q3 -9 3 -13
q0 -6 -14 -10q-11 -4 -51 -12q-6 -1 -13 -1q-3 0 -5 1t-3 3.5l-2 5t-2 8t-2 9.5q-2 7 -14.5 64t-20.5 84q-15 48 -41 165q-3 13 -4 13q-2 0 -7 -9q-13 -22 -13 -28q0 -10 -0.5 -48.5t-0.5 -62.5v-154v-9q0 -5 -0.5 -7t-2.5 -3t-7 -1h-7q-38 2 -77 2q-7 0 -9.5 0.5t-3.5 2.5
t-1 7v5q0 39 -3.5 210t-3.5 264q0 48 2 146v7v8q0 18 15 18z" />
    <glyph glyph-name="l" unicode="l" horiz-adv-x="251" 
d="M24 33l5 640q0 8 0.5 11t2.5 4.5t7 1.5l76 -3q15 0 15 -11v-7l-9 -506v-8q0 -9 3.5 -11.5t15.5 -3.5q52 -3 83 -3q13 0 14 -15l3 -80v-7q0 -13 -25 -15l-176 -3q-15 0 -15 9v7z" />
    <glyph glyph-name="m" unicode="m" horiz-adv-x="452" 
d="M88 -11h-11h-40q-5 0 -5 13l-7 612v57q0 9 1.5 10.5t9.5 2.5l73 8q2 0 4 0.5t3 0.5q4 0 7 -9l67 -250q3 -11 7 -11q1 0 10 15q51 81 120 254q3 9 13 9h6h71q7 0 9 -1.5t2 -6.5v-6l-5 -673q0 -11 -2.5 -13t-11.5 -3h-3l-70 -5q-2 0 -4 -0.5t-3 -0.5q-7 0 -7 8v5l15 503
q-20 -43 -66 -121.5t-61 -108.5q-8 -14 -10 -14q-5 0 -10 10l-94 204l6 -474v-3q0 -12 -14 -12z" />
    <glyph glyph-name="n" unicode="n" horiz-adv-x="398" 
d="M28 645v36q0 7 2 8.5t11 1.5h56q14 0 17.5 -3t6.5 -14q118 -396 133 -441q3 -10 9 -10t6 15q0 20 -0.5 59.5t-0.5 59.5v346q0 9 13 9h73q9 0 11.5 -1.5t2.5 -7.5q0 -25 -1 -85.5t-1 -94.5q0 -82 4 -249.5t4 -247.5q0 -9 -3.5 -11t-16.5 -2q-15 0 -43 0.5t-45 0.5
q-4 0 -7 0.5t-5.5 1.5t-3.5 1.5t-2 3t-1.5 4t-1 5t-1.5 5.5q-9 31 -24 88t-28 104t-27 86q-6 17 -17.5 59.5t-20.5 65.5q-5 12 -6 12q-2 0 -2 -116v-76q0 -38 0.5 -112t0.5 -109q0 -10 -3 -13.5t-12 -5.5q-28 -7 -61 -9q-19 0 -19 16v68q0 92 1.5 275.5t1.5 276.5z" />
    <glyph glyph-name="o" unicode="o" horiz-adv-x="369" 
d="M349 346q0 -42 -0.5 -69.5t-4 -67.5t-10 -66t-19 -55.5t-30 -46.5t-44 -28.5t-60.5 -11.5q-51 0 -85.5 32.5t-50 87.5t-21.5 104.5t-6 105.5q0 45 1.5 80t7 83t18 82.5t31.5 66.5t50.5 49t72.5 17q34 0 59.5 -14.5t41.5 -42.5t26 -59.5t15 -77t6.5 -82.5t1.5 -87z
M104 333q0 -143 12 -186q6 -24 16.5 -31t30.5 -7q19 0 30 1q32 3 40.5 14.5t10.5 39.5q7 109 7 195q0 80 -4 169q-1 31 -3.5 47t-14.5 30.5t-35 14.5h-1q-34 0 -46.5 -9t-20.5 -50q-22 -100 -22 -228z" />
    <glyph glyph-name="p" unicode="p" horiz-adv-x="317" 
d="M28 432q0 33 -0.5 99.5t-0.5 99.5q0 9 0.5 30t0.5 32q0 17 2.5 20t16.5 5q38 5 69 5q30 0 63 -5q47 -8 72.5 -38t40.5 -83q12 -43 12 -87q0 -85 -42 -137.5t-119 -60.5q-1 0 -9 -0.5t-13.5 -2t-5.5 -3.5v-4q0 -26 0.5 -73t0.5 -73v-127q0 -13 -3 -16t-16 -5
q-22 -2 -36 -2q-3 0 -9 0.5t-9 0.5q-11 0 -13.5 2.5t-2.5 12.5v3v151v27q0 40 0.5 114.5t0.5 114.5zM130 436q0 -11 3 -14.5t12 -3.5q3 0 30 5q15 3 19.5 8t10.5 20q18 49 18 91q0 50 -21 94q-6 12 -24 12q-6 0 -48 -3v-97v-97v-15z" />
    <glyph glyph-name="q" unicode="q" horiz-adv-x="407" 
d="M394 352q0 -99 -29.5 -190t-85.5 -138q0 -3 -3 -17.5t-4.5 -31t-1.5 -35.5q0 -21 10 -45t27 -24q26 0 44 14.5t18 39.5v7q-1 10 -8 18.5t-15 8.5q-5 0 -14 -4t-13 -4q-7 0 -12.5 15.5t-5.5 23.5q0 21 17.5 32.5t38.5 11.5q26 0 40 -22.5t14 -52.5q0 -56 -27 -89t-78 -33
q-33 0 -54.5 26.5t-21.5 66.5v14q0 45 6 64q-38 -15 -59 -15q-45 0 -78 32.5t-49.5 86t-24 106t-7.5 106.5q0 72 9.5 132.5t31.5 116.5t65 87.5t103 31.5h2q48 0 82.5 -35t51 -91.5t24 -109t7.5 -104.5zM213 201q18 -15 28 -28.5t13 -20.5t10 -26q23 61 23 246q0 36 -3.5 74
t-12 78.5t-26 66.5t-41.5 26h-1q-28 0 -48 -37t-28.5 -93.5t-12 -102.5t-3.5 -85q0 -209 90 -209q18 0 24 3q-2 6 -4.5 18t-3.5 15.5t-4 11.5t-5.5 12t-7 11t-11 14t-15.5 16q-2 1 -2 5t10 9t15 5q9 0 16 -9z" />
    <glyph glyph-name="r" unicode="r" horiz-adv-x="342" 
d="M305 -12q-12 -1 -55 -4h-3q-15 0 -15 12v23q0 122 -17 199q-13 56 -69 56q-17 0 -17 -6v-8v-17q1 -32 2.5 -101t1.5 -95v-7q0 -17 -4 -20t-24 -4l-16 -1l-33 -1h-10q-9 0 -11 4t-2 19v33q-1 109 -5.5 308t-5.5 286v6q0 8 0.5 11.5t5 5.5t7.5 2.5t15 1.5q45 3 85 3
q90 0 136 -45t46 -130q0 -140 -128 -182q63 -14 101 -61q33 -43 36 -258v-15q0 -8 -3.5 -10.5t-17.5 -4.5zM109 596q0 -4 -1.5 -39t-1.5 -53q0 -56 7 -104q3 -10 11 -10h3q44 0 74 49q19 31 19 75q0 98 -91 98h-2h-8.5t-5 -2t-3.5 -5t-1 -9z" />
    <glyph glyph-name="s" unicode="s" horiz-adv-x="333" 
d="M291 414q-18 -2 -25 -2t-25 2q-8 2 -11.5 5.5t-4.5 7t-3 15.5q-1 7 -3 38t-5 49.5t-9 43t-18.5 37t-30.5 12.5q-11 0 -23 -7q-21 -18 -29.5 -40.5t-10.5 -58.5v-7q0 -79 117 -126q112 -46 112 -189q0 -101 -75 -164q-32 -27 -72 -27q-26 0 -50 10q-109 43 -109 204
q0 37 4 69q2 14 6 17t16 3q14 0 40 -6q14 -3 17 -6.5t3 -20.5q0 -27 1 -42.5t4 -40.5t8.5 -39t16.5 -25.5t26 -12.5q62 0 62 76q0 23 -4.5 41t-9 29t-18 22.5t-20.5 16t-26.5 15.5t-27.5 16q-88 54 -88 142q0 98 41 158.5t118 61.5q65 0 96 -58t31 -141q0 -33 -4 -56
q-2 -14 -4 -17t-13 -5z" />
    <glyph glyph-name="t" unicode="t" horiz-adv-x="306" 
d="M200 587q0 -93 1.5 -274.5t1.5 -275.5v-6q0 -11 -3 -13.5t-14 -3.5h-21q-20 0 -44 3q-8 1 -11.5 2.5t-5 5.5t-1.5 13v78q0 51 1.5 165t1.5 174q0 65 -1 98q0 11 -2 13t-12 2l-54 1q-17 0 -20.5 3.5t-3.5 18.5v5q0 12 -0.5 36.5t-0.5 37.5q0 15 4 18t18 3q125 0 252 4
q9 0 9 -7v-4l-1 -67q0 -9 -2 -11t-10 -2h-27l-37 -1q-13 0 -15.5 -2.5t-2.5 -13.5z" />
    <glyph glyph-name="u" unicode="u" horiz-adv-x="376" 
d="M254 669q0 9 1.5 10.5t9.5 1.5l82 1q8 0 9.5 -2t1.5 -10l-6 -398q-5 -95 -21 -138q-25 -64 -60 -95.5t-97 -31.5q-43 0 -73.5 19t-47 54t-24 73t-9.5 88v114q0 201 12 294q1 6 1.5 8t2 4.5t4.5 3t8 0.5q36 2 56 2q8 0 8 -5v-11q-6 -80 -6 -274v-43q0 -128 10 -192
q1 -6 2 -7.5t3 -2t8 -0.5h93q12 0 18 10q9 17 9 48v17z" />
    <glyph glyph-name="v" unicode="v" horiz-adv-x="358" 
d="M198 199q7 27 12.5 66.5t13 101.5t8.5 74q8 51 22 211q0 6 2 8.5t4 3.5t8 2q8 2 75 10h5q6 0 6 -4q0 -5 -1 -8q-72 -433 -90 -610v-14q0 -7 -3 -12.5t-6 -8t-10.5 -4.5t-10.5 -2t-11.5 -0.5t-9.5 -0.5q-13 0 -52 -4h-2q-18 0 -25 49q-8 42 -44 198t-50 237q-6 38 -34 182
q0 1 -0.5 2t-0.5 2q0 10 12 15q27 9 70 14q5 1 10 1q4 0 7 -13q59 -379 85 -500l5 -29l1 6q1 7 2.5 16t1.5 11z" />
    <glyph glyph-name="w" unicode="w" horiz-adv-x="576" 
d="M572 650q-10 -56 -32.5 -193t-40 -234t-35.5 -187q-3 -13 -7 -16.5t-19 -4.5h-24q-15 0 -29.5 1.5t-25.5 1.5q-23 0 -25 22q-25 215 -52 334q-1 6 -2.5 20.5t-3 25.5t-2.5 11t-2 -11t-2.5 -26t-3.5 -21q-15 -58 -35.5 -174.5t-30.5 -160.5q-1 -4 -2 -10t-1.5 -8t-2 -5.5
t-3 -5t-4.5 -3t-7 -1.5q-18 -2 -25 -2t-24 1t-29 1q-3 0 -6 0.5t-4.5 2.5t-3 3t-3 4.5t-2 6t-1 7.5t-1 8t-1 9t-0.5 10q-21 212 -25 237q-32 230 -50 397v1q0 10 7 10q8 0 22 0.5t23 0.5h17q15 0 17 -2t4 -16q7 -53 26.5 -215.5t25.5 -208.5q3 -17 5 -17q1 0 4.5 2.5t7.5 7
t5 9.5q3 16 7.5 41t5.5 29q47 209 61 286q0 1 1 4q2 14 8 16l12 1q23 0 46 2h9q7 0 9 -3.5t4 -16.5q9 -60 33.5 -189t33.5 -200q0 -5 2.5 -9t4.5 -6t3 -2t4 16q13 52 38.5 216t33.5 203q3 12 20 15q12 2 25 2q43 0 43 -13l-1 -2v-2z" />
    <glyph glyph-name="x" unicode="x" horiz-adv-x="371" 
d="M111 26l-73 -6q-3 0 -7 -0.5t-5 -0.5q-11 0 -11 6q0 4 5 19l89 322q4 14 4 16q0 5 -7 19q-7 19 -93 277q-3 9 -3 13q0 7 19 9l47 3q3 0 6.5 1t4.5 1q11 0 14.5 -4.5t7.5 -19.5q10 -32 34.5 -95t32.5 -86q8 -19 9 -19q3 0 8 17q7 19 55 167q7 18 13 20q4 1 11 1h8l72 -3
q15 -1 15 -6q0 -2 -5 -12q-20 -56 -56.5 -152t-53.5 -144q-5 -13 -5 -20q0 -3 4 -17q19 -51 55 -154t55 -155q1 -3 4 -8t3 -7q0 -5 -14 -5l-67 -2q-11 0 -13.5 2t-5.5 11q-9 29 -30.5 107t-34.5 115q-5 15 -7 15q-1 0 -8 -17q-10 -31 -23 -92t-21 -88q0 -2 -1 -4
q-5 -18 -13 -21q-5 -2 -19 -3z" />
    <glyph glyph-name="y" unicode="y" horiz-adv-x="366" 
d="M246 147q0 -18 1 -62t1 -62q0 -4 -0.5 -7t-1 -5.5t-2 -4t-2.5 -2t-4 -1.5t-4 -1t-6 -0.5t-7 -0.5q-20 -2 -31 -2q-10 0 -34 2q-13 1 -17.5 2.5t-7 6t-2.5 14.5q0 17 1 63t1 66v60l-2 54q0 14 -6 36q-13 44 -53 157t-60 180l-4 16q0 7 30 13t43 6q9 0 16 -20
q2 -5 20.5 -75.5t37 -129t27.5 -58.5q7 0 16.5 25t18.5 63.5t16.5 75.5t14 70t7.5 39q1 4 2 9t1.5 7t2 5t3 4t4.5 2t7 1h71q18 0 18 -4q0 -3 -3 -12q-14 -53 -56 -188.5t-55 -219.5l-2 -101v-21z" />
    <glyph glyph-name="z" unicode="z" horiz-adv-x="289" 
d="M42 1q-3 0 -6.5 -0.5t-4.5 -0.5q-12 0 -12 14v1l1 79v4q0 3 6 21l155 456l-138 -6q-14 1 -17.5 4t-3.5 18l-2 90q0 16 20 18h219q23 0 23 -19l-3 -55q-2 -20 -7 -32q-21 -55 -43 -123.5t-36.5 -117t-36.5 -122t-31 -103.5q-1 -2 -1.5 -4t-1 -3t-1 -2.5t-0.5 -2.5
q0 -6 14 -6h6q14 0 48.5 3t55.5 4h6q4 0 6 -0.5t3.5 -1t2 -2.5t1 -3t0.5 -5v-6l7 -70v-8q0 -6 -2.5 -7.5t-11.5 -1.5h-2z" />
    <glyph glyph-name="braceleft" unicode="{" horiz-adv-x="267" 
d="M82 288q-4 12 -19 21.5t-27.5 14.5t-12.5 7t-3 15t-4 28q-2 28 2 29q16 8 35 24.5t24 19.5q7 4 10 22.5t5.5 55.5t4.5 55q10 77 46 133q16 26 46 39.5t60 13.5q6 0 6 -27l-2 -33h-1q-29 0 -49 -96t-23 -160q-1 -21 -10.5 -35.5t-17.5 -19.5t-28 -12.5t-25 -9.5
q21 -1 37 -11t22 -20l5 -9q17 -22 23 -52t7.5 -79.5t2.5 -61.5q9 -85 59 -91q1 0 3 -8t3.5 -19.5t1.5 -22.5q0 -16 -3 -16q-53 0 -94 27t-57 81q-5 18 -8.5 87t-18.5 110z" />
    <glyph glyph-name="bar" unicode="|" horiz-adv-x="159" 
d="M53 -72h-11q-11 0 -13 4.5t-2 22.5v17v479l3 224l1 52v7q0 12 8 12q6 0 19 -2t15 -2l48 -5q10 -2 12.5 -3.5t2.5 -8.5v-10l-18 -765v-5q0 -9 -3 -11.5t-14 -3.5z" />
    <glyph glyph-name="braceright" unicode="}" horiz-adv-x="281" 
d="M197 286q-15 -41 -18 -110t-8 -87q-16 -53 -58 -80.5t-95 -27.5q-3 0 -3 16q0 10 1.5 22t4 20t3.5 8q50 6 59 91q1 12 2.5 61.5t7.5 79.5t23 52q2 4 5.5 10.5t20 17.5t37.5 12q-7 3 -20.5 7.5t-22 8.5t-18 11t-14.5 19.5t-6 29.5q-3 65 -22.5 160.5t-48.5 95.5
q-3 15 -3 34q0 27 6 27q30 0 59.5 -13.5t45.5 -39.5q36 -56 46 -133q2 -17 4.5 -55t6 -55.5t10.5 -22.5q5 -3 23.5 -20t34.5 -24q4 -1 2 -29q-1 -15 -3.5 -28t-2.5 -15t-12.5 -7t-27.5 -14.5t-19 -21.5z" />
    <glyph glyph-name="asciitilde" unicode="~" horiz-adv-x="275" 
d="M90 730q-1 -10 -9 -10l-44 1q-8 0 -8 11v8q0 34 19.5 57t41.5 23q24 0 43.5 -20t27.5 -20q13 0 17 7t4 30v1q0 5 6 5l49 -2q7 -1 8 -11q0 -2 0.5 -7t0.5 -7q0 -33 -17 -54t-39 -21q-21 0 -33 10.5t-20.5 20.5t-19.5 10q-23 0 -27 -32z" />
    <glyph glyph-name="exclamdown" unicode="&#xa1;" horiz-adv-x="172" 
d="M128 650q0 -26 -12.5 -46.5t-36.5 -20.5q-30 0 -43.5 20t-13.5 48q0 21 17 40.5t38 19.5q22 0 36.5 -18.5t14.5 -42.5zM128 -7v-5q0 -20 -4 -23.5t-26 -3.5h-43q-18 0 -22 3.5t-4 16.5v13l1 525q0 21 4 27.5t17 6.5q1 0 9.5 -0.5t20 -0.5h19.5q14 0 17.5 -6t3.5 -32
q0 -108 3.5 -261.5t3.5 -259.5z" />
    <glyph glyph-name="cent" unicode="&#xa2;" horiz-adv-x="352" 
d="M308 398q-10 0 -30 -0.5t-31 -0.5q-9 0 -11 2t-2 8v12.5t-0.5 14t-1.5 13t-3 13.5t-5 11t-7.5 10t-11.5 5.5t-16 2.5q-57 0 -73 -13q-10 -20 -10 -70q0 -14 1.5 -38t1.5 -37q0 -93 64 -93q50 0 67 17.5t17 48.5q0 5 -0.5 12t-0.5 12t10 5q6 0 19 -1t20 -1h9.5t5 -1t3 -3
t0.5 -6q0 -84 -31 -147t-88 -70l-2 -49q-1 -9 -1.5 -13t-3 -5.5t-7.5 -1.5q-9 0 -27 2t-23 2q-14 1 -14 10q0 1 0.5 6t0.5 8l1 43q-38 0 -63 31.5t-34 72t-9 86.5q0 23 1.5 61t1.5 46q2 56 36 110.5t80 59.5l-2 51v10q0 10 4 12t21 2h1h37h11q6 0 8.5 -2t2.5 -9v-4l-3 -53
q108 -14 108 -124q0 -7 1 -22t1 -21q0 -15 -9 -15h-14z" />
    <glyph glyph-name="sterling" unicode="&#xa3;" horiz-adv-x="370" 
d="M26 294v35v17q1 17 4 22t13 5h1h16q-4 112 -4 134q0 101 75 164q31 26 72 26q26 0 50 -10q60 -25 84 -63t24 -106q0 -36 -4 -68q-2 -14 -5.5 -17.5t-15.5 -3.5q-14 0 -40 6q-14 3 -17.5 6.5t-3.5 20.5q0 32 -1.5 48t-6.5 37t-16.5 30.5t-30.5 10.5q-62 0 -62 -77
q0 -2 -0.5 -20.5t-1 -53t-0.5 -66.5l62 -1q14 0 18.5 -3t4.5 -15v-4l-1 -46q-1 -19 -4.5 -23t-20.5 -4h-7l-54 -2v-8q0 -17 1.5 -44.5t1.5 -39.5q0 -38 -14 -79l184 -2q22 0 22 -29v-4l-1 -40q-1 -23 -9 -25q-3 -1 -23 -2l-254 -4q-4 0 -10.5 -0.5t-8.5 -0.5q-27 0 -27 23
v35v18q1 17 4.5 21.5t13.5 4.5h1h23q12 36 12 75q0 9 -5 99q-5 -1 -13 -1q-26 0 -26 24z" />
    <glyph glyph-name="currency" unicode="&#xa4;" horiz-adv-x="613" 
d="M365 264q7 52 7 82q0 31 -10 86q-3 15 -18.5 23.5t-37.5 8.5q-34 0 -57 -15q-8 -39 -8 -91q0 -44 4 -85q3 -31 8 -36q8 -7 30 -7h40q28 0 33.5 5t8.5 29zM432 473q29 -60 29 -131q0 -38 -8 -70q21 -30 63 -107t68 -109q7 -9 12 -19v-3q0 -3 -4 -3q-1 0 -15 2l-30 4
q-3 0 -7.5 1t-6.5 1t-5.5 0.5t-4.5 1.5t-3.5 2t-4 2.5t-4 3t-4.5 4.5t-4.5 6t-5.5 8l-83 117q-42 -60 -101 -60q-75 0 -116 56l-80 -113q-4 -6 -7 -9.5t-5 -6.5t-5 -5t-4.5 -3.5t-5.5 -2t-6 -1t-8 -1.5t-9 -1l-29 -4q-14 -2 -16 -2q-7 0 -7 4q0 1 1 2q1 3 14 19
q23 32 68 102.5t66 101.5q-7 27 -7 59v14v12q0 85 25 128l-105 183q-1 2 -5 7t-6.5 9t-3.5 6q-1 1 -1 3q0 3 18 5l30 1q1 0 3.5 0.5t3.5 0.5q17 0 29 -17q16 -21 46.5 -64.5t45.5 -63.5q35 22 80 22q39 0 62 -19q16 22 45 63.5t43 61.5q12 17 31 17q1 0 3 -0.5t3 -0.5l31 -1
q16 -1 16 -5q0 -1 -1 -3q-1 -3 -6.5 -11t-6.5 -11z" />
    <glyph glyph-name="yen" unicode="&#xa5;" horiz-adv-x="400" 
d="M39 645l60 1h3q22 0 28 -21q2 -8 10 -35.5t12 -40.5t12 -35.5t16.5 -40.5t18.5 -36q5 -11 8 -11q2 0 6 14q9 28 19.5 64.5t16 55t15.5 47.5t22 61q3 9 4.5 11.5t6 4t14.5 1.5l66 1q15 -2 15 -11q0 -4 -1 -6q-90 -230 -135 -346q-7 -17 -7 -42v-20h50q14 0 18.5 -3
t4.5 -16v-10q-1 -19 -3.5 -21t-17.5 -3l-51 -1q0 -4 0.5 -12.5t0.5 -13.5h48q14 0 18.5 -3t4.5 -16v-9q-2 -19 -4 -21.5t-17 -3.5l-47 -1q0 -15 1.5 -48.5t2.5 -54.5v-13q0 -7 -3 -9t-15 -2h-82q-13 0 -17.5 2t-4.5 9q0 1 0.5 5t0.5 7q1 26 5 103h-9q-4 0 -22 -0.5t-21 -0.5
q-11 0 -14.5 5t-3.5 18v11q0 7 2 13q3 14 14 14h2q12 0 30 -0.5t25 -0.5v21h-12q-4 0 -22 -0.5t-21 -0.5q-11 0 -14.5 5t-3.5 18v11q0 7 2 13q3 14 14 14h2q12 0 30.5 -0.5t25.5 -0.5q-2 67 -31 129q-21 41 -50.5 117.5t-39.5 100.5q-9 18 -9 22q0 11 23 11z" />
    <glyph glyph-name="brokenbar" unicode="&#xa6;" horiz-adv-x="142" 
d="M28 687v11q0 10 8 13.5t30 3.5q4 0 13 -0.5t14 -0.5q21 0 21 -9q0 -46 1 -146.5t1 -144.5q0 -6 -14 -7q-30 -5 -34 -5q-3 0 -9.5 -0.5t-8.5 -0.5q-7 0 -15 5t-8 154q0 32 0.5 77.5t0.5 49.5zM26 262v11q0 10 7.5 13.5t29.5 3.5q5 0 14 -0.5t14 -0.5q21 0 21 -9
q0 -46 0.5 -146.5t0.5 -144.5q0 -6 -14 -7q-30 -5 -34 -5q-3 0 -9 -0.5t-8 -0.5q-8 0 -16 5q-7 5 -7 154q0 32 0.5 77.5t0.5 49.5z" />
    <glyph glyph-name="section" unicode="&#xa7;" horiz-adv-x="331" 
d="M90 447q-63 46 -63 119q0 31 8 58q13 41 49.5 63.5t91.5 22.5q137 0 137 -167q0 -12 -4 -34q-1 -8 -12 -8h-10l-33 3h-4q-3 0 -7.5 -0.5t-5.5 -0.5q-6 0 -6 20q-3 108 -61 108q-32 0 -48 -27.5t-16 -58.5q0 -34 23 -55t52 -29.5t58.5 -29t38.5 -53.5q11 -27 11 -71
q0 -71 -49 -101q63 -46 63 -119q0 -30 -8 -57q-13 -41 -49.5 -63.5t-91.5 -22.5q-138 0 -138 167q0 11 4 33q2 9 13 9h10l33 -3h4q3 0 7.5 0.5t5.5 0.5q5 0 5 -21q3 -107 62 -107q32 0 47.5 27.5t15.5 58.5q0 28 -15 46.5t-37.5 28t-46 19t-44 27.5t-28.5 45q-11 27 -11 71
q0 71 49 101zM130 371v-4v-30q0 -7 1 -27t1 -27v-2q0 -10 8 -15q18 -11 62 -11h3v4q0 4 0.5 13.5t0.5 11.5v4v29v48v2q0 9 -8 14l-65 29q0 -5 -1.5 -20.5t-1.5 -18.5z" />
    <glyph glyph-name="dieresis" unicode="&#xa8;" horiz-adv-x="248" 
d="M175 771q18 0 33 -10t15 -27q0 -21 -14.5 -31t-34.5 -10q-14 0 -28 12.5t-14 26.5q0 17 12.5 28t30.5 11zM68 695q-17 0 -29.5 9.5t-12.5 26.5q0 14 14 27t28 13q20 0 34.5 -10t14.5 -31q0 -17 -15 -26t-34 -9z" />
    <glyph glyph-name="copyright" unicode="&#xa9;" horiz-adv-x="470" 
d="M292 286q0 7 -0.5 20.5t-0.5 19.5t6 6q17 0 26 -1q10 -6 11 -9q0 -46 -17 -100q-22 -72 -81 -72q-41 0 -63.5 33.5t-26.5 73.5q-3 22 -3 55q0 19 2 65q3 69 30 118.5t81 49.5q35 0 58 -23.5t23 -67.5v-15v-40q0 -3 -0.5 -5t-1 -3.5t-2 -2t-3 -0.5t-4.5 -0.5t-5 -0.5
q-22 -2 -36 -2q-7 0 -7 6v5q0 6 -0.5 17t-1 17.5t-1 16t-2.5 15.5t-4.5 12t-7.5 8.5t-11 2.5q-38 0 -46 -14q-5 -25 -5 -90q0 -4 -0.5 -19.5t-0.5 -25.5q0 -103 42 -103q33 0 42.5 11t9.5 42zM368 176q16 33 16 163q0 24 -2 70t-2 65q0 53 -37 102.5t-89 49.5q-49 0 -86 -36
t-53 -81.5t-16 -88.5q0 -10 0.5 -26.5t0.5 -24.5q0 -11 -0.5 -38t-0.5 -42v-29q0 -48 17 -123q17 -26 50 -46.5t58 -20.5q50 0 88 34.5t56 71.5zM244 -16q-107 0 -162.5 66.5t-57.5 167.5q0 18 -1.5 67.5t-2 91t-0.5 66.5q0 115 66 200t179 85q55 0 97.5 -31t57.5 -79
q24 -79 24 -199q0 -16 1 -43.5t1 -39.5q0 -6 0.5 -30t0.5 -40q0 -282 -203 -282z" />
    <glyph glyph-name="ordfeminine" unicode="&#xaa;" horiz-adv-x="242" 
d="M30 362q-8 1 -8 6v6q8 74 15 175q2 25 6.5 74t6.5 68q2 12 5 15t16 3q6 0 44 -0.5t45 -0.5h9q9 0 10 -11q36 -280 41 -323v-7q0 -3 -6 -3h-2l-50 1q-9 0 -10.5 2t-1.5 11q0 19 -3.5 52.5t-4.5 44.5q0 6 -1.5 7.5t-7.5 1.5l-33 1h-4q-6 0 -7 -2t-2 -9l-9 -105
q-1 -11 -5 -11q-1 0 -3 0.5t-4 0.5zM133 650q-1 6 -8 6h-5h-3q-8 0 -8 -7l-11 -101v-5q0 -2 4 -2h17h21q5 0 5 3v4q-3 53 -12 102z" />
    <glyph glyph-name="guillemotleft" unicode="&#xab;" horiz-adv-x="405" 
d="M170 344q90 157 118 196l2 4q2 3 3 3.5t3 2t5 2t8 0.5l67 4h3q7 0 7 -2q0 -3 -5 -10q-4 -6 -42.5 -76t-57.5 -95q-15 -27 -15 -36q0 -11 9 -32q11 -30 35.5 -85.5t38.5 -99.5l2.5 -5t1.5 -4q0 -5 -11 -8q-5 -1 -49 -8l-10 -2q-6 0 -9 4t-6 16q-2 7 -44 110zM18 341
q90 157 118 196q8 11 22 12l66 4h3q7 0 7 -2q0 -3 -5 -10q-4 -6 -42.5 -76t-57.5 -95q-14 -25 -14 -36t9 -32q11 -30 35.5 -85.5t38.5 -99.5q1 -3 5.5 -7.5t4.5 -6.5q0 -5 -11 -11q-7 -3 -26.5 -6.5t-24.5 -5.5l-10 -2q-6 0 -8.5 3t-5.5 15q-6 19 -26.5 69t-22.5 55z" />
    <glyph glyph-name="logicalnot" unicode="&#xac;" horiz-adv-x="250" 
d="M26 350v35v17q1 17 4 22t13 5h1l155 -5q23 0 23 -18l-5 -155q0 -15 -2.5 -19t-14.5 -4q-8 0 -12 1q-6 0 -9.5 0.5t-6.5 1t-4.5 2t-3 2t-1.5 4t-0.5 5.5t-0.5 8v9q0 21 -2 69l-88 -2q-4 0 -11 -0.5t-9 -0.5q-26 0 -26 23z" />
    <glyph glyph-name="uni00AD" unicode="&#xad;" horiz-adv-x="250" 
d="M27 350v35v17q1 17 4 22t13 5h1l155 -5q14 0 18 -2.5t4 -14.5v-5l-1 -46q0 -6 -0.5 -9.5t-1 -6.5t-2 -4.5t-2 -3t-4 -1.5t-5.5 -0.5t-8 -0.5h-9l-116 -2q-4 0 -11 -0.5t-9 -0.5q-26 0 -26 23z" />
    <glyph glyph-name="registered" unicode="&#xae;" horiz-adv-x="470" 
d="M287 169q-9 0 -11 2t-2 12v13v4q0 103 -43 103q-2 0 -4.5 0.5t-3.5 0.5q-6 0 -6 -4v-9v-22q0 -16 0.5 -29t1 -22t0.5 -24v-10q0 -8 -2 -8.5t-16 -1.5q-20 -2 -23 -2q-9 0 -11.5 2t-2.5 10v15v49v122q0 18 0.5 52.5t0.5 52.5q0 35 -1 52v3q0 12 3 15t15 5q24 2 29 2
q32 0 61 -8q35 -9 48.5 -33.5t13.5 -66.5q0 -61 -15 -78q-11 -12 -34.5 -21t-24.5 -10q11 0 29 -12.5t24 -24.5q17 -45 17 -109v-6q0 -10 -2 -12t-11 -2h-30zM225 370h4q29 0 41 14q4 36 4 61t-2 39q-2 12 -18 14h-4h-8h-9h-4q-12 -1 -12 -10v-9v-1v-91v-10q0 -7 8 -7z
M368 176q16 33 16 163q0 24 -2 70t-2 65q0 53 -37 102.5t-89 49.5q-49 0 -86 -36t-53 -81.5t-16 -88.5q0 -10 0.5 -26.5t0.5 -24.5q0 -11 -0.5 -38t-0.5 -42v-29q0 -48 17 -123q17 -26 50 -46.5t58 -20.5q50 0 88 34.5t56 71.5zM244 -16q-107 0 -162.5 66.5t-57.5 167.5
q0 18 -1.5 67.5t-2 91t-0.5 66.5q0 115 66 200t179 85q55 0 97.5 -31t57.5 -79q24 -79 24 -199q0 -16 1 -43.5t1 -39.5q0 -6 0.5 -30t0.5 -40q0 -282 -203 -282z" />
    <glyph glyph-name="macron" unicode="&#xaf;" horiz-adv-x="257" 
d="M30 748v19v17q1 17 4 22t13 5h1l155 -5q14 0 18 -3t4 -15v-4l-1 -30v-8.5t-1 -6.5t-1 -4.5t-2 -3t-2.5 -2t-4.5 -1.5t-5 -1h-7h-8q-135 -3 -137 -3q-26 0 -26 24z" />
    <glyph glyph-name="degree" unicode="&#xb0;" horiz-adv-x="219" 
d="M194 684q0 -36 -23 -68.5t-58 -32.5q-44 0 -67 29.5t-23 65.5q0 38 20.5 64.5t69.5 26.5q41 0 61 -26.5t20 -58.5zM132 647q5 14 5 30q0 14 -5 31q-3 10 -27 10q-14 0 -26 -5q-5 -15 -5 -31q0 -17 6 -35h52z" />
    <glyph glyph-name="plusminus" unicode="&#xb1;" horiz-adv-x="301" 
d="M47 150v34v18q0 17 3.5 21.5t12.5 4.5h3l174 -3q14 0 18 -2.5t4 -14.5v-4l-2 -46v-8.5t-1 -6.5t-1 -4.5t-2 -3t-2.5 -2t-4.5 -1t-5 -1t-7 -0.5h-8l-137 -4q-7 -1 -18 -1q-27 0 -27 24zM23 356v29v16q1 17 4 22t13 5h1l70 1v56q0 15 2.5 19.5t14.5 4.5h4l34 -2h8.5t6.5 -1
t4.5 -1t3 -2t2 -2.5t1.5 -4.5t1 -5v-7v-8v-47l61 1q14 0 18 -2.5t4 -14.5v-4l-1 -47v-8.5t-1 -6.5t-1 -4.5t-2 -3t-3 -2t-4 -1t-5 -0.5h-7h-8h-49v-36q0 -4 0.5 -10.5t0.5 -8.5q0 -26 -24 -26h-16h-17q-17 1 -21.5 3.5t-4.5 12.5v2l-1 61h-43q-4 0 -11 -0.5t-9 -0.5
q-26 0 -26 23z" />
    <glyph glyph-name="uni00B2" unicode="&#xb2;" horiz-adv-x="246" 
d="M93 551q0 -15 -26 -15h-27h-7.5t-4 2.5t-1.5 3.5t-1 8q-2 13 -2 32q0 46 23.5 77t71.5 31q46 0 76.5 -32.5t30.5 -78.5q0 -45 -61 -106q-11 -11 -29.5 -24.5t-28.5 -22.5t-10 -16q0 -12 24 -12q10 0 31.5 2.5t30.5 2.5q3 0 6.5 -28.5t3.5 -40.5q0 -11 -3 -15t-12 -4
q-23 -2 -62 -2q-5 0 -18 -1t-20 -1q-17 0 -31 4q-3 1 -7 1.5t-5 1l-3 1.5t-3 2.5t-1.5 4t-1.5 6.5q-2 8 -2 45q0 41 10 58t54 54q4 3 17.5 14.5t19 17t14.5 16t12.5 21t3.5 22.5v1q0 16 -1 24t-8.5 16.5t-22.5 8.5q-31 0 -31 -58q0 -5 0.5 -11.5t0.5 -9.5z" />
    <glyph glyph-name="uni00B3" unicode="&#xb3;" horiz-adv-x="212" 
d="M58 368q7 -1 20 -1h18q12 0 16 18q4 20 4 24q0 32 -12.5 40t-48.5 8v66q67 4 67 54q0 27 -5 32t-28 5h-15l-45 -2v60v10q0 7 2.5 8.5t13.5 1.5q9 0 27.5 1t25.5 1q39 0 63.5 -30.5t24.5 -75.5q0 -28 -1 -42t-6 -28.5t-15 -21.5t-28 -10q52 -18 52 -85q0 -53 -22.5 -78.5
t-79.5 -25.5q-22 0 -45 3q-1 0 -4 1q-14 7 -15 14v50q0 7 10 7q4 0 14 -2t12 -2z" />
    <glyph glyph-name="acute" unicode="&#xb4;" horiz-adv-x="219" 
d="M182 777q-11 -11 -25 -27.5t-27 -33t-17 -20.5q-11 -12 -25 -12l-53 -1q-11 0 -11 8q0 1 2 5l55 86q3 3 7.5 9.5t6.5 8.5t7.5 4.5t13.5 2.5h51q30 -2 30 -10q0 -5 -15 -20z" />
    <glyph glyph-name="uni00B5" unicode="&#xb5;" horiz-adv-x="384" 
d="M260 550q0 7 1.5 8.5t9.5 1.5h82q8 0 10 -1.5t2 -8.5l-7 -335q-1 -13 -1 -34q0 -33 14 -53q11 -17 11 -29v-1l-1 -81v-1q0 -2 0.5 -5t0.5 -4q0 -8 -9 -8q-8 0 -13 1q-14 2 -20 6q-16 10 -39 35q-43 -49 -121 -49q-36 0 -66 20v-155q0 -7 -14 -8q-24 -4 -34 -4
q-3 0 -9 -0.5t-8 -0.5q-9 0 -16 4q-7 5 -7 195q0 60 1 124.5t1 101.5q0 204 10 265q1 6 2 8t4 3t10 2q18 1 57 1q7 0 7 -4v-8q-5 -48 -5 -198v-58q0 -108 9 -154q1 -4 2 -5.5t3 -2t8 -0.5h93q13 0 18 8q9 14 9 39v13z" />
    <glyph glyph-name="paragraph" unicode="&#xb6;" horiz-adv-x="484" 
d="M446 708q11 -2 14 -4t3 -9v-10l-19 -660v-6q0 -9 -2.5 -11t-13.5 -3l-49 -2h-10q-12 0 -14.5 4.5t-2.5 22.5v17v394l4 204q-24 3 -41 3q-20 0 -20 -5q0 -33 -0.5 -99.5t-0.5 -99.5q0 -40 0.5 -120.5t0.5 -120.5v-27v-151v-3q0 -10 -2.5 -12.5t-13.5 -2.5q-3 0 -9.5 -0.5
t-9.5 -0.5q-14 0 -36 2q-12 2 -15 5t-3 16v127q0 26 0.5 68.5t0.5 68.5v4q0 2 -6 3.5t-14 2t-9 0.5q-77 8 -119 60.5t-42 137.5q0 40 13 87q15 53 40 83t72 38q65 9 134 9q68 0 170 -10z" />
    <glyph glyph-name="periodcentered" unicode="&#xb7;" horiz-adv-x="159" 
d="M132 368q0 -24 -14.5 -42t-36.5 -18q-21 0 -38 19t-17 40q0 28 13.5 48.5t43.5 20.5q24 0 36.5 -21t12.5 -47z" />
    <glyph glyph-name="cedilla" unicode="&#xb8;" horiz-adv-x="221" 
d="M98 -126q28 0 28 32q0 10 -4.5 18.5t-9 12t-12.5 7.5t-9 5l5 47q8 13 39 13q8 0 12 -2l-4 -38q44 -20 44 -75q0 -33 -26 -54t-66 -21q-29 0 -46 22t-17 56q0 9 7 11q28 5 35 5q3 0 8 -19.5t16 -19.5z" />
    <glyph glyph-name="uni00B9" unicode="&#xb9;" horiz-adv-x="165" 
d="M78 692h51q6 0 7 -11q1 -8 1 -34q0 -20 -1.5 -79.5t-1.5 -98.5q0 -16 0.5 -44.5t0.5 -40.5q0 -33 -2 -63q-1 -16 -6 -17q-3 -1 -7 -1t-23.5 0.5t-24.5 0.5q-6 0 -6 9v1q0 24 1.5 120t1.5 154q-4 -4 -22 -15.5t-21 -11.5q-8 0 -8 51v8q0 3 7 10q1 1 15 12.5t21.5 21
t7.5 18.5q0 10 9 10z" />
    <glyph glyph-name="ordmasculine" unicode="&#xba;" horiz-adv-x="237" 
d="M69 410q72 2 119 2h6.5t4.5 -1l3 -1.5t1.5 -3.5t1 -4.5t0.5 -6.5v-8q0 -5 0.5 -14t0.5 -13q0 -12 -4 -15.5t-17 -3.5h-135q-8 0 -11 3t-3 13q0 5 0.5 15t0.5 15v4q1 17 6 18q3 1 11 1h6h9zM214 571q0 -50 -26.5 -91.5t-65.5 -41.5q-51 0 -76.5 37.5t-25.5 88.5
q0 67 24.5 113t79.5 46q46 0 68 -48t22 -104zM144 520q8 40 8 61q0 11 -3.5 27t-4.5 24q-3 17 -29 17q-17 0 -31 -9q-8 -38 -8 -50q0 -48 9 -70h59z" />
    <glyph glyph-name="guillemotright" unicode="&#xbb;" horiz-adv-x="405" 
d="M233 344q-17 -35 -54 -121q-42 -103 -44 -110q-9 -19 -14 -20q-1 0 -2.5 0.5t-3.5 1t-4 0.5q-47 7 -50 8q-11 3 -11 8q0 1 1.5 4l2.5 5q14 44 38.5 99.5t35.5 85.5q9 21 9 32t-14 36q-19 25 -57.5 95t-42.5 76q-6 8 -6 10t8 2h3l66 -4q14 -1 22 -12q23 -32 117 -196z
M385 341q-17 -35 -54 -121q-2 -5 -22.5 -55t-26.5 -69q-3 -11 -6 -14.5t-9 -3.5l-10 2q-5 2 -24 5.5t-26 6.5q-11 6 -11 11q0 2 4.5 6.5t5.5 7.5q14 44 38.5 99.5t35.5 85.5q9 21 9 32q0 9 -15 36q-19 25 -57.5 95t-42.5 76q-5 7 -5 10q0 2 7 2h3l67 -4q5 0 8 -0.5t5 -2
t3 -2t3 -4.5l2 -3q28 -39 118 -196z" />
    <glyph glyph-name="onequarter" unicode="&#xbc;" horiz-adv-x="512" 
d="M76 692h60q6 0 7 -11q1 -8 1 -34q0 -20 -1.5 -79.5t-1.5 -98.5q0 -16 0.5 -44.5t0.5 -40.5q0 -33 -2 -63q-1 -16 -6 -17q-3 -1 -7 -1t-28 0.5t-29 0.5q-7 0 -7 9v1q0 21 1.5 115.5t2.5 158.5q-4 -4 -22 -15.5t-21 -11.5q-8 0 -8 51v8q0 3 7 10q1 1 15 12.5t21.5 21
t7.5 18.5q0 10 9 10zM382 699l29 -1q20 -1 20 -8v-1q-1 -3 -9 -23l-309 -625q-11 -23 -17 -27t-28 -7l-27 -4q-16 -2 -17 -2q-8 0 -8 5q0 1 9 23l321 652q9 18 29 18h7zM303 357h46q8 0 8 -6v-7l-6 -146q0 -10 2 -11.5t12 -2.5l34 -1q2 0 4.5 -0.5t3.5 -0.5q6 0 6 11v2
l-2 163v8q0 6 2 7.5t9 2.5l53 3q1 0 3 1h2q7 0 7 -9v-9l1 -352v-1q0 -7 -1.5 -9t-7.5 -2h-4h-43q-8 0 -9.5 2t-1.5 8v3v2l-2 112v6t-1.5 2t-4.5 1h-4l-49 2h-66q-3 0 -4.5 2t-1.5 4l-1 1l6 197v2q0 15 10 15z" />
    <glyph glyph-name="onehalf" unicode="&#xbd;" horiz-adv-x="507" 
d="M343 233q0 -14 -27 -14h-26q-10 0 -12 1.5t-3 12.5q-2 12 -2 31q0 46 24 77.5t72 31.5q47 0 84 -33.5t37 -78.5q0 -44 -61 -105q-11 -11 -29.5 -25t-28.5 -22.5t-10 -15.5q0 -12 24 -12q10 0 31.5 2.5t30.5 2.5q3 0 6.5 -29.5t3.5 -39.5q0 -11 -3 -14.5t-12 -4.5
q-23 -2 -76 -2q-5 0 -18 -0.5t-20 -0.5q-20 0 -31 3q-3 1 -9 2t-7 1.5t-3 3.5t-3 9q-2 8 -2 45q0 41 10.5 59t54.5 55q4 4 30.5 22.5t38.5 33.5t12 33v2q0 19 -12 33.5t-34 14.5q-31 0 -31 -57q0 -5 0.5 -11.5t0.5 -10.5zM76 692h60q6 0 7 -11q1 -8 1 -34q0 -20 -1.5 -79.5
t-1.5 -98.5q0 -16 0.5 -44.5t0.5 -40.5q0 -33 -2 -63q-1 -16 -6 -17q-3 -1 -7 -1t-28 0.5t-29 0.5q-7 0 -7 9v1q0 21 1.5 115.5t2.5 158.5q-4 -4 -22 -15.5t-21 -11.5q-8 0 -8 51v8q0 3 7 10q1 1 15 12.5t21.5 21t7.5 18.5q0 10 9 10zM382 699l29 -1q20 -1 20 -8v-1
q-1 -3 -9 -23l-309 -625q-11 -23 -17 -27t-28 -7l-27 -4q-16 -2 -17 -2q-8 0 -8 5q0 1 9 23l321 652q9 18 29 18h7z" />
    <glyph glyph-name="threequarters" unicode="&#xbe;" horiz-adv-x="531" 
d="M54 368q7 -1 20 -1h18q12 0 16 18q4 20 4 24q0 32 -12.5 40t-48.5 8v66q67 4 67 54q0 27 -5 32t-28 5h-15l-45 -2v60v10q0 7 2.5 8.5t13.5 1.5q9 0 27.5 1t25.5 1q39 0 63.5 -30.5t24.5 -75.5q0 -28 -1 -42t-6 -28.5t-15 -21.5t-28 -10q52 -18 52 -85q0 -53 -22.5 -78.5
t-79.5 -25.5q-22 0 -45 3q-17 2 -19 7q-1 3 -1 8v50q0 7 11 7q4 0 14 -2t12 -2zM401 699l29 -1q21 -1 21 -8v-1q0 -3 -2 -7l-4.5 -9l-3.5 -7l-309 -625q-11 -23 -17 -27t-28 -7l-27 -4q-16 -2 -17 -2q-7 0 -7 5q0 3 8 23l322 652q5 11 10.5 14.5t17.5 3.5h7zM323 357h46
q8 0 8 -6v-7l-6 -146q0 -10 1.5 -11.5t11.5 -2.5l35 -1q2 0 4 -0.5t3 -0.5q6 0 6 11v2l-2 163v8q0 6 2 7.5t9 2.5l54 3q1 0 3 1h2q7 0 7 -9v-9l1 -352v-1q0 -7 -1.5 -9t-7.5 -2h-4h-43q-8 0 -10 2t-2 8v3v2l-2 112v6t-1.5 2t-4.5 1h-4l-48 2h-67q-3 0 -4.5 2t-2.5 4v1l6 197
v2q0 15 11 15z" />
    <glyph glyph-name="questiondown" unicode="&#xbf;" horiz-adv-x="347" 
d="M213 756q20 0 36.5 -18t16.5 -39q0 -28 -15 -49t-45 -21q-22 0 -34 19.5t-12 44.5t15 44t38 19zM175 61q18 0 30 9t17.5 25.5t8 32.5t3.5 39q2 32 2 46q1 19 14 24q10 4 31 4h22q4 0 6.5 -0.5t3.5 -3t1.5 -3.5t0.5 -5.5v-6.5q2 -32 2 -50v-16q-3 -82 -41.5 -140.5
t-117.5 -58.5q-61 0 -100 55t-39 118q0 48 12 86t32 65t41.5 49.5t43.5 52.5t34 63q11 29 11 65q0 12 -5 34t-5 33q0 8 19 8l34 1h2q8 0 11.5 -1.5t4.5 -3.5t2 -9q1 -3 1 -4q9 -37 9 -67q0 -55 -19 -109.5t-52 -86.5q-63 -61 -63 -167q0 -78 43 -78z" />
    <glyph glyph-name="Agrave" unicode="&#xc0;" 
d="M57 823q-14 14 -14 20q0 8 30 10h51q8 0 13.5 -2.5t7.5 -4.5t6.5 -8.5t7.5 -9.5l55 -86q2 -4 2 -5q0 -8 -11 -8l-53 1q-14 0 -25 12q-3 4 -17 20.5l-28 33t-25 27.5zM252 28q-9 0 -10.5 1.5t-2.5 11.5l-7 86l-9 92q-1 9 -5 9q-1 0 -3 -0.5t-4 -0.5q-44 -6 -69 -8
q-5 0 -6.5 -0.5t-3.5 -2t-2.5 -3.5t-0.5 -6l-27 -199q0 -4 -0.5 -5.5t-1.5 -3t-3 -1.5h-6q-1 0 -32.5 -1.5t-47.5 -1.5q-7 0 -7 5q0 4 1 7q15 101 30 226q4 29 8.5 61.5t10 72t8.5 61.5q5 34 39 255q3 20 5 23t14 3h10h99h8q6 0 8.5 -0.5t4.5 -3t2.5 -5.5t1.5 -11l70 -651
v-6q0 -4 -10 -4h-62zM174 611l-7 -1h-7q-3 0 -5 -14l-31 -257v-5q0 -4 10 -4h47q10 0 10 4q0 1 -0.5 3t-0.5 4q-3 43 -4.5 128.5t-4.5 128.5q-2 13 -7 13z" />
    <glyph glyph-name="Aacute" unicode="&#xc1;" 
d="M299 823q-11 -11 -25 -27.5l-28 -33t-17 -20.5q-10 -12 -24 -12l-53 -1q-12 0 -12 8q0 1 2 5l56 86q3 4 7 10t6.5 8.5t7.5 4.5t13 2h52q29 -2 29 -10q0 -6 -14 -20zM252 28q-9 0 -10.5 1.5t-2.5 11.5l-7 86l-9 92q-1 9 -5 9q-1 0 -3 -0.5t-4 -0.5q-44 -6 -69 -8
q-5 0 -6.5 -0.5t-3.5 -2t-2.5 -3.5t-0.5 -6l-27 -199q0 -4 -0.5 -5.5t-1.5 -3t-3 -1.5h-6q-1 0 -32.5 -1.5t-47.5 -1.5q-7 0 -7 5q0 4 1 7q15 101 30 226q4 29 8.5 61.5t10 72t8.5 61.5q5 34 39 255q3 20 5 23t14 3h10h99h8q6 0 8.5 -0.5t4.5 -3t2.5 -5.5t1.5 -11l70 -651
v-6q0 -4 -10 -4h-62zM174 611l-7 -1h-7q-3 0 -5 -14l-31 -257v-5q0 -4 10 -4h47q10 0 10 4q0 1 -0.5 3t-0.5 4q-3 43 -4.5 128.5t-4.5 128.5q-2 13 -7 13z" />
    <glyph glyph-name="Acircumflex" unicode="&#xc2;" 
d="M136 843q1 0 26.5 1.5t40.5 1.5q27 0 28 -4q4 -9 48 -101q1 -2 1 -4q0 -8 -11 -8l-47 1q-4 0 -6 0.5t-3.5 0.5t-3 1.5t-1.5 2t-1.5 3.5t-1.5 4l-24 50l-25 -44q-9 -16 -20 -16h-2l-42 1q-15 0 -15 8q0 7 5 15q6 11 14.5 26.5t13.5 24.5l10 18t9 13.5t7 4.5zM252 28
q-9 0 -10.5 1.5t-2.5 11.5l-7 86l-9 92q-1 9 -5 9q-1 0 -3 -0.5t-4 -0.5q-44 -6 -69 -8q-5 0 -6.5 -0.5t-3.5 -2t-2.5 -3.5t-0.5 -6l-27 -199q0 -4 -0.5 -5.5t-1.5 -3t-3 -1.5h-6q-1 0 -32.5 -1.5t-47.5 -1.5q-7 0 -7 5q0 4 1 7q15 101 30 226q4 29 8.5 61.5t10 72t8.5 61.5
q5 34 39 255q3 20 5 23t14 3h10h99h8q6 0 8.5 -0.5t4.5 -3t2.5 -5.5t1.5 -11l70 -651v-6q0 -4 -10 -4h-62zM174 611l-7 -1h-7q-3 0 -5 -14l-31 -257v-5q0 -4 10 -4h47q10 0 10 4q0 1 -0.5 3t-0.5 4q-3 43 -4.5 128.5t-4.5 128.5q-2 13 -7 13z" />
    <glyph glyph-name="Atilde" unicode="&#xc3;" 
d="M131 739q-1 -10 -9 -10l-44 1q-8 0 -8 11v9q0 34 19.5 56.5t41.5 22.5q24 0 43.5 -19.5t27.5 -19.5q13 0 17 6.5t4 29.5v1q0 6 6 6l49 -3q7 -1 8 -11q0 -3 0.5 -7t0.5 -7q0 -33 -17 -54t-39 -21q-27 0 -44 20.5t-29 20.5q-23 0 -27 -32zM252 28q-9 0 -10.5 1.5t-2.5 11.5
l-7 86l-9 92q-1 9 -5 9q-1 0 -3 -0.5t-4 -0.5q-44 -6 -69 -8q-5 0 -6.5 -0.5t-3.5 -2t-2.5 -3.5t-0.5 -6l-27 -199q0 -4 -0.5 -5.5t-1.5 -3t-3 -1.5h-6q-1 0 -32.5 -1.5t-47.5 -1.5q-7 0 -7 5q0 4 1 7q15 101 30 226q4 29 8.5 61.5t10 72t8.5 61.5q5 34 39 255q3 20 5 23
t14 3h10h99h8q6 0 8.5 -0.5t4.5 -3t2.5 -5.5t1.5 -11l70 -651v-6q0 -4 -10 -4h-62zM174 611l-7 -1h-7q-3 0 -5 -14l-31 -257v-5q0 -4 10 -4h47q10 0 10 4q0 1 -0.5 3t-0.5 4q-3 43 -4.5 128.5t-4.5 128.5q-2 13 -7 13z" />
    <glyph glyph-name="Adieresis" unicode="&#xc4;" 
d="M225 807q19 0 34 -10t15 -27q0 -21 -14.5 -31t-34.5 -10q-15 0 -29 12.5t-14 26.5q0 17 12.5 28t30.5 11zM119 731q-18 0 -30.5 9.5t-12.5 26.5q0 14 14 27t29 13q20 0 34.5 -10t14.5 -31q0 -16 -15.5 -25.5t-33.5 -9.5zM252 28q-9 0 -10.5 1.5t-2.5 11.5l-7 86l-9 92
q-1 9 -5 9q-1 0 -3 -0.5t-4 -0.5q-44 -6 -69 -8q-5 0 -6.5 -0.5t-3.5 -2t-2.5 -3.5t-0.5 -6l-27 -199q0 -4 -0.5 -5.5t-1.5 -3t-3 -1.5h-6q-1 0 -32.5 -1.5t-47.5 -1.5q-7 0 -7 5q0 4 1 7q15 101 30 226q4 29 8.5 61.5t10 72t8.5 61.5q5 34 39 255q3 20 5 23t14 3h10h99h8
q6 0 8.5 -0.5t4.5 -3t2.5 -5.5t1.5 -11l70 -651v-6q0 -4 -10 -4h-62zM174 611l-7 -1h-7q-3 0 -5 -14l-31 -257v-5q0 -4 10 -4h47q10 0 10 4q0 1 -0.5 3t-0.5 4q-3 43 -4.5 128.5t-4.5 128.5q-2 13 -7 13z" />
    <glyph glyph-name="Aring" unicode="&#xc5;" 
d="M174 611l-7 -1h-7q-3 0 -5 -14l-31 -257v-5q0 -4 10 -4h47q10 0 10 4q0 1 -0.5 3t-0.5 4q-3 43 -4.5 128.5t-4.5 128.5q-2 13 -7 13zM252 28q-9 0 -10.5 1.5t-2.5 11.5l-7 86l-9 92q-1 9 -5 9q-1 0 -3 -0.5t-4 -0.5q-44 -6 -69 -8q-5 0 -6.5 -0.5t-3.5 -2t-2.5 -3.5
t-0.5 -6l-27 -199q0 -4 -0.5 -5.5t-1.5 -3t-3 -1.5h-6q-1 0 -32.5 -1.5t-47.5 -1.5q-7 0 -7 5q0 4 1 7q15 101 30 226q4 29 8.5 61.5t10 72t8.5 61.5q5 34 39 255q3 20 5 23t14 3h2q-30 29 -30 72q0 38 20.5 64.5t69.5 26.5q41 0 61.5 -26.5t20.5 -58.5q0 -43 -33 -78h6
q6 0 8.5 -0.5t4.5 -3t2.5 -5.5t1.5 -11l70 -651v-6q0 -4 -10 -4h-62zM202 751q5 14 5 29q0 14 -5 31q-3 10 -27 10q-15 0 -27 -5q-5 -15 -5 -31q0 -13 7 -34h52z" />
    <glyph glyph-name="AE" unicode="&#xc6;" horiz-adv-x="458" 
d="M440 126v-69q0 -13 -2.5 -15.5t-16.5 -2.5l-96 -1l-102 2h-9q-12 0 -15 3.5t-3 21.5v159q-26 -4 -43 -5q-5 0 -7 -0.5t-4 -1.5t-2.5 -3.5t-0.5 -6.5l-26 -199q0 -4 -0.5 -5.5t-2 -3t-3.5 -1.5h-6q-9 0 -25 -1t-29 -1.5t-25 -0.5q-8 0 -8 5q0 4 1 7q15 101 30 226
q10 65 28 195q5 34 39 255q4 24 8 25q2 1 10 1h10h100h7h8l146 4h5q10 0 11.5 -3t2.5 -16q2 -40 2 -62q0 -9 -1.5 -10.5t-9.5 -1.5h-3h-110q-11 0 -13 -3t-2 -14l-3 -147v-5q0 -6 2 -7.5t10 -1.5l112 -1q10 0 12.5 -1t2.5 -6v-8l-4 -66q-1 -10 -3 -11.5t-12 -2.5l-91 -4
q-7 0 -9 -1.5t-2 -7.5v-4l1 -167q0 -12 2 -14.5t13 -2.5h54l58 -1q9 0 11.5 -2t2.5 -9v-7zM196 612l-26 -2q-3 0 -5 -14l-31 -257v-5q0 -4 10 -4l52 -1v283z" />
    <glyph glyph-name="Ccedilla" unicode="&#xc7;" horiz-adv-x="349" 
d="M257 261q0 11 -0.5 32t-0.5 31q0 6 1.5 7.5t8.5 1.5q26 0 39 -1q12 -1 15 -3.5t3 -12.5q0 -39 -1 -65.5t-4.5 -64.5t-11.5 -64t-21 -52.5t-35 -42.5t-51 -22l-3 -29q24 -11 34 -27.5t10 -47.5q0 -33 -26 -54t-67 -21q-29 0 -46 22t-17 56q0 9 7 11q27 5 35 5
q3 0 8.5 -19.5t16.5 -19.5q27 0 27 32q0 11 -4.5 19t-9 11.5t-12.5 7.5t-9 5l5 47h1q-57 8 -87.5 59.5t-35.5 109.5q-4 53 -4 120q0 34 1.5 92t1.5 69q2 68 17.5 124.5t56 98t100.5 41.5q55 0 92.5 -44t37.5 -118v-25q0 -10 0.5 -31.5t0.5 -31.5q0 -6 -1 -9.5t-1.5 -5.5
t-4 -3t-4.5 -1.5t-7.5 -1t-8.5 -0.5q-54 -3 -57 -3q-9 0 -11 3.5t-2 16.5q0 7 -0.5 27.5t-1 32t-2 30t-4.5 29t-7.5 22t-12 17t-17.5 5.5q-54 0 -71 -26q-8 -35 -8 -139v-146q0 -181 65 -181q26 0 43.5 10t25.5 29.5t11 39.5t3 48z" />
    <glyph glyph-name="Egrave" unicode="&#xc8;" horiz-adv-x="286" 
d="M23 820q-15 15 -15 20q0 8 30 10h51q8 0 13.5 -2.5t7.5 -4.5t6.5 -8.5t7.5 -9.5l55 -86q2 -4 2 -5q0 -8 -11 -8l-53 1q-15 0 -25 12q-4 4 -17 20.5t-27 33t-25 27.5zM270 111v-69q0 -13 -2.5 -15.5t-16.5 -2.5l-96 -1l-102 2h-9q-12 0 -15 3.5t-3 20.5v619v7q0 11 3 13
t16 3l186 6h5q10 0 11.5 -2.5t2.5 -15.5q2 -40 2 -63q0 -9 -1.5 -10.5t-9.5 -1.5h-3h-110q-11 0 -13 -2.5t-2 -13.5l-3 -148v-5q0 -5 2 -6.5t10 -1.5l112 -1q10 0 12.5 -1t2.5 -6v-8l-4 -66q-1 -10 -3 -11.5t-12 -2.5l-91 -4q-7 0 -9 -2t-2 -8v-4l1 -167q0 -12 2 -14t13 -2
h54l58 -1q9 0 11.5 -2t2.5 -9v-7z" />
    <glyph glyph-name="Eacute" unicode="&#xc9;" horiz-adv-x="286" 
d="M276 818q-11 -11 -25 -27.5t-27 -33t-17 -20.5q-11 -12 -25 -12l-53 -1q-11 0 -11 8q0 1 2 5l55 86q3 3 7.5 9.5t6.5 8.5t7.5 4.5t13.5 2.5h51q30 -2 30 -10q0 -5 -15 -20zM270 111v-69q0 -13 -2.5 -15.5t-16.5 -2.5l-96 -1l-102 2h-9q-12 0 -15 3.5t-3 20.5v619v7
q0 11 3 13t16 3l186 6h5q10 0 11.5 -2.5t2.5 -15.5q2 -40 2 -63q0 -9 -1.5 -10.5t-9.5 -1.5h-3h-110q-11 0 -13 -2.5t-2 -13.5l-3 -148v-5q0 -5 2 -6.5t10 -1.5l112 -1q10 0 12.5 -1t2.5 -6v-8l-4 -66q-1 -10 -3 -11.5t-12 -2.5l-91 -4q-7 0 -9 -2t-2 -8v-4l1 -167
q0 -12 2 -14t13 -2h54l58 -1q9 0 11.5 -2t2.5 -9v-7z" />
    <glyph glyph-name="Ecircumflex" unicode="&#xca;" horiz-adv-x="286" 
d="M95 838q1 0 26.5 1.5t40.5 1.5q27 0 28 -4q4 -9 48 -101q1 -2 1 -4q0 -8 -11 -8l-47 1q-4 0 -6 0.5t-3.5 0.5t-3 1.5t-1.5 2t-1.5 3.5t-1.5 4l-24 49l-25 -44q-8 -15 -20 -15h-2l-42 1q-15 0 -15 8t5 15q6 11 14.5 26.5t13.5 24.5l10 18t9 13.5t7 4.5zM270 111v-69
q0 -13 -2.5 -15.5t-16.5 -2.5l-96 -1l-102 2h-9q-12 0 -15 3.5t-3 20.5v619v7q0 11 3 13t16 3l186 6h5q10 0 11.5 -2.5t2.5 -15.5q2 -40 2 -63q0 -9 -1.5 -10.5t-9.5 -1.5h-3h-110q-11 0 -13 -2.5t-2 -13.5l-3 -148v-5q0 -5 2 -6.5t10 -1.5l112 -1q10 0 12.5 -1t2.5 -6v-8
l-4 -66q-1 -10 -3 -11.5t-12 -2.5l-91 -4q-7 0 -9 -2t-2 -8v-4l1 -167q0 -12 2 -14t13 -2h54l58 -1q9 0 11.5 -2t2.5 -9v-7z" />
    <glyph glyph-name="Edieresis" unicode="&#xcb;" horiz-adv-x="286" 
d="M195 800q17 0 32 -10t15 -27q0 -21 -14.5 -31t-34.5 -10q-14 0 -27.5 12.5t-13.5 26.5q0 17 12.5 28t30.5 11zM86 724q-16 0 -28.5 10t-12.5 26q0 14 13.5 27t27.5 13q20 0 34.5 -10t14.5 -31q0 -17 -15 -26t-34 -9zM270 111v-69q0 -13 -2.5 -15.5t-16.5 -2.5l-96 -1
l-102 2h-9q-12 0 -15 3.5t-3 20.5v619v7q0 11 3 13t16 3l186 6h5q10 0 11.5 -2.5t2.5 -15.5q2 -40 2 -63q0 -9 -1.5 -10.5t-9.5 -1.5h-3h-110q-11 0 -13 -2.5t-2 -13.5l-3 -148v-5q0 -5 2 -6.5t10 -1.5l112 -1q10 0 12.5 -1t2.5 -6v-8l-4 -66q-1 -10 -3 -11.5t-12 -2.5
l-91 -4q-7 0 -9 -2t-2 -8v-4l1 -167q0 -12 2 -14t13 -2h54l58 -1q9 0 11.5 -2t2.5 -9v-7z" />
    <glyph glyph-name="Igrave" unicode="&#xcc;" horiz-adv-x="138" 
d="M-51 812q-15 17 -15 19q0 9 31 11h51q7 0 12.5 -2.5t7.5 -4.5t7.5 -8.5t7.5 -9.5l55 -86q0 -1 2 -3l1 -2q0 -8 -13 -8l-53 1q-13 0 -25 12q-48 60 -69 81zM53 679l34 -1q17 -1 21.5 -5t4.5 -18v-10v-595q0 -23 -4 -27t-27 -7l-29 -4q-14 -2 -17 -2q-7 0 -8.5 5t-1.5 23
v318v285v19q0 11 4 15t16 4h7z" />
    <glyph glyph-name="Iacute" unicode="&#xcd;" horiz-adv-x="138" 
d="M193 812q-14 -14 -40 -45.5t-30 -35.5q-9 -12 -25 -12l-53 -1q-10 0 -10 8q0 3 2 5l55 86q3 3 7 9.5t6.5 9t8 4.5t13.5 2h51q29 -2 29 -11q0 -6 -14 -19zM53 679l34 -1q17 -1 21.5 -5t4.5 -18v-10v-595q0 -23 -4 -27t-27 -7l-29 -4q-14 -2 -17 -2q-7 0 -8.5 5t-1.5 23
v318v285v19q0 11 4 15t16 4h7z" />
    <glyph glyph-name="Icircumflex" unicode="&#xce;" horiz-adv-x="138" 
d="M29 831q1 0 25.5 2t39.5 2q29 0 29 -5q14 -31 25.5 -55t21.5 -45q2 -2 2 -4q0 -8 -10 -8l-47 1q-14 0 -19 12l-22 49l-27 -44q-8 -15 -18 -15h-2l-43 1q-15 0 -15 8t4 14q7 11 15.5 26.5t13.5 24.5t10.5 18t9.5 13.5t7 4.5zM53 679l34 -1q17 -1 21.5 -5t4.5 -18v-10v-595
q0 -23 -4 -27t-27 -7l-29 -4q-14 -2 -17 -2q-7 0 -8.5 5t-1.5 23v318v285v19q0 11 4 15t16 4h7z" />
    <glyph glyph-name="Idieresis" unicode="&#xcf;" horiz-adv-x="138" 
d="M123 796q18 0 33 -10t15 -27q0 -21 -14.5 -31t-34.5 -10q-14 0 -28 12.5t-14 26.5q0 17 12.5 28t30.5 11zM15 720q-17 0 -29.5 9.5t-12.5 26.5q0 14 14 27t28 13q20 0 35 -10t15 -31q0 -17 -15.5 -26t-34.5 -9zM53 679l34 -1q17 -1 21.5 -5t4.5 -18v-10v-595
q0 -23 -4 -27t-27 -7l-29 -4q-14 -2 -17 -2q-7 0 -8.5 5t-1.5 23v318v285v19q0 11 4 15t16 4h7z" />
    <glyph glyph-name="Eth" unicode="&#xd0;" horiz-adv-x="338" 
d="M131 99q58 0 79.5 41t21.5 113q0 12 0.5 46.5t0.5 55.5v17q0 35 -0.5 56t-2.5 53t-5.5 52t-11 43.5t-18 37t-26.5 22.5t-36 9h-8q-7 0 -9 -2.5t-2 -12.5v-36v-169l45 -1q15 0 18.5 -2.5t3.5 -14.5v-5l-1 -46q0 -6 -0.5 -9.5t-1 -6.5t-2 -4.5t-2 -3t-4 -1.5t-5.5 -0.5
t-8 -0.5h-9l-33 -1v-181v-31q0 -18 6 -18h10zM27 17v56v255q-3 0 -8 -0.5t-7 -0.5q-26 0 -26 23v35v17q1 17 4 22t13 5h1l23 -1v285q3 4 11 4h4h68h31h17q48 -2 83 -28q34 -26 51 -79.5t19.5 -97.5t2.5 -124v-10v-32q0 -174 -57 -260.5t-207 -92.5h-9q-10 0 -12 3.5t-2 20.5
z" />
    <glyph glyph-name="Ntilde" unicode="&#xd1;" horiz-adv-x="363" 
d="M140 741q-1 -10 -9 -10l-44 1q-8 0 -8 11v9q0 34 19.5 56.5t41.5 22.5q24 0 43.5 -19.5t27.5 -19.5q13 0 17 6.5t4 29.5v1q0 6 7 6l48 -2q7 -1 8 -12q0 -3 0.5 -7t0.5 -7q0 -33 -17 -54t-38 -21q-16 0 -27.5 6.5t-17 14t-13 14t-16.5 6.5q-23 0 -27 -32zM254 297
q0 64 -1.5 192.5t-1.5 191.5v5q0 16 3.5 19t20.5 4l25 2h16q12 0 15.5 -5t3.5 -24v-20q1 -69 1 -208t1 -208l1 -167v-17q0 -17 -5.5 -21t-30.5 -4h-33q-12 0 -19.5 1.5t-12 2t-7.5 6.5t-4 7.5t-3 13t-3 15.5q-11 47 -43.5 174.5t-48.5 197.5q-5 -43 -5 -102q0 -45 2 -136
t2 -137q0 -6 -0.5 -17t-0.5 -16q-1 -31 -6.5 -36.5t-36.5 -5.5h-25q-21 0 -26.5 5t-5.5 20v22v617v15q0 12 4 15.5t21 3.5h48q6 0 10 -0.5t7 -0.5t5 -1.5t3.5 -2t2.5 -4t1.5 -4.5t1.5 -6.5t2 -8.5q5 -20 28 -115t44 -172.5t41 -128.5l7 -13q2 0 2 27v24z" />
    <glyph glyph-name="Ograve" unicode="&#xd2;" horiz-adv-x="403" 
d="M91 812q-14 14 -14 19q0 9 29 11h52q8 0 13.5 -2.5t7.5 -4.5t6.5 -8.5t7.5 -9.5l55 -86q2 -4 2 -5q0 -8 -11 -8l-54 1q-13 0 -24 12q-3 4 -17 20.5l-28 33t-25 27.5zM387 324q0 -326 -185 -326q-49 0 -86.5 31t-58 80.5t-30.5 104t-10 110.5q0 52 5 100.5t18.5 99.5
t34.5 88t56.5 61t80.5 24q40 0 70.5 -16.5t49 -48.5t30.5 -65.5t17 -81.5t6.5 -81.5t1.5 -79.5zM266 112q24 41 24 179v141q0 134 -30 171q-10 10 -60 10q-17 0 -32.5 -5.5t-17.5 -14.5q-30 -69 -30 -232q0 -193 26 -249q7 -15 43 -15h23h22q24 0 32 15z" />
    <glyph glyph-name="Oacute" unicode="&#xd3;" horiz-adv-x="403" 
d="M333 812q-11 -11 -25 -27.5l-28 -33t-17 -20.5q-11 -12 -24 -12l-54 -1q-11 0 -11 8q0 1 2 5l55 86q3 3 7.5 9.5t6.5 8.5t7.5 4.5t13.5 2.5h51q30 -2 30 -11q0 -5 -14 -19zM387 324q0 -326 -185 -326q-49 0 -86.5 31t-58 80.5t-30.5 104t-10 110.5q0 52 5 100.5
t18.5 99.5t34.5 88t56.5 61t80.5 24q40 0 70.5 -16.5t49 -48.5t30.5 -65.5t17 -81.5t6.5 -81.5t1.5 -79.5zM266 112q24 41 24 179v141q0 134 -30 171q-10 10 -60 10q-17 0 -32.5 -5.5t-17.5 -14.5q-30 -69 -30 -232q0 -193 26 -249q7 -15 43 -15h23h22q24 0 32 15z" />
    <glyph glyph-name="Ocircumflex" unicode="&#xd4;" horiz-adv-x="403" 
d="M170 831q1 0 26.5 2t40.5 2q26 0 28 -5q8 -19 47 -100q1 -2 1 -4q0 -8 -10 -8l-47 1q-4 0 -6 0.5t-3.5 0.5t-3 1.5t-1.5 2t-1.5 3.5t-1.5 4l-24 49l-26 -44q-8 -15 -19 -15h-2l-42 1q-15 0 -15 8q0 6 5 14q6 11 14.5 26.5t13.5 24.5l10 18t9 13.5t7 4.5zM387 324
q0 -326 -185 -326q-49 0 -86.5 31t-58 80.5t-30.5 104t-10 110.5q0 52 5 100.5t18.5 99.5t34.5 88t56.5 61t80.5 24q40 0 70.5 -16.5t49 -48.5t30.5 -65.5t17 -81.5t6.5 -81.5t1.5 -79.5zM266 112q24 41 24 179v141q0 134 -30 171q-10 10 -60 10q-17 0 -32.5 -5.5
t-17.5 -14.5q-30 -69 -30 -232q0 -193 26 -249q7 -15 43 -15h23h22q24 0 32 15z" />
    <glyph glyph-name="Otilde" unicode="&#xd5;" horiz-adv-x="403" 
d="M165 728q-1 -10 -9 -10l-44 1q-9 0 -9 11v8q0 34 20 57t42 23q24 0 43.5 -20t27.5 -20q13 0 17 7t4 30v1q0 5 6 5l48 -2q7 -1 8 -11q0 -2 1 -7t1 -7q0 -33 -17 -54t-39 -21q-21 0 -33.5 10.5t-21 20.5t-19.5 10q-22 0 -26 -32zM387 324q0 -326 -185 -326q-49 0 -86.5 31
t-58 80.5t-30.5 104t-10 110.5q0 52 5 100.5t18.5 99.5t34.5 88t56.5 61t80.5 24q40 0 70.5 -16.5t49 -48.5t30.5 -65.5t17 -81.5t6.5 -81.5t1.5 -79.5zM266 112q24 41 24 179v141q0 134 -30 171q-10 10 -60 10q-17 0 -32.5 -5.5t-17.5 -14.5q-30 -69 -30 -232
q0 -193 26 -249q7 -15 43 -15h23h22q24 0 32 15z" />
    <glyph glyph-name="Odieresis" unicode="&#xd6;" horiz-adv-x="403" 
d="M262 796q19 0 34 -10t15 -27q0 -21 -14.5 -31t-34.5 -10q-15 0 -29 12.5t-14 26.5q0 17 12.5 28t30.5 11zM156 720q-18 0 -30.5 9.5t-12.5 26.5q0 14 14 27t29 13q20 0 34.5 -10t14.5 -31q0 -16 -15.5 -25.5t-33.5 -9.5zM387 324q0 -326 -185 -326q-49 0 -86.5 31
t-58 80.5t-30.5 104t-10 110.5q0 52 5 100.5t18.5 99.5t34.5 88t56.5 61t80.5 24q40 0 70.5 -16.5t49 -48.5t30.5 -65.5t17 -81.5t6.5 -81.5t1.5 -79.5zM266 112q24 41 24 179v141q0 134 -30 171q-10 10 -60 10q-17 0 -32.5 -5.5t-17.5 -14.5q-30 -69 -30 -232
q0 -193 26 -249q7 -15 43 -15h23h22q24 0 32 15z" />
    <glyph glyph-name="multiply" unicode="&#xd7;" horiz-adv-x="322" 
d="M103 137l-72 -4h-9q-8 0 -8 3q0 1 1.5 4.5t2.5 6.5q15 32 40.5 90t40.5 90q2 4 2 8q0 3 -3 11q-13 26 -40 78.5t-39 78.5q-2 6 -2 7q0 5 13 5l33 2h29q8 0 10.5 -2t5.5 -10q28 -70 42 -103l5 -10q1 0 6 9q7 15 20 46.5t19 47.5q2 5 2.5 6t2.5 3.5t4 2.5h7h5l74 -2
q10 0 10 -3q0 -2 -3 -7q-15 -33 -41.5 -88.5t-36.5 -77.5q-3 -7 -3 -12q0 -3 3 -9q13 -28 38 -86t39 -87q0 -1 2 -4t2 -4q0 -2 -9 -2l-70 -2q-9 0 -11 5l-1 2q-6 16 -21.5 59.5t-24.5 64.5q-3 9 -5 9t-5 -9q-7 -18 -16.5 -51.5t-14.5 -48.5q-3 -10 -7 -13t-17 -4z" />
    <glyph glyph-name="Oslash" unicode="&#xd8;" horiz-adv-x="411" 
d="M267 132q7 27 15 94.5t8 94.5v50q0 11 0.5 38.5t0.5 43.5v30l-123 -364q6 -1 22 -1h23h23q28 0 31 14zM372 535q16 -110 16 -191q0 -326 -185 -326q-35 0 -64 16q-6 -18 -12 -22t-28 -7q-18 -4 -38 -4q-7 0 -7 5q0 3 8 23l20 58q-64 93 -64 257q0 67 9 127t29 118.5
t60.5 93.5t96.5 35q42 0 76 -24l2 5q9 19 28 19h8l19 -1q21 -1 21 -8l-26 -77q24 -46 31 -97zM264 621l-3 3q-10 10 -60 10q-17 0 -32.5 -6t-17.5 -15q-30 -69 -30 -231q0 -84 8 -159z" />
    <glyph glyph-name="Ugrave" unicode="&#xd9;" horiz-adv-x="344" 
d="M47 816q-14 16 -14 20q0 8 30 10h52q7 0 12.5 -2.5t7.5 -4.5t7.5 -8.5t7.5 -9.5l55 -86q0 -1 1 -3l1 -2q0 -8 -12 -8l-54 1q-12 0 -24 12q-44 55 -70 81zM123 617q-2 -37 -2 -102v-66v-96q0 -272 48 -272q56 0 56 228v64q0 104 -6 272q0 6 -0.5 13.5t-0.5 9.5q0 7 2.5 10
t7 4t15.5 2l65 6h3q5 0 6 -4.5t2 -22.5q2 -64 2 -133q0 -30 0.5 -94.5t0.5 -96.5v-95q0 -48 -2.5 -80.5t-11 -67t-24 -55t-43.5 -33.5t-67 -13q-96 0 -129 113q-16 60 -20 155q-2 64 -2 124v51q0 110 5 174v6q2 26 10 29q4 2 11 2h67q7 0 7 -12v-20z" />
    <glyph glyph-name="Uacute" unicode="&#xda;" horiz-adv-x="344" 
d="M301 816q-14 -14 -40 -45.5t-30 -35.5q-9 -12 -24 -12l-53 -1q-11 0 -11 8q0 3 2 5l56 86q3 3 7 9.5t6.5 9t8 4.5t13.5 2h51q28 -2 28 -10q0 -7 -14 -20zM123 617q-2 -37 -2 -102v-66v-96q0 -272 48 -272q56 0 56 228v64q0 104 -6 272q0 6 -0.5 13.5t-0.5 9.5q0 7 2.5 10
t7 4t15.5 2l65 6h3q5 0 6 -4.5t2 -22.5q2 -64 2 -133q0 -30 0.5 -94.5t0.5 -96.5v-95q0 -48 -2.5 -80.5t-11 -67t-24 -55t-43.5 -33.5t-67 -13q-96 0 -129 113q-16 60 -20 155q-2 64 -2 124v51q0 110 5 174v6q2 26 10 29q4 2 11 2h67q7 0 7 -12v-20z" />
    <glyph glyph-name="Ucircumflex" unicode="&#xdb;" horiz-adv-x="344" 
d="M133 831q1 0 26 2t40 2q28 0 28 -5q14 -31 25.5 -55t21.5 -45q2 -2 2 -4q0 -8 -10 -8l-47 1q-7 0 -10.5 1.5t-4 3t-3.5 7.5l-23 49l-26 -44q-8 -15 -19 -15h-2l-43 1q-14 0 -14 8t4 14q8 14 22.5 40.5t21 36.5t11.5 10zM123 617q-2 -37 -2 -102v-66v-96q0 -272 48 -272
q56 0 56 228v64q0 104 -6 272q0 6 -0.5 13.5t-0.5 9.5q0 7 2.5 10t7 4t15.5 2l65 6h3q5 0 6 -4.5t2 -22.5q2 -64 2 -133q0 -30 0.5 -94.5t0.5 -96.5v-95q0 -48 -2.5 -80.5t-11 -67t-24 -55t-43.5 -33.5t-67 -13q-96 0 -129 113q-16 60 -20 155q-2 64 -2 124v51q0 110 5 174
v6q2 26 10 29q4 2 11 2h67q7 0 7 -12v-20z" />
    <glyph glyph-name="Udieresis" unicode="&#xdc;" horiz-adv-x="344" 
d="M221 800q18 0 33 -10t15 -27q0 -21 -14.5 -31t-34.5 -10q-14 0 -28 12.5t-14 26.5q0 17 12.5 28t30.5 11zM114 724q-17 0 -29.5 9.5t-12.5 26.5q0 14 14 27t28 13q20 0 34.5 -10t14.5 -31q0 -17 -15 -26t-34 -9zM123 617q-2 -37 -2 -102v-66v-96q0 -272 48 -272
q56 0 56 228v64q0 104 -6 272q0 6 -0.5 13.5t-0.5 9.5q0 7 2.5 10t7 4t15.5 2l65 6h3q5 0 6 -4.5t2 -22.5q2 -64 2 -133q0 -30 0.5 -94.5t0.5 -96.5v-95q0 -48 -2.5 -80.5t-11 -67t-24 -55t-43.5 -33.5t-67 -13q-96 0 -129 113q-16 60 -20 155q-2 64 -2 124v51q0 110 5 174
v6q2 26 10 29q4 2 11 2h67q7 0 7 -12v-20z" />
    <glyph glyph-name="Yacute" unicode="&#xdd;" horiz-adv-x="376" 
d="M314 808q-11 -11 -25 -27.5t-27 -33t-17 -20.5q-11 -12 -25 -12l-53 -1q-11 0 -11 8q0 1 2 5l55 86q3 3 7.5 9.5t6.5 8.5t7.5 4.5t13.5 2.5h51q30 -2 30 -11q0 -4 -15 -19zM24 645l60 1h3q22 0 28 -21q2 -7 12.5 -44t15.5 -52t16 -42.5t24 -49.5q5 -11 8 -11t7 14
q10 32 23.5 79t23.5 77.5t25 71.5q4 11 8 14t18 3l65 1q16 -2 16 -11q0 -4 -1 -6q-90 -230 -135 -346q-8 -19 -8 -42q0 -54 4.5 -142t5.5 -115v-13q0 -7 -3.5 -9t-15.5 -2h-82q-13 0 -17 2t-4 9q0 1 0.5 5t0.5 7q9 204 9 235q0 72 -32 136q-21 41 -50.5 117.5t-39.5 100.5
q-8 16 -8 22q0 11 23 11z" />
    <glyph glyph-name="Thorn" unicode="&#xde;" horiz-adv-x="313" 
d="M124 168l-2 -122q0 -21 -3.5 -25t-24.5 -4h-49q-10 0 -11.5 3.5t-2.5 22.5q-7 280 -7 493q0 66 2 154v9q1 16 6 18l12 1h65q12 0 12 -9q0 -1 -0.5 -6t-0.5 -8l-2 -137q47 -2 58 -3q116 -11 116 -176q0 -80 -39.5 -133.5t-112.5 -59.5q-12 -1 -14 -3t-2 -15zM208 389
q0 56 -21 76.5t-70 20.5q-8 0 -10 -2.5t-2 -10.5v-6l3 -171q0 -14 7 -14q45 0 69 34t24 73z" />
    <glyph glyph-name="germandbls" unicode="&#xdf;" horiz-adv-x="683" 
d="M635 415q-24 -3 -25 -3q-2 0 -26 3q-3 1 -5 2t-4 1.5t-3 2t-2 2.5t-1.5 4t-1 4t-1.5 5.5t-1 6.5q-1 9 -1.5 25t-1.5 29t-3 25q-1 3 -5 21t-7 28t-9.5 24t-16 21t-21.5 7t-23 -7q-21 -18 -29.5 -40t-11.5 -59v-7q0 -79 117 -126q113 -47 113 -189q0 -100 -76 -164
q-32 -27 -72 -27q-42 0 -65 10q-109 43 -109 204q0 45 4 69q1 14 5 17t16 3q13 0 41 -6q14 -3 17 -6.5t3 -20.5q0 -32 1.5 -53.5t6 -48.5t16.5 -42t31 -16q33 0 55.5 21t22.5 55q0 31 -8 63q-5 21 -19 34t-42.5 25.5t-36.5 17.5q-88 54 -88 142q0 98 41 158.5t118 61.5
q65 0 96 -58t31 -141q0 -39 -4 -56q-1 -8 -1.5 -10.5t-2 -5.5t-4 -4t-8.5 -2zM164 -1q-65 0 -97 61.5t-32 147.5v22q1 14 2 18t4.5 6t15.5 3l60 5q6 1 14 1t10 -4t2 -19v-4v-45v-68v-3q0 -16 8 -21q11 -8 24 -8q26 0 47 7q17 6 17 44q0 119 -70 155q-42 22 -56 32
q-97 71 -97 192q0 35 11 82q14 59 55 91.5t102 32.5q151 0 151 -229q0 -23 -3 -47q-1 -12 -14 -12q-2 0 -6 0.5t-7 0.5l-35 4q-21 2 -23 6q-2 3 -2 18v6q-3 165 -68 165q-36 0 -53.5 -40t-17.5 -84q0 -19 2.5 -34t9.5 -27.5t12 -20t18.5 -17.5t18.5 -13.5t23.5 -13
t23.5 -12.5q53 -29 74 -77.5t21 -125.5q0 -83 -36.5 -129t-108.5 -46z" />
    <glyph glyph-name="agrave" unicode="&#xe0;" horiz-adv-x="362" 
d="M66 823q-15 15 -15 20q0 8 30 10h51q8 0 13.5 -2.5t7.5 -4.5t6.5 -8.5t7.5 -9.5l55 -86q2 -4 2 -5q0 -8 -11 -8l-53 1q-14 0 -25 12q-4 4 -17 20.5t-27 33t-25 27.5zM344 -12l-43 -5q-12 -2 -13 -2q-6 0 -8 4t-4 15l-29 237q-2 14 -5 17.5t-15 3.5h-6l-67 -2
q-7 0 -10 -0.5t-5 -3t-2.5 -5t-0.5 -9.5q-2 -33 -5 -98t-5 -98q0 -11 -0.5 -14t-3 -7.5t-7 -5.5t-13.5 -1l-73 -2h-5q-13 0 -13 7q0 8 1 15q4 35 34 281t46 366q1 12 5 15.5t16 3.5h19q14 0 61 1t59 1q28 0 34.5 -4.5t8.5 -28.5q22 -238 26 -286q5 -65 19 -200t18 -172
q1 -6 1 -13q0 -8 -15 -10zM160 587q-20 -112 -26 -206v-8q0 -6 10 -6h76q7 0 7 4v10l-19 203q-1 14 -15 14h-8h-11q-12 0 -14 -11z" />
    <glyph glyph-name="aacute" unicode="&#xe1;" horiz-adv-x="362" 
d="M317 823q-11 -11 -25 -27.5t-27 -33t-17 -20.5q-11 -12 -25 -12l-53 -1q-11 0 -11 8q0 1 2 5l55 86q3 3 7.5 9.5t6.5 8.5t7.5 4.5t13.5 2.5h51q30 -2 30 -10q0 -5 -15 -20zM344 -12l-43 -5q-12 -2 -13 -2q-6 0 -8 4t-4 15l-29 237q-2 14 -5 17.5t-15 3.5h-6l-67 -2
q-7 0 -10 -0.5t-5 -3t-2.5 -5t-0.5 -9.5q-2 -33 -5 -98t-5 -98q0 -11 -0.5 -14t-3 -7.5t-7 -5.5t-13.5 -1l-73 -2h-5q-13 0 -13 7q0 8 1 15q4 35 34 281t46 366q1 12 5 15.5t16 3.5h19q14 0 61 1t59 1q28 0 34.5 -4.5t8.5 -28.5q22 -238 26 -286q5 -65 19 -200t18 -172
q1 -6 1 -13q0 -8 -15 -10zM160 587q-20 -112 -26 -206v-8q0 -6 10 -6h76q7 0 7 4v10l-19 203q-1 14 -15 14h-8h-11q-12 0 -14 -11z" />
    <glyph glyph-name="acircumflex" unicode="&#xe2;" horiz-adv-x="362" 
d="M153 843q1 0 26 1.5t40 1.5q28 0 29 -4q12 -29 47 -101q1 -2 1 -4q0 -8 -10 -8l-47 1q-7 0 -10.5 1.5t-4 3t-3.5 7.5l-23 50l-26 -44q-9 -16 -19 -16h-2l-42 1q-16 0 -16 8q0 7 5 15q6 11 14.5 26.5t13.5 24.5t10.5 18.5t9.5 13.5t7 4zM344 -12l-43 -5q-12 -2 -13 -2
q-6 0 -8 4t-4 15l-29 237q-2 14 -5 17.5t-15 3.5h-6l-67 -2q-7 0 -10 -0.5t-5 -3t-2.5 -5t-0.5 -9.5q-2 -33 -5 -98t-5 -98q0 -11 -0.5 -14t-3 -7.5t-7 -5.5t-13.5 -1l-73 -2h-5q-13 0 -13 7q0 8 1 15q4 35 34 281t46 366q1 12 5 15.5t16 3.5h19q14 0 61 1t59 1
q28 0 34.5 -4.5t8.5 -28.5q22 -238 26 -286q5 -65 19 -200t18 -172q1 -6 1 -13q0 -8 -15 -10zM160 587q-20 -112 -26 -206v-8q0 -6 10 -6h76q7 0 7 4v10l-19 203q-1 14 -15 14h-8h-11q-12 0 -14 -11z" />
    <glyph glyph-name="atilde" unicode="&#xe3;" horiz-adv-x="362" 
d="M143 739q-1 -10 -9 -10l-44 1q-8 0 -8 11v9q0 34 19.5 56.5t41.5 22.5q24 0 43.5 -19.5t27.5 -19.5q14 0 18 7t4 29v1q0 6 6 6l48 -3q7 -1 8 -11q0 -3 0.5 -7t0.5 -7q0 -33 -17 -54t-38 -21q-26 0 -44 20.5t-30 20.5q-23 0 -27 -32zM344 -12l-43 -5q-12 -2 -13 -2
q-6 0 -8 4t-4 15l-29 237q-2 14 -5 17.5t-15 3.5h-6l-67 -2q-7 0 -10 -0.5t-5 -3t-2.5 -5t-0.5 -9.5q-2 -33 -5 -98t-5 -98q0 -11 -0.5 -14t-3 -7.5t-7 -5.5t-13.5 -1l-73 -2h-5q-13 0 -13 7q0 8 1 15q4 35 34 281t46 366q1 12 5 15.5t16 3.5h19q14 0 61 1t59 1
q28 0 34.5 -4.5t8.5 -28.5q22 -238 26 -286q5 -65 19 -200t18 -172q1 -6 1 -13q0 -8 -15 -10zM160 587q-20 -112 -26 -206v-8q0 -6 10 -6h76q7 0 7 4v10l-19 203q-1 14 -15 14h-8h-11q-12 0 -14 -11z" />
    <glyph glyph-name="adieresis" unicode="&#xe4;" horiz-adv-x="362" 
d="M248 807q17 0 32 -10t15 -27q0 -21 -14.5 -31t-34.5 -10q-14 0 -27.5 12.5t-13.5 26.5q0 17 12.5 28t30.5 11zM139 731q-16 0 -28.5 10t-12.5 26q0 14 13.5 27t27.5 13q20 0 34.5 -10t14.5 -31q0 -17 -15 -26t-34 -9zM344 -12l-43 -5q-12 -2 -13 -2q-6 0 -8 4t-4 15
l-29 237q-2 14 -5 17.5t-15 3.5h-6l-67 -2q-7 0 -10 -0.5t-5 -3t-2.5 -5t-0.5 -9.5q-2 -33 -5 -98t-5 -98q0 -11 -0.5 -14t-3 -7.5t-7 -5.5t-13.5 -1l-73 -2h-5q-13 0 -13 7q0 8 1 15q4 35 34 281t46 366q1 12 5 15.5t16 3.5h19q14 0 61 1t59 1q28 0 34.5 -4.5t8.5 -28.5
q22 -238 26 -286q5 -65 19 -200t18 -172q1 -6 1 -13q0 -8 -15 -10zM160 587q-20 -112 -26 -206v-8q0 -6 10 -6h76q7 0 7 4v10l-19 203q-1 14 -15 14h-8h-11q-12 0 -14 -11z" />
    <glyph glyph-name="aring" unicode="&#xe5;" horiz-adv-x="362" 
d="M214 744q5 14 5 30q0 14 -5 31q-3 10 -27 10q-14 0 -26 -5q-5 -15 -5 -31q0 -17 6 -35h52zM160 587q-20 -112 -26 -206v-8q0 -6 10 -6h76q7 0 7 4v10l-19 203q-1 14 -15 14h-8h-11q-12 0 -14 -11zM344 -12l-43 -5q-12 -2 -13 -2q-6 0 -8 4t-4 15l-29 237q-2 14 -5 17.5
t-15 3.5h-6l-67 -2q-7 0 -10 -0.5t-5 -3t-2.5 -5t-0.5 -9.5q-2 -33 -5 -98t-5 -98q0 -11 -0.5 -14t-3 -7.5t-7 -5.5t-13.5 -1l-73 -2h-5q-13 0 -13 7q0 8 1 15q4 35 34 281t46 366q1 12 5 15.5t16 3.5h19h4q-32 26 -32 75q0 38 21 64.5t70 26.5q41 0 61 -26.5t20 -58.5
q0 -46 -33 -79h9q28 0 34.5 -4.5t8.5 -28.5q22 -238 26 -286q5 -65 19 -200t18 -172q1 -6 1 -13q0 -8 -15 -10z" />
    <glyph glyph-name="ae" unicode="&#xe6;" horiz-adv-x="507" 
d="M164 587q-20 -112 -26 -206v-8q0 -6 10 -6l42 1q6 0 17 -0.5t16 -0.5l-1 77l-1 156h-1q-2 0 -21.5 -1t-20.5 -1q-12 0 -14 -11zM225 258l-67 -2q-7 0 -10 -0.5t-5 -3t-2.5 -5t-0.5 -9.5q-2 -33 -5 -98t-5 -98q0 -11 -0.5 -14t-3 -7.5t-7 -5.5t-13.5 -1l-73 -2h-5
q-13 0 -13 7q0 8 1 15q4 35 34 281t46 366q1 12 5 15.5t16 3.5h19q14 0 61 1t59 1q29 0 35 -5t8 -31l160 -2q8 0 11.5 -0.5t5 -2.5t1.5 -7q0 -1 -0.5 -4t-0.5 -5l-5 -63q-2 -16 -6 -18q-4 -1 -16 -1h-112q-9 0 -12 -2.5t-3 -9.5v-10l-1 -109v-7q0 -8 2.5 -9.5t13.5 -1.5h95
q2 0 5 0.5t4 0.5q9 0 12 -3.5t3 -16.5v-49q0 -19 -3.5 -23t-21.5 -4q-14 -2 -44 -2h-60q-1 0 -5 0.5t-5 0.5q-11 0 -13.5 -3.5t-2.5 -17.5l-1 -145q0 -20 3 -23.5t23 -3.5l142 -8q14 -2 17 -5t3 -18v-69q0 -18 -2.5 -20.5t-18.5 -2.5h-215q-13 0 -16 3t-3 13v5l-7 202z" />
    <glyph glyph-name="ccedilla" unicode="&#xe7;" horiz-adv-x="343" 
d="M126 507q-13 -123 -13 -176q0 -115 11 -201q4 -25 30 -25q6 0 20.5 0.5t21.5 0.5q17 0 20.5 8.5t3.5 45.5v129q0 9 3 11.5t16 2.5h66q13 0 17 -2t4 -10q0 -124 -29 -197q-32 -83 -99 -99l-2 -22q44 -20 44 -75q0 -33 -26 -54t-67 -21q-29 0 -46 22t-17 56q0 9 7 11
q27 5 35 5q3 0 8.5 -19.5t16.5 -19.5q27 0 27 32q0 11 -4.5 19t-9 11.5t-12.5 7.5t-9 5l5 39q-36 4 -61.5 32t-38 62.5t-20 89t-8.5 90t-1 85.5q0 56 7.5 112t24.5 115t52.5 96t84.5 37q63 0 95.5 -57.5t32.5 -136.5q0 -3 -0.5 -9t-0.5 -9v-5.5t-0.5 -5t-1 -3.5t-1.5 -3
t-3.5 -2t-5.5 -2q-5 -1 -55 -10q-5 -1 -11 -2.5t-7 -1.5q-4 0 -5 21v26q0 112 -41 112q-9 0 -16.5 -4t-12.5 -9.5t-9.5 -15.5t-7 -17.5t-5 -20t-3.5 -18.5t-2.5 -17.5t-1.5 -13.5z" />
    <glyph glyph-name="egrave" unicode="&#xe8;" horiz-adv-x="308" 
d="M40 811q-14 14 -14 19q0 9 29 11h51q8 0 13.5 -2.5t7.5 -4.5t6.5 -8.5t7.5 -9.5l56 -86q2 -4 2 -5q0 -8 -12 -8l-53 1q-13 0 -24 12q-3 4 -17 20.5l-28 33t-25 27.5zM51 678l211 -3q19 0 19 -8q0 -1 -0.5 -4.5t-0.5 -5.5l-6 -63q-2 -17 -6 -19q-4 -1 -16 -1h-112
q-15 0 -15 -11v-11l-1 -108v-8q0 -7 2.5 -8.5t13.5 -1.5h96h9q9 0 11.5 -3t2.5 -15v-50q0 -20 -3 -23t-22 -4q-14 -1 -44 -1h-60h-9q-11 0 -14 -3.5t-3 -17.5l-1 -146q0 -20 3 -23t23 -4l142 -8q15 -1 18 -4t3 -19v-69q0 -17 -3 -20t-19 -3h-215h-7t-5 1l-3 1.5t-1.5 3
t-1 3.5t-0.5 5.5v7.5l-7 203l-4 218l-1 201q0 13 2 17t10 4h14z" />
    <glyph glyph-name="eacute" unicode="&#xe9;" horiz-adv-x="308" 
d="M271 809q-11 -11 -25 -27.5t-27 -33t-17 -20.5q-10 -12 -25 -12l-53 -1q-11 0 -11 8q0 1 2 5l55 86q3 3 7.5 9.5t6.5 8.5t7.5 4.5t13.5 2.5h51q30 -2 30 -11q0 -4 -15 -19zM51 678l211 -3q19 0 19 -8q0 -1 -0.5 -4.5t-0.5 -5.5l-6 -63q-2 -17 -6 -19q-4 -1 -16 -1h-112
q-15 0 -15 -11v-11l-1 -108v-8q0 -7 2.5 -8.5t13.5 -1.5h96h9q9 0 11.5 -3t2.5 -15v-50q0 -20 -3 -23t-22 -4q-14 -1 -44 -1h-60h-9q-11 0 -14 -3.5t-3 -17.5l-1 -146q0 -20 3 -23t23 -4l142 -8q15 -1 18 -4t3 -19v-69q0 -17 -3 -20t-19 -3h-215h-7t-5 1l-3 1.5t-1.5 3
t-1 3.5t-0.5 5.5v7.5l-7 203l-4 218l-1 201q0 13 2 17t10 4h14z" />
    <glyph glyph-name="ecircumflex" unicode="&#xea;" horiz-adv-x="308" 
d="M109 833q1 0 26 1.5t40 1.5q27 0 29 -5q8 -19 47 -100q1 -2 1 -4q0 -8 -10 -8l-47 1q-7 0 -10.5 1.5t-4 3t-3.5 7.5l-23 49l-26 -44q-8 -15 -19 -15h-3l-41 1q-16 0 -16 8q0 7 5 14q6 11 14.5 26.5t13.5 25t10.5 18.5t9.5 13.5t7 4.5zM51 678l211 -3q19 0 19 -8
q0 -1 -0.5 -4.5t-0.5 -5.5l-6 -63q-2 -17 -6 -19q-4 -1 -16 -1h-112q-15 0 -15 -11v-11l-1 -108v-8q0 -7 2.5 -8.5t13.5 -1.5h96h9q9 0 11.5 -3t2.5 -15v-50q0 -20 -3 -23t-22 -4q-14 -1 -44 -1h-60h-9q-11 0 -14 -3.5t-3 -17.5l-1 -146q0 -20 3 -23t23 -4l142 -8
q15 -1 18 -4t3 -19v-69q0 -17 -3 -20t-19 -3h-215h-7t-5 1l-3 1.5t-1.5 3t-1 3.5t-0.5 5.5v7.5l-7 203l-4 218l-1 201q0 13 2 17t10 4h14z" />
    <glyph glyph-name="edieresis" unicode="&#xeb;" horiz-adv-x="308" 
d="M205 799q19 0 34 -10t15 -27q0 -21 -14.5 -31t-34.5 -10q-15 0 -29 12.5t-14 26.5q0 17 12.5 28t30.5 11zM98 723q-18 0 -30.5 9.5t-12.5 26.5q0 14 14 27t29 13q20 0 34.5 -10t14.5 -31q0 -16 -15.5 -25.5t-33.5 -9.5zM51 678l211 -3q19 0 19 -8q0 -1 -0.5 -4.5
t-0.5 -5.5l-6 -63q-2 -17 -6 -19q-4 -1 -16 -1h-112q-15 0 -15 -11v-11l-1 -108v-8q0 -7 2.5 -8.5t13.5 -1.5h96h9q9 0 11.5 -3t2.5 -15v-50q0 -20 -3 -23t-22 -4q-14 -1 -44 -1h-60h-9q-11 0 -14 -3.5t-3 -17.5l-1 -146q0 -20 3 -23t23 -4l142 -8q15 -1 18 -4t3 -19v-69
q0 -17 -3 -20t-19 -3h-215h-7t-5 1l-3 1.5t-1.5 3t-1 3.5t-0.5 5.5v7.5l-7 203l-4 218l-1 201q0 13 2 17t10 4h14z" />
    <glyph glyph-name="igrave" unicode="&#xec;" horiz-adv-x="157" 
d="M-51 815q-15 15 -15 20q0 8 30 10h51q8 0 13.5 -2.5t7.5 -4.5t6.5 -8.5t7.5 -9.5l55 -86q0 -1 2 -3l1 -2q0 -8 -12 -8l-53 1q-15 0 -25 12q-4 4 -17 20.5t-27 33t-25 27.5zM52 675l54 -2q11 -1 14 -3.5t3 -11.5v-5l1 -602v-10q0 -7 -2.5 -8.5t-12.5 -3.5l-63 -10h-8
q-8 0 -8 13v7l-4 609q0 18 2 22.5t13 4.5h11z" />
    <glyph glyph-name="iacute" unicode="&#xed;" horiz-adv-x="157" 
d="M193 815q-11 -11 -25 -27.5l-28 -33t-17 -20.5q-11 -12 -25 -12l-53 -1q-11 0 -11 8q0 1 2 5l55 86q3 3 7.5 9.5t6.5 8.5t7.5 4.5t13.5 2.5h51q30 -2 30 -10q0 -6 -14 -20zM52 675l54 -2q11 -1 14 -3.5t3 -11.5v-5l1 -602v-10q0 -7 -2.5 -8.5t-12.5 -3.5l-63 -10h-8
q-8 0 -8 13v7l-4 609q0 18 2 22.5t13 4.5h11z" />
    <glyph glyph-name="icircumflex" unicode="&#xee;" horiz-adv-x="157" 
d="M32 828q1 0 26 1.5t40 1.5q28 0 29 -4q8 -19 47 -100q1 -2 1 -4q0 -8 -10 -8l-47 1q-7 0 -10.5 1.5t-4 3t-3.5 7.5l-23 49l-26 -44q-8 -15 -19 -15h-2l-42 1q-16 0 -16 8q0 7 5 14q6 11 14.5 26.5t13.5 24.5t10.5 18.5t9.5 13.5t7 4zM52 675l54 -2q11 -1 14 -3.5t3 -11.5
v-5l1 -602v-10q0 -7 -2.5 -8.5t-12.5 -3.5l-63 -10h-8q-8 0 -8 13v7l-4 609q0 18 2 22.5t13 4.5h11z" />
    <glyph glyph-name="idieresis" unicode="&#xef;" horiz-adv-x="157" 
d="M123 795q17 0 32 -10t15 -27q0 -21 -14.5 -31t-34.5 -10q-14 0 -27.5 12.5t-13.5 26.5q0 17 12.5 28t30.5 11zM14 719q-16 0 -28.5 10t-12.5 26q0 14 13.5 27t27.5 13q20 0 34.5 -10t14.5 -31q0 -17 -15 -26t-34 -9zM52 675l54 -2q11 -1 14 -3.5t3 -11.5v-5l1 -602v-10
q0 -7 -2.5 -8.5t-12.5 -3.5l-63 -10h-8q-8 0 -8 13v7l-4 609q0 18 2 22.5t13 4.5h11z" />
    <glyph glyph-name="eth" unicode="&#xf0;" horiz-adv-x="340" 
d="M218 151q18 72 18 227q0 106 -13.5 178.5t-42.5 72.5q-50 0 -65 -6q-14 -5 -14 -22v-2q0 -29 1.5 -95.5t1.5 -77.5l65 -2q15 0 18.5 -2.5t3.5 -14.5v-5l-1 -46v-8.5t-1 -6.5t-1 -4.5t-2 -3t-3 -2t-4 -1t-5 -0.5h-7h-8l-51 -1q7 -165 11 -203q3 0 34.5 2t43.5 3t15 4.5
t6 15.5zM37 63v23q0 107 -5 242q-3 -1 -9 -1q-27 0 -27 23v35v17q1 17 4 22t13 5h1h14q-1 20 -4.5 107t-4.5 131v11q0 10 3 13t15 5q47 10 84 10q79 0 122 -31q26 -20 42 -50.5t22 -76.5t7.5 -77t1.5 -90v-68q0 -46 -3.5 -84t-14.5 -81t-29.5 -71.5t-52.5 -48t-79 -19.5
q-9 0 -34 0.5t-35 0.5q-19 1 -25.5 6.5t-6.5 19.5q0 3 0.5 12t0.5 15z" />
    <glyph glyph-name="ntilde" unicode="&#xf1;" horiz-adv-x="398" 
d="M152 742q0 -10 -9 -10l-45 1q-8 0 -8 11v9q0 34 20 57t42 23q24 0 43 -20t28 -20q13 0 17 6.5t4 29.5v1q0 6 6 6l49 -2q5 -1 8 -12v-14q0 -33 -17 -54t-38 -21q-26 0 -44 20.5t-30 20.5t-17.5 -7t-8.5 -25zM28 645v36q0 7 2 8.5t11 1.5h56q14 0 17.5 -3t6.5 -14
q118 -396 133 -441q3 -10 9 -10t6 15q0 20 -0.5 59.5t-0.5 59.5q0 36 0.5 110t0.5 111q0 21 -1 63t-1 62q0 9 13 9h74q9 0 11.5 -1.5t2.5 -7.5q0 -25 -1 -85.5t-1 -94.5q0 -82 4 -249.5t4 -247.5q0 -9 -3.5 -11t-16.5 -2q-15 0 -43 0.5t-45 0.5q-4 0 -7 0.5t-5.5 1.5
t-3.5 1.5t-2 3t-1.5 4t-1 5t-1.5 5.5q-9 31 -24 88t-28 104t-27 86q-6 17 -17.5 59.5t-20.5 65.5q-5 12 -6 12q-2 0 -2 -116v-76q0 -38 0.5 -112t0.5 -109q0 -10 -3 -13.5t-12 -5.5q-28 -7 -61 -9q-19 0 -19 16v68q0 92 1.5 275.5t1.5 276.5z" />
    <glyph glyph-name="ograve" unicode="&#xf2;" horiz-adv-x="369" 
d="M78 823q-15 15 -15 20q0 8 30 10h51q8 0 13.5 -2.5t7.5 -4.5t6.5 -8.5t7.5 -9.5l55 -86q0 -1 2 -3q1 -1 1 -2q0 -8 -12 -8l-53 1q-14 0 -25 12q-4 4 -17 20.5t-27 33t-25 27.5zM349 346q0 -42 -0.5 -69.5t-4 -67.5t-10 -66t-19 -55.5t-30 -46.5t-44 -28.5t-60.5 -11.5
q-51 0 -85.5 32.5t-50 87.5t-21.5 104.5t-6 105.5q0 45 1.5 80t7 83t18 82.5t31.5 66.5t50.5 49t72.5 17q34 0 59.5 -14.5t41.5 -42.5t26 -59.5t15 -77t6.5 -82.5t1.5 -87zM104 333q0 -143 12 -186q6 -24 16.5 -31t30.5 -7q19 0 30 1q32 3 40.5 14.5t10.5 39.5q7 109 7 195
q0 80 -4 169q-1 31 -3.5 47t-14.5 30.5t-35 14.5h-1q-34 0 -46.5 -9t-20.5 -50q-22 -100 -22 -228z" />
    <glyph glyph-name="oacute" unicode="&#xf3;" horiz-adv-x="369" 
d="M319 823q-11 -11 -25 -27.5t-27 -33t-17 -20.5q-10 -12 -25 -12l-53 -1q-11 0 -11 8q0 1 2 5l55 86q3 3 7.5 9.5t6.5 8.5t7.5 4.5t13.5 2.5h51q30 -2 30 -10q0 -5 -15 -20zM349 346q0 -42 -0.5 -69.5t-4 -67.5t-10 -66t-19 -55.5t-30 -46.5t-44 -28.5t-60.5 -11.5
q-51 0 -85.5 32.5t-50 87.5t-21.5 104.5t-6 105.5q0 45 1.5 80t7 83t18 82.5t31.5 66.5t50.5 49t72.5 17q34 0 59.5 -14.5t41.5 -42.5t26 -59.5t15 -77t6.5 -82.5t1.5 -87zM104 333q0 -143 12 -186q6 -24 16.5 -31t30.5 -7q19 0 30 1q32 3 40.5 14.5t10.5 39.5q7 109 7 195
q0 80 -4 169q-1 31 -3.5 47t-14.5 30.5t-35 14.5h-1q-34 0 -46.5 -9t-20.5 -50q-22 -100 -22 -228z" />
    <glyph glyph-name="ocircumflex" unicode="&#xf4;" horiz-adv-x="369" 
d="M157 843q1 0 26 1.5t40 1.5q28 0 29 -4q12 -29 47 -101q1 -2 1 -4q0 -8 -10 -8l-47 1q-7 0 -10.5 1.5t-4 3t-3.5 7.5l-23 50l-26 -44q-9 -16 -19 -16h-2l-42 1q-16 0 -16 8q0 7 5 15q6 11 14.5 26.5t13.5 24.5t10.5 18.5t9.5 13.5t7 4zM349 346q0 -42 -0.5 -69.5
t-4 -67.5t-10 -66t-19 -55.5t-30 -46.5t-44 -28.5t-60.5 -11.5q-51 0 -85.5 32.5t-50 87.5t-21.5 104.5t-6 105.5q0 45 1.5 80t7 83t18 82.5t31.5 66.5t50.5 49t72.5 17q34 0 59.5 -14.5t41.5 -42.5t26 -59.5t15 -77t6.5 -82.5t1.5 -87zM104 333q0 -143 12 -186
q6 -24 16.5 -31t30.5 -7q19 0 30 1q32 3 40.5 14.5t10.5 39.5q7 109 7 195q0 80 -4 169q-1 31 -3.5 47t-14.5 30.5t-35 14.5h-1q-34 0 -46.5 -9t-20.5 -50q-22 -100 -22 -228z" />
    <glyph glyph-name="otilde" unicode="&#xf5;" horiz-adv-x="369" 
d="M152 739q-1 -10 -10 -10l-44 1q-8 0 -8 11v9q0 34 20 56.5t42 22.5q24 0 43 -19.5t27 -19.5q14 0 18 7t4 29v1q0 6 6 6l48 -3q7 -1 8 -11q0 -3 0.5 -7t0.5 -7q0 -33 -17 -54t-38 -21q-26 0 -44 20.5t-30 20.5q-22 0 -26 -32zM349 346q0 -42 -0.5 -69.5t-4 -67.5t-10 -66
t-19 -55.5t-30 -46.5t-44 -28.5t-60.5 -11.5q-51 0 -85.5 32.5t-50 87.5t-21.5 104.5t-6 105.5q0 45 1.5 80t7 83t18 82.5t31.5 66.5t50.5 49t72.5 17q34 0 59.5 -14.5t41.5 -42.5t26 -59.5t15 -77t6.5 -82.5t1.5 -87zM104 333q0 -143 12 -186q6 -24 16.5 -31t30.5 -7
q19 0 30 1q32 3 40.5 14.5t10.5 39.5q7 109 7 195q0 80 -4 169q-1 31 -3.5 47t-14.5 30.5t-35 14.5h-1q-34 0 -46.5 -9t-20.5 -50q-22 -100 -22 -228z" />
    <glyph glyph-name="odieresis" unicode="&#xf6;" horiz-adv-x="369" 
d="M244 807q19 0 34 -10t15 -27q0 -21 -14.5 -31t-34.5 -10q-15 0 -29 12.5t-14 26.5q0 17 12.5 28t30.5 11zM137 731q-18 0 -30.5 9.5t-12.5 26.5q0 14 14 27t29 13q20 0 34.5 -10t14.5 -31q0 -16 -15.5 -25.5t-33.5 -9.5zM349 346q0 -42 -0.5 -69.5t-4 -67.5t-10 -66
t-19 -55.5t-30 -46.5t-44 -28.5t-60.5 -11.5q-51 0 -85.5 32.5t-50 87.5t-21.5 104.5t-6 105.5q0 45 1.5 80t7 83t18 82.5t31.5 66.5t50.5 49t72.5 17q34 0 59.5 -14.5t41.5 -42.5t26 -59.5t15 -77t6.5 -82.5t1.5 -87zM104 333q0 -143 12 -186q6 -24 16.5 -31t30.5 -7
q19 0 30 1q32 3 40.5 14.5t10.5 39.5q7 109 7 195q0 80 -4 169q-1 31 -3.5 47t-14.5 30.5t-35 14.5h-1q-34 0 -46.5 -9t-20.5 -50q-22 -100 -22 -228z" />
    <glyph glyph-name="divide" unicode="&#xf7;" horiz-adv-x="304" 
d="M103 512q0 25 14.5 47t38.5 22q30 0 43.5 -21t13.5 -49q0 -21 -17 -39.5t-38 -18.5q-23 0 -39 17.5t-16 41.5zM213 234q0 -24 -14 -41.5t-37 -17.5q-21 0 -38.5 18.5t-17.5 39.5q0 28 14 49t44 21q23 0 36 -21.5t13 -47.5zM17 350v35v17q1 17 4.5 22t13.5 5h1l234 -7
q14 0 18.5 -3t4.5 -15v-4l-1 -46q0 -6 -0.5 -9.5t-1 -6.5t-2 -4.5t-2 -3t-4 -1.5t-5.5 -0.5t-8 -0.5h-9h-197q-4 0 -10.5 -0.5t-8.5 -0.5q-27 0 -27 23z" />
    <glyph glyph-name="oslash" unicode="&#xf8;" horiz-adv-x="369" 
d="M346 348q0 -175 -31 -254q-37 -88 -140 -88q-36 0 -65 18q-4 -11 -10 -14t-25 -5q-18 -4 -38 -4q-7 0 -7 5q0 3 8 23l18 54q-37 71 -37 201q0 52 3.5 100.5t15.5 108t32 102.5t56.5 72.5t85.5 29.5q28 0 49 -12l5 14q6 11 11.5 15t17.5 4h7l20 -1q20 -1 20 -8l-30 -87
q34 -77 34 -273v-1zM108 232l121 359q-13 6 -35 6q-14 0 -22 -1.5t-17.5 -7.5t-16 -20t-11.5 -36q-22 -100 -22 -246q0 -21 3 -54zM142 118q19 -13 52 -13q43 0 57 15.5t14 55.5v143v146v16z" />
    <glyph glyph-name="ugrave" unicode="&#xf9;" horiz-adv-x="376" 
d="M67 811q-15 15 -15 19q0 9 30 11h51q8 0 13.5 -2.5t7.5 -4.5t6.5 -8.5t7.5 -9.5l55 -86q2 -4 2 -5q0 -8 -11 -8l-53 1q-15 0 -25 12q-4 4 -17 20.5t-27 33t-25 27.5zM254 669q0 9 1.5 10.5t9.5 1.5l82 1q8 0 9.5 -2t1.5 -10l-6 -398q-5 -95 -21 -138q-25 -64 -60 -95.5
t-97 -31.5q-43 0 -73.5 19t-47 54t-24 73t-9.5 88v114q0 201 12 294q1 6 1.5 8t2 4.5t4.5 3t8 0.5q36 2 56 2q8 0 8 -5v-11q-6 -80 -6 -274v-43q0 -128 10 -192q1 -6 2 -7.5t3 -2t8 -0.5h93q12 0 18 10q9 17 9 48v17z" />
    <glyph glyph-name="uacute" unicode="&#xfa;" horiz-adv-x="376" 
d="M306 805q-11 -11 -25 -27.5t-27 -33t-17 -20.5q-11 -12 -25 -12l-53 -1q-12 0 -12 8q0 1 1 2l1.5 1.5t0.5 1.5l55 86q3 3 7.5 9.5t6.5 8.5t7.5 4.5t13.5 2.5h51q30 -2 30 -11q0 -4 -15 -19zM254 669q0 9 1.5 10.5t9.5 1.5l82 1q8 0 9.5 -2t1.5 -10l-6 -398
q-5 -95 -21 -138q-25 -64 -60 -95.5t-97 -31.5q-43 0 -73.5 19t-47 54t-24 73t-9.5 88v114q0 201 12 294q1 6 1.5 8t2 4.5t4.5 3t8 0.5q36 2 56 2q8 0 8 -5v-11q-6 -80 -6 -274v-43q0 -128 10 -192q1 -6 2 -7.5t3 -2t8 -0.5h93q12 0 18 10q9 17 9 48v17z" />
    <glyph glyph-name="ucircumflex" unicode="&#xfb;" horiz-adv-x="376" 
d="M143 828q1 0 26.5 1.5t40.5 1.5q28 0 29 -4q8 -19 47 -100q1 -2 1 -4q0 -8 -11 -8l-47 1q-4 0 -6 0.5t-3.5 0.5t-3 1.5t-1.5 2t-1.5 3.5t-1.5 4l-24 49l-25 -44q-8 -15 -20 -15h-2l-42 1q-15 0 -15 8q0 7 5 14q6 11 14.5 26.5t13.5 24.5l10 18t9 13.5t7 4.5zM254 669
q0 9 1.5 10.5t9.5 1.5l82 1q8 0 9.5 -2t1.5 -10l-6 -398q-5 -95 -21 -138q-25 -64 -60 -95.5t-97 -31.5q-43 0 -73.5 19t-47 54t-24 73t-9.5 88v114q0 201 12 294q1 6 1.5 8t2 4.5t4.5 3t8 0.5q36 2 56 2q8 0 8 -5v-11q-6 -80 -6 -274v-43q0 -128 10 -192q1 -6 2 -7.5t3 -2
t8 -0.5h93q12 0 18 10q9 17 9 48v17z" />
    <glyph glyph-name="udieresis" unicode="&#xfc;" horiz-adv-x="376" 
d="M231 795q19 0 34.5 -10t15.5 -27q0 -21 -15 -31t-35 -10q-15 0 -29 12.5t-14 26.5q0 17 12.5 28t30.5 11zM125 719q-18 0 -30.5 9.5t-12.5 26.5q0 14 14 27t29 13q20 0 34.5 -10t14.5 -31q0 -16 -15.5 -25.5t-33.5 -9.5zM254 669q0 9 1.5 10.5t9.5 1.5l82 1q8 0 9.5 -2
t1.5 -10l-6 -398q-5 -95 -21 -138q-25 -64 -60 -95.5t-97 -31.5q-43 0 -73.5 19t-47 54t-24 73t-9.5 88v114q0 201 12 294q1 6 1.5 8t2 4.5t4.5 3t8 0.5q36 2 56 2q8 0 8 -5v-11q-6 -80 -6 -274v-43q0 -128 10 -192q1 -6 2 -7.5t3 -2t8 -0.5h93q12 0 18 10q9 17 9 48v17z
" />
    <glyph glyph-name="yacute" unicode="&#xfd;" horiz-adv-x="366" 
d="M305 807q-21 -21 -69 -81q-12 -12 -25 -12l-53 -1q-13 0 -13 8l1 2q1 2 1 3l56 86q3 3 6.5 8t5.5 7t5.5 5t7.5 4t10 1h51q30 -1 30 -11q0 -3 -14 -19zM246 147q0 -18 1 -62t1 -62q0 -4 -0.5 -7t-1 -5.5t-2 -4t-2.5 -2t-4 -1.5t-4 -1t-6 -0.5t-7 -0.5q-20 -2 -31 -2
q-10 0 -34 2q-13 1 -17.5 2.5t-7 6t-2.5 14.5q0 17 1 63t1 66v60l-2 54q0 14 -6 36q-13 44 -53 157t-60 180l-4 16q0 7 30 13t43 6q9 0 16 -20q2 -5 20.5 -75.5t37 -129t27.5 -58.5q7 0 16.5 25t18.5 63.5t16.5 75.5t14 70t7.5 39q1 4 2 9t1.5 7t2 5t3 4t4.5 2t7 1h71
q18 0 18 -4q0 -3 -3 -12q-14 -53 -56 -188.5t-55 -219.5l-2 -101v-21z" />
    <glyph glyph-name="thorn" unicode="&#xfe;" horiz-adv-x="325" 
d="M28 444q0 33 -0.5 99.5t-0.5 99.5q0 9 0.5 30.5t0.5 32.5q0 16 2.5 19t16.5 5q21 3 43 3q17 0 21.5 -4t4.5 -17v-107q30 0 63 -5q47 -8 72.5 -38t40.5 -83q12 -43 12 -87q0 -85 -42 -137t-119 -60q-1 0 -9 -1t-13.5 -2.5t-5.5 -3.5v-4q0 -26 0.5 -41t0.5 -41v-73
q0 -13 -3 -16t-16 -5q-22 -2 -36 -2q-3 0 -9 0.5t-9 0.5q-11 0 -13.5 2.5t-2.5 12.5v181q0 40 0.5 120.5t0.5 120.5zM130 318q0 -11 3 -14.5t12 -3.5q3 0 30 5q15 3 19.5 8t10.5 20q18 49 18 91q0 50 -21 94q-6 12 -24 12q-6 0 -48 -3v-209z" />
    <glyph glyph-name="ydieresis" unicode="&#xff;" horiz-adv-x="366" 
d="M226 801q18 0 33 -10t15 -27q0 -21 -14.5 -31t-34.5 -10q-14 0 -28 12.5t-14 26.5q0 17 12.5 28t30.5 11zM119 725q-17 0 -29.5 9.5t-12.5 26.5q0 14 14 27t28 13q20 0 34.5 -10t14.5 -31q0 -17 -15 -26t-34 -9zM246 147q0 -18 1 -62t1 -62q0 -4 -0.5 -7t-1 -5.5t-2 -4
t-2.5 -2t-4 -1.5t-4 -1t-6 -0.5t-7 -0.5q-20 -2 -31 -2q-10 0 -34 2q-13 1 -17.5 2.5t-7 6t-2.5 14.5q0 17 1 63t1 66v60l-2 54q0 14 -6 36q-13 44 -53 157t-60 180l-4 16q0 7 30 13t43 6q9 0 16 -20q2 -5 20.5 -75.5t37 -129t27.5 -58.5q7 0 16.5 25t18.5 63.5t16.5 75.5
t14 70t7.5 39q1 4 2 9t1.5 7t2 5t3 4t4.5 2t7 1h71q18 0 18 -4q0 -3 -3 -12q-14 -53 -56 -188.5t-55 -219.5l-2 -101v-21z" />
    <glyph glyph-name="dotlessi" unicode="&#x131;" horiz-adv-x="149" 
d="M52 675l54 -2q11 -1 14 -3.5t3 -11.5v-5l1 -602v-10q0 -7 -2.5 -8.5t-12.5 -3.5l-63 -10h-8q-8 0 -8 13v7l-4 609q0 18 2 22.5t13 4.5h11z" />
    <glyph glyph-name="OE" unicode="&#x152;" horiz-adv-x="553" 
d="M536 111v-69q0 -13 -3 -15.5t-17 -2.5l-96 -1l-102 2h-9q-11 0 -14.5 3t-3.5 16q-39 -26 -88 -26t-86.5 31t-58 80.5t-30.5 104t-10 110.5q0 67 9 127t29 118.5t60.5 93.5t96.5 35q43 0 85 -28h4q4 1 8 1l187 6h4q10 0 11.5 -2.5t2.5 -15.5q2 -40 2 -63q0 -9 -1.5 -10.5
t-9.5 -1.5h-3h-110q-11 0 -13 -2.5t-2 -13.5l-3 -148v-5q0 -5 2 -6.5t10 -1.5l113 -1q10 0 12 -1t2 -6v-8l-4 -66q-1 -10 -2.5 -11.5t-11.5 -2.5l-92 -4q-7 0 -9 -2t-2 -8v-4l1 -167q0 -11 2.5 -13.5t13.5 -2.5h53l58 -1q10 0 12.5 -2t2.5 -9v-7zM282 130q8 34 8 164v27v50
q0 11 0.5 38.5t0.5 43.5q0 134 -30 171q-10 10 -60 10q-17 0 -32.5 -6t-17.5 -15q-30 -69 -30 -231q0 -194 26 -250q6 -14 43 -14h23h23q43 0 46 12z" />
    <glyph glyph-name="oe" unicode="&#x153;" horiz-adv-x="552" 
d="M292 678l211 -3q11 0 14.5 -1t3.5 -7q0 -1 -0.5 -4.5t-0.5 -5.5l-5 -63q-2 -17 -6 -19q-4 -1 -16 -1h-112q-10 0 -12.5 -2t-2.5 -9v-11l-1 -108v-8q0 -7 2.5 -8.5t13.5 -1.5h95h9q10 0 12.5 -3t2.5 -15v-50q0 -20 -3 -23t-22 -4q-14 -1 -44 -1h-60h-10q-11 0 -13.5 -3.5
t-2.5 -17.5l-1 -146q0 -20 3 -23t23 -4l142 -8q15 -1 17.5 -4t2.5 -19v-69q0 -17 -2.5 -20t-18.5 -3h-215h-7t-5 1l-3 1.5t-1.5 3t-1 3.5t-0.5 5.5v7.5v4q-37 -33 -103 -33q-45 0 -77.5 25t-48.5 68t-23 88t-7 97t3.5 100.5t15.5 108t32 102.5t56.5 72.5t85.5 29.5
q33 0 55 -22q2 3 11 3h14zM105 286q0 -79 12 -122q9 -34 27 -46.5t50 -12.5q43 0 57 15.5t14 55.5v143v146q0 76 -12 104t-59 28q-14 0 -22 -1.5t-17.5 -7.5t-16 -20t-11.5 -36q-22 -100 -22 -246z" />
    <glyph glyph-name="Scaron" unicode="&#x160;" horiz-adv-x="351" 
d="M140 751q-5 0 -11 9.5t-21.5 38t-21.5 39.5q-5 8 -5 14q0 8 15 8l42 1h2q12 0 20 -15l25 -44q14 26 24 49q1 1 1 3q8 8 16 9l47 1q11 0 11 -8q0 -2 -1 -4q-39 -81 -47 -100q-1 -4 -29 -4q-15 0 -40.5 1.5t-26.5 1.5zM162 -1q-65 0 -97 61.5t-32 147.5v22q1 14 2 18t4.5 6
t15.5 3l60 5q6 1 14 1t10 -4t2 -19v-4v-45v-68v-3q0 -16 7 -21q11 -8 25 -8q26 0 47 7q17 6 17 44q0 119 -70 155q-42 22 -56 32q-97 71 -97 192q0 35 11 82q14 59 55 91.5t102 32.5q151 0 151 -229q0 -23 -3 -47q-1 -12 -14 -12q-2 0 -6 0.5t-7 0.5l-35 4q-21 2 -23 6
q-2 3 -2 18v6q-3 165 -68 165q-36 0 -53.5 -40t-17.5 -84q0 -19 2.5 -34t9.5 -27.5t12 -20t18.5 -17.5t18.5 -13.5t23.5 -13t23.5 -12.5q53 -29 74 -77.5t21 -125.5q0 -83 -36.5 -129t-108.5 -46z" />
    <glyph glyph-name="scaron" unicode="&#x161;" horiz-adv-x="333" 
d="M125 724q-5 0 -11 9.5t-21.5 38t-21.5 39.5q-5 7 -5 14q0 9 15 9l42 1h2q10 0 19 -16l26 -44q14 26 24 49q0 1 1.5 4.5t2 4t2.5 2t4.5 2t6.5 0.5l47 1q10 0 10 -9q0 -2 -1 -4q-39 -81 -47 -100q-1 -4 -29 -4q-15 0 -40 1.5t-26 1.5zM291 414q-18 -2 -25 -2t-25 2
q-8 2 -11.5 5.5t-4.5 7t-3 15.5q-1 7 -3 38t-5 49.5t-9 43t-18.5 37t-30.5 12.5q-11 0 -23 -7q-21 -18 -29.5 -40.5t-10.5 -58.5v-7q0 -79 117 -126q112 -46 112 -189q0 -101 -75 -164q-32 -27 -72 -27q-26 0 -50 10q-109 43 -109 204q0 37 4 69q2 14 6 17t16 3q14 0 40 -6
q14 -3 17 -6.5t3 -20.5q0 -27 1 -42.5t4 -40.5t8.5 -39t16.5 -25.5t26 -12.5q62 0 62 76q0 25 -8 63q-5 21 -19.5 34t-42.5 25.5t-36 17.5q-88 54 -88 142q0 98 41 158.5t118 61.5q65 0 96 -58t31 -141q0 -33 -4 -56q-2 -14 -4 -17t-13 -5z" />
    <glyph glyph-name="Ydieresis" unicode="&#x178;" horiz-adv-x="376" 
d="M231 787q19 0 34.5 -9.5t15.5 -26.5q0 -21 -15 -31t-35 -10q-15 0 -29 12.5t-14 26.5q0 17 12.5 27.5t30.5 10.5zM125 712q-18 0 -30.5 9.5t-12.5 26.5q0 14 14 26.5t29 12.5q20 0 34.5 -10t14.5 -31q0 -16 -15.5 -25t-33.5 -9zM24 645l60 1h3q22 0 28 -21q2 -7 12.5 -44
t15.5 -52t16 -42.5t24 -49.5q5 -11 8 -11t7 14q10 32 23.5 79t23.5 77.5t25 71.5q4 11 8 14t18 3l65 1q16 -2 16 -11q0 -4 -1 -6q-90 -230 -135 -346q-8 -19 -8 -42q0 -54 4.5 -142t5.5 -115v-13q0 -7 -3.5 -9t-15.5 -2h-82q-13 0 -17 2t-4 9q0 1 0.5 5t0.5 7q9 204 9 235
q0 72 -32 136q-21 41 -50.5 117.5t-39.5 100.5q-8 16 -8 22q0 11 23 11z" />
    <glyph glyph-name="Zcaron" unicode="&#x17d;" horiz-adv-x="265" 
d="M98 725q-5 0 -11 9.5t-21.5 38t-21.5 39.5q-5 7 -5 14q0 9 15 9l42 1h2q11 0 20 -16l25 -44q14 26 24 49q0 1 1.5 4.5t2 4t2.5 2t4.5 2t6.5 0.5l47 1q11 0 11 -9q0 -2 -1 -4q-39 -81 -47 -100q-1 -4 -29 -4q-15 0 -40.5 1.5t-26.5 1.5zM20 36q-2 70 -2 104q0 12 6 32
q16 60 59.5 214.5t60.5 225.5h-94q-23 2 -23 24l2 40q0 5 0.5 8t1.5 5.5t1.5 3.5t3.5 2t4.5 1h7h8.5q12 0 32 1t37.5 1.5t35.5 0.5q20 0 66 -2q11 -1 14.5 -3.5t3.5 -9.5v-11q-2 -65 -8 -83q-54 -152 -117 -424q0 -1 -1.5 -6t-1.5 -8q0 -7 17 -8q31 -2 97 -2h1q12 0 12 -9
q0 -1 -0.5 -3t-0.5 -4l-14 -79q-2 -12 -8 -16t-21 -5q-129 -9 -141 -9h-27q-12 0 -12 19z" />
    <glyph glyph-name="zcaron" unicode="&#x17e;" horiz-adv-x="289" 
d="M120 730q-5 0 -11 9.5t-21.5 38t-21.5 39.5q-6 9 -6 14q0 9 16 9l42 1h2q10 0 19 -16l26 -44q13 26 23 49q5 11 11 12q2 1 7 1l47 1q10 0 10 -8q0 -3 -1 -5q-39 -81 -47 -100q-1 -4 -29 -4q-15 0 -40 1.5t-26 1.5zM42 1q-3 0 -6.5 -0.5t-4.5 -0.5q-12 0 -12 14v1l1 79v4
q0 3 6 21l155 456l-138 -6q-14 1 -17.5 4t-3.5 18l-2 90q0 16 20 18h219q23 0 23 -19l-3 -55q-2 -20 -7 -32q-21 -55 -43 -123.5t-36.5 -117t-36.5 -122t-31 -103.5q-1 -2 -1.5 -4t-1 -3t-1 -2.5t-0.5 -2.5q0 -6 14 -6h6q14 0 48.5 3t55.5 4h6q4 0 6 -0.5t3.5 -1t2 -2.5
t1 -3t0.5 -5v-6l7 -70v-8q0 -6 -2.5 -7.5t-11.5 -1.5h-2z" />
    <glyph glyph-name="florin" unicode="&#x192;" horiz-adv-x="409" 
d="M311 457q-14 1 -14 11v2l1 16q3 36 3 61q0 39 -10 56t-36 17q-46 0 -59 -222q-1 -17 -2 -25l57 -1q13 0 17 -2t4 -11v-9l-4 -46q-1 -6 -1.5 -9.5t-1 -6.5t-2.5 -4.5t-2.5 -3t-4 -1.5t-5.5 -0.5t-8 -0.5h-9l-48 -2l-14 -197q-1 -23 -5 -81q-6 -91 -47.5 -146.5
t-115.5 -55.5q-82 0 -110.5 35t-28.5 98q0 8 1 14t1 12q1 13 3 19.5t7 10.5t14 4q4 0 58 -3q15 -1 15 -12l-3 -30q0 -32 9.5 -47.5t36.5 -15.5q18 0 31 17t19.5 51.5t9.5 61t5.5 72t3.5 57.5l8 135h-24q-4 0 -10.5 -0.5t-8.5 -0.5q-26 0 -26 21v3q2 16 4 52q1 17 5.5 22
t14.5 5h1l50 -1l6 96q5 58 21 113q15 52 53.5 81.5t88.5 29.5q81 0 109 -34.5t28 -105.5q0 -32 -3 -69q-1 -19 -5.5 -26t-17.5 -7q-2 0 -59 3z" />
    <glyph glyph-name="circumflex" unicode="&#x2c6;" horiz-adv-x="251" 
d="M84 758q1 0 26.5 1.5t40.5 1.5q27 0 28 -4q12 -29 47 -101q1 -2 1 -4q0 -8 -10 -8l-47 1q-4 0 -6 0.5t-3.5 0.5t-3 1.5t-1.5 2t-1.5 3.5t-1.5 4l-24 50l-26 -44q-9 -16 -19 -16h-2l-42 1q-15 0 -15 8t5 15q6 11 14.5 26.5t13.5 24.5l10 18t9 13.5t7 4.5z" />
    <glyph glyph-name="tilde" unicode="&#x2dc;" horiz-adv-x="270" 
d="M92 709q-1 -11 -9 -11l-44 1q-8 0 -8 12v8q0 34 19.5 57t41.5 23q24 0 43.5 -20t27.5 -20q13 0 17 7t4 30v1q0 5 6 5l49 -2q7 -1 8 -12q0 -2 0.5 -7t0.5 -7q0 -33 -17 -54t-38 -21t-33.5 10.5t-21 20.5t-19.5 10q-12 0 -18.5 -6.5t-8.5 -24.5z" />
    <glyph glyph-name="endash" unicode="&#x2013;" horiz-adv-x="412" 
d="M27 329v59q0 17 4 22t14 5q3 0 10.5 -0.5t11.5 -0.5h281q5 0 13 0.5t11 0.5q12 0 16.5 -5.5t5.5 -23.5l2 -42v-16q0 -11 -4.5 -14t-23.5 -4l-302 -5q-4 0 -11.5 -0.5t-10.5 -0.5q-17 0 -17 25z" />
    <glyph glyph-name="emdash" unicode="&#x2014;" horiz-adv-x="623" 
d="M27 329v59q0 17 4 22t14 5q3 0 10.5 -0.5t11.5 -0.5h479q6 0 13 0.5t10 0.5q13 0 18 -5.5t5 -23.5l2 -42q0 -4 0.5 -9t0.5 -7q0 -11 -5 -14t-25 -4l-499 -5q-4 0 -11.5 -0.5t-10.5 -0.5q-17 0 -17 25z" />
    <glyph glyph-name="quoteleft" unicode="&#x2018;" horiz-adv-x="141" 
d="M43 490q-10 0 -13 5t-4 21q-1 20 -1 84v5q0 39 56 95q7 7 10 7q24 0 33 -7q5 -4 5 -8q0 -3 -2.5 -6t-6 -7t-5.5 -6q-24 -32 -24 -47q0 -1 6 -1h7q18 0 18 -28v-29q0 -4 -0.5 -19t-0.5 -20v-18q0 -22 -17 -22q-8 0 -31 0.5t-30 0.5z" />
    <glyph glyph-name="quoteright" unicode="&#x2019;" horiz-adv-x="146" 
d="M101 689q10 0 13.5 -5t4.5 -20q1 -20 1 -84v-6q0 -10 -3.5 -21t-8.5 -19.5t-12.5 -18.5t-12.5 -15t-12 -12.5t-8 -8.5q-6 -6 -10 -6q-39 0 -39 14q0 3 2.5 6t6.5 7.5t6 6.5q24 30 24 47q0 1 -6 1h-7q-17 0 -17 28v28v39v19q0 12 3 16.5t14 4.5q8 0 31 -0.5t30 -0.5z" />
    <glyph glyph-name="quotesinglbase" unicode="&#x201a;" horiz-adv-x="158" 
d="M112 139q10 0 13 -4.5t4 -20.5q1 -20 1 -85v-5q0 -10 -3.5 -21.5t-8 -19.5t-12.5 -18.5t-12 -15l-12 -13.5l-8 -8q-6 -6 -11 -6q-24 0 -33 7q-5 3 -5 8q0 2 14 19q24 31 24 48h-6h-7q-17 0 -17 29v27v40v18q0 22 17 22q8 0 31.5 -0.5t30.5 -0.5z" />
    <glyph glyph-name="quotedblleft" unicode="&#x201c;" horiz-adv-x="278" 
d="M169 492q-10 0 -13 5t-4 20q-1 7 -1 22q0 106 56 162q7 7 10 7q24 0 33 -7q5 -4 5 -8q0 -2 -14 -19q-9 -12 -19 -34t-10 -30q0 -1 6 -1h7q23 0 23 -27v-13q0 -4 -0.5 -19t-0.5 -20v-18q0 -22 -17 -22q-8 0 -31 1t-30 1zM41 497q-10 0 -13 5t-4 20q-1 7 -1 23
q0 108 56 162q6 6 10 6q25 0 33 -6q5 -4 5 -9q0 -3 -2.5 -6t-6 -7t-5.5 -6q-8 -11 -16 -33t-8 -31q0 -1 6 -1h7q18 0 18 -27v-13q0 -4 -0.5 -18.5t-0.5 -19.5v-19q0 -12 -3 -16.5t-14 -4.5q-8 0 -31 0.5t-30 0.5z" />
    <glyph glyph-name="quotedblright" unicode="&#x201d;" horiz-adv-x="278" 
d="M108 702q10 0 13 -4.5t4 -20.5q0 -3 0.5 -11t0.5 -12q0 -105 -56 -161q-7 -7 -11 -7q-23 0 -32 7q-5 4 -5 8q0 3 2.5 6t6 7t5.5 6q9 12 19 34t10 30q0 1 -7 1h-7q-22 0 -22 27v13q0 4 0.5 19t0.5 20v18q0 8 1 12t4.5 6.5t10.5 2.5q8 0 31.5 -0.5t30.5 -0.5zM236 697
q10 0 13 -4.5t4 -20.5q0 -4 0.5 -12t0.5 -11q0 -106 -56 -162q-6 -6 -11 -6q-25 0 -32 6q-5 4 -5 9q0 3 2.5 6t6 7t5.5 6q8 11 15.5 33t7.5 31q0 1 -6 1h-7q-11 0 -14 6.5t-3 20.5v13q0 4 0.5 18.5t0.5 19.5v19q0 8 1 12t4.5 6.5t10.5 2.5q8 0 31.5 -0.5t30.5 -0.5z" />
    <glyph glyph-name="quotedblbase" unicode="&#x201e;" horiz-adv-x="283" 
d="M111 210q10 0 13 -5t4 -21q0 -4 0.5 -11t0.5 -11q0 -106 -56 -162q-6 -6 -11 -6q-24 0 -32 6q-5 4 -5 8q0 3 2 6t6 7.5t6 6.5q9 12 19 33.5t10 29.5q0 1 -7 1h-7q-22 0 -22 28v12q0 4 0.5 19t0.5 20v18q0 8 1 12t4.5 7t10.5 3q8 0 31.5 -0.5t30.5 -0.5zM239 205
q10 0 13 -5t4 -21q0 -3 0.5 -11t0.5 -11q0 -106 -56 -162q-6 -6 -11 -6q-24 0 -32 6q-5 4 -5 8q0 3 2 6t6 7.5t6 6.5q8 11 15.5 32.5t7.5 30.5q0 1 -6 1h-7q-17 0 -17 28v12q0 4 0.5 19t0.5 20v18q0 8 1 12t4.5 7t10.5 3q8 0 31.5 -0.5t30.5 -0.5z" />
    <glyph glyph-name="dagger" unicode="&#x2020;" horiz-adv-x="291" 
d="M119 662h43q16 0 20.5 -4t4.5 -15v-21v-32q32 9 54 9h11q17 0 17 -25v-43q0 -16 -4 -21t-14 -5h-11q-17 0 -53 8v-220q0 -5 0.5 -13t0.5 -11q0 -12 -5 -16.5t-23 -5.5l-26 -2h-16q-11 0 -14 4.5t-4 23.5l-3 240q-22 -8 -39 -8h-13q-12 0 -16.5 5.5t-5.5 23.5l-1 25
q-2 14 -2 16q0 18 28 18q16 0 48 -8l-1 38q0 5 -0.5 12t-0.5 9q0 10 5 14t20 4z" />
    <glyph glyph-name="daggerdbl" unicode="&#x2021;" horiz-adv-x="295" 
d="M121 662h43q16 0 20.5 -4t4.5 -15v-21v-32q25 7 54 7h11q10 0 13.5 -4.5t3.5 -18.5v-43q0 -16 -3.5 -20t-14.5 -4h-11q-26 0 -53 6v-31q18 4 54 4h11q8 0 10 -0.5t4.5 -4.5t2.5 -15v-43q0 -16 -3.5 -19.5t-14.5 -3.5h-11q-31 0 -53 6l1 -128v-24q0 -12 -4.5 -17t-22.5 -6
l-26 -2h-16q-11 0 -14.5 5t-3.5 24l-2 148q-20 -7 -41 -7q-3 0 -7 0.5t-6 0.5q-9 0 -12.5 1t-6.5 6.5t-3 17.5l-1 26q-1 7 -1 16q0 15 27 15q26 0 49 -6v37q-13 -5 -39 -5h-13q-12 0 -16.5 4t-5.5 22l-1 25q-1 7 -1 16q0 16 27 16q24 0 48 -6l-1 38q0 5 -0.5 12t-0.5 9
q0 10 5 14t20 4z" />
    <glyph glyph-name="bullet" unicode="&#x2022;" horiz-adv-x="309" 
d="M284 316q0 -63 -36 -106t-90 -43q-49 0 -91.5 43.5t-42.5 93.5q0 65 34 114t104 49q56 0 89 -46.5t33 -104.5z" />
    <glyph glyph-name="ellipsis" unicode="&#x2026;" horiz-adv-x="447" 
d="M425 47q0 -23 -13.5 -39t-34.5 -16q-19 0 -35 17t-16 37q0 26 13 46t40 20q22 0 34 -20.5t12 -44.5zM275 68q0 -22 -13 -38t-33 -16q-18 0 -33.5 17t-15.5 36q0 25 12.5 43.5t38.5 18.5q21 0 32.5 -19t11.5 -42zM137 55q0 -24 -14 -41.5t-37 -17.5q-21 0 -38 18.5
t-17 39.5q0 28 13.5 49t43.5 21q23 0 36 -21.5t13 -47.5z" />
    <glyph glyph-name="perthousand" unicode="&#x2030;" horiz-adv-x="635" 
d="M616 122q0 -51 -25.5 -92t-64.5 -41q-51 0 -76.5 36.5t-25.5 88.5q0 67 24.5 112.5t79.5 45.5q46 0 67 -47t21 -103zM543 76q6 36 6 55q0 9 -2.5 26t-3.5 22q-4 15 -25 15q-12 0 -24 -8q-7 -26 -7 -47q0 -48 7 -63h49zM401 122q0 -50 -26 -91.5t-65 -41.5q-51 0 -76 37
t-25 88q0 67 24 112.5t79 45.5q46 0 67.5 -47t21.5 -103zM327 76q6 36 6 55q0 12 -6 48q-4 15 -25 15q-10 0 -24 -8q-7 -35 -7 -47q0 -46 8 -63h48zM210 566q0 -50 -26.5 -91.5t-65.5 -41.5q-51 0 -76 37t-25 88q0 67 24 113t79 46q46 0 68 -47.5t22 -103.5zM135 527
q5 30 5 50q0 18 -5 48q-3 13 -24 13q-15 0 -25 -6q-6 -30 -6 -48q0 -42 7 -57h48zM342 702l29 -1q20 -1 20 -8v-1q-1 -3 -9 -23l-257 -625q-9 -23 -15 -27t-30 -7l-27 -4q-16 -2 -17 -2q-7 0 -7 5q0 1 8 23l269 652q8 18 29 18h7z" />
    <glyph glyph-name="guilsinglleft" unicode="&#x2039;" horiz-adv-x="250" 
d="M18 362q89 196 117 245q0 1 1 3q6 11 19 12h2l65 6h3q7 0 7 -3q0 -6 -5 -14q-4 -7 -42.5 -94t-57.5 -119q-14 -31 -14 -45q0 -13 9 -39q12 -39 39 -108t42 -124q1 -3 2.5 -6.5t1.5 -4.5q0 -6 -11 -10q-7 -2 -27 -5.5t-24 -4.5l-10 -2q-6 0 -8 4.5t-6 19.5q-1 4 -48 138z
" />
    <glyph glyph-name="guilsinglright" unicode="&#x203a;" horiz-adv-x="250" 
d="M230 366q-17 -44 -54 -152q-47 -134 -48 -138q-8 -23 -14 -24q-2 0 -12 2q-4 1 -15 3t-20 4t-14 4q-12 5 -12 9q0 2 1.5 5t2.5 6q15 54 42.5 123.5t39.5 108.5q9 25 9 39q0 12 -15 45q-19 32 -57 118.5t-42 94.5q-6 10 -6 14q0 3 7 3h4l65 -6q8 0 12 -2.5t5 -4t5 -8.5
q25 -44 116 -244z" />
    <glyph glyph-name="Euro" unicode="&#x20ac;" horiz-adv-x="371" 
d="M280 225q0 6 1.5 7.5t8.5 1.5q26 0 39 -1q9 -1 11.5 -1.5t4 -3.5t1.5 -10q0 -210 -151 -210q-44 0 -73.5 20t-43.5 57t-20 74t-7 87q-2 -1 -5 -1q-27 0 -27 23v35v18q1 17 4.5 21.5t13.5 4.5h13q1 10 1 29h-5q-27 0 -27 23v35v18q1 17 4.5 21.5t13.5 4.5h1h16
q6 103 48 174t125 71q57 0 92 -34t35 -106q0 -18 -1 -29.5t-1 -16.5q0 -6 -1 -9.5t-1 -5.5t-3.5 -3t-4.5 -1.5t-7.5 -1t-8.5 -0.5q-54 -3 -58 -3q-9 0 -10.5 3t-1.5 16v22v18q0 22 -2 33t-10.5 19t-26.5 8q-55 0 -72 -26q-8 -33 -8 -131l91 -2q15 0 19 -2.5t4 -14.5
q0 -26 -19 -69q-4 -8 -29 -8l-66 -1v-33l91 -3q15 0 19 -2.5t4 -14.5q0 -23 -19 -69q-1 -3 -4.5 -5t-6.5 -2t-9.5 -0.5t-8.5 -0.5l-63 -1q10 -107 63 -107q55 0 66 9t11 54v22z" />
    <glyph glyph-name="trademark" unicode="&#x2122;" horiz-adv-x="515" 
d="M234 357q0 23 -2.5 113t-2.5 136q0 38 2 70v6v4.5t0.5 3t1.5 2.5t3.5 1t5.5 1h8h12q8 0 12.5 -0.5t7.5 -2.5t3.5 -2.5t2.5 -5t3 -6.5q10 -23 28.5 -65t26.5 -59q8 -14 9 -14q3 0 11 16q30 55 61 117q4 7 6 9.5t6.5 4t14.5 3.5q2 0 4.5 1t5 1.5t5.5 0.5q6 0 7 -8v-5
q5 -47 10.5 -152t9.5 -153v-8q0 -8 -20 -9l-29 -1h-4q-12 0 -15 4.5t-3 18.5l-3 100l-2 56q0 17 -1 17l-10 -18q-27 -48 -43 -74q-8 -15 -11 -15t-9 13l-42 87q-6 13 -8 13q-1 0 -1 -16v-89l1 -98v-4q0 -9 -5 -10.5t-23 -1.5h-12q-14 0 -18 1.5t-4 8.5v8zM30 644
q-12 0 -12 9v1l1 2l4 28q1 11 18 11l157 -8q13 0 14 -8q0 -3 0.5 -8.5t0.5 -8.5q0 -11 -15 -12h-2h-2h-33q-9 0 -9 -6q-2 -94 -2 -131v-147q0 -8 -2 -10.5t-12 -2.5l-38 -2h-4q-11 0 -11 13v170q0 59 -1 87v14q0 8 -10 8z" />
    </font>
</defs>
</svg>
